<?xml version="1.0" standalone="no"?>
<!DOCTYPE svg PUBLIC "-//W3C//DTD SVG 20010904//EN"
 "http://www.w3.org/TR/2001/REC-SVG-20010904/DTD/svg10.dtd">
<svg version="1.0" xmlns="http://www.w3.org/2000/svg"
 width="751.000000pt" height="224.000000pt" viewBox="0 0 751.000000 224.000000"
 preserveAspectRatio="xMidYMid meet">

<g transform="translate(0.000000,224.000000) scale(0.100000,-0.100000)"
fill="#000000" stroke="none">
<path d="M703 1988 c-39 -117 -96 -285 -127 -373 -52 -151 -279 -817 -405
-1190 -32 -93 -72 -210 -90 -260 -17 -49 -31 -95 -31 -102 0 -10 52 -13 243
-13 l244 0 29 97 30 98 568 0 569 0 26 -95 26 -95 258 -3 c141 -1 257 0 257 4
0 3 -21 58 -46 122 -60 153 -196 499 -269 685 -32 81 -62 147 -66 147 -5 0
-50 -37 -100 -82 -50 -46 -118 -102 -152 -126 -34 -24 -66 -47 -70 -52 -5 -4
1 -42 12 -84 12 -42 21 -81 21 -86 0 -6 -167 -10 -471 -10 l-470 0 7 23 c4 12
13 43 21 69 7 27 20 70 28 98 8 27 21 71 29 97 8 27 28 95 46 153 17 58 34
114 37 125 3 11 21 72 40 135 19 63 46 153 59 200 43 147 105 354 115 388 l11
32 83 0 83 0 25 -67 c13 -38 39 -119 57 -181 l33 -112 46 26 c83 48 175 113
223 156 l47 43 -45 115 c-24 63 -53 138 -63 165 -10 28 -29 76 -41 108 l-22
57 -367 0 -367 0 -71 -212z"/>
<path d="M1833 1781 c-64 -22 -106 -49 -208 -136 -163 -139 -346 -244 -505
-288 -44 -12 -80 -25 -80 -29 0 -3 19 -27 43 -52 55 -60 109 -76 199 -57 116
24 253 104 398 235 158 142 275 208 372 210 l56 1 -13 25 c-21 40 -78 89 -116
100 -48 14 -87 12 -146 -9z"/>
<path d="M1871 1528 c-29 -11 -90 -49 -135 -84 -173 -136 -241 -186 -310 -226
-78 -46 -239 -112 -298 -123 -23 -4 -38 -13 -38 -21 0 -8 3 -14 8 -14 4 0 16
-14 27 -30 54 -82 173 -90 320 -21 107 50 157 84 282 194 174 152 275 210 375
211 l57 1 -16 25 c-45 71 -108 110 -178 109 -22 0 -64 -9 -94 -21z"/>
<path d="M1885 1255 c-38 -19 -101 -62 -140 -96 -148 -130 -350 -252 -494
-298 -35 -12 -69 -21 -75 -21 -6 0 -17 -4 -25 -9 -11 -7 -8 -17 18 -50 45 -57
77 -71 158 -71 55 0 83 7 143 33 104 45 202 111 301 201 160 147 298 222 391
213 l47 -4 -14 26 c-15 30 -70 84 -102 100 -12 6 -48 11 -80 11 -46 0 -73 -8
-128 -35z"/>
</g>
</svg>
