<?xml version="1.0" encoding="UTF-8"?>
<svg version="1.1" xmlns="http://www.w3.org/2000/svg" width="730" height="301">
<path d="M0 0 C8.08548819 -0.04672743 16.17091819 -0.08207139 24.25650883 -0.10362434 C28.01260779 -0.11397843 31.76861311 -0.12798059 35.5246582 -0.15087891 C39.16217888 -0.1729111 42.79961057 -0.18463122 46.43719292 -0.18975449 C47.81197952 -0.19339663 49.18676231 -0.20050502 50.56151009 -0.21146011 C63.04043174 -0.30677582 75.56735788 0.47982701 87.5625 4.1875 C88.61655029 4.50787231 88.61655029 4.50787231 89.69189453 4.8347168 C114.33225362 12.67836981 134.49576606 30.6045245 147 53 C159.8260292 77.86481393 161.84238712 106.36631832 153.36669922 132.98925781 C145.29327066 157.215591 126.85685829 178.55478902 104 190 C81.13916269 200.68993217 59.09962173 200.50413947 34.375 200.25 C17.359375 200.12625 17.359375 200.12625 0 200 C0 161.06 0 122.12 0 82 C14.52 82 29.04 82 44 82 C45.66165207 83.66165207 45.11959725 85.6651603 45.12442017 87.88401794 C45.11902725 88.93058311 45.11902725 88.93058311 45.11352539 89.99829102 C45.11367142 90.72995483 45.11381744 91.46161865 45.1139679 92.2154541 C45.11326867 94.64496784 45.10547585 97.07440583 45.09765625 99.50390625 C45.0957921 101.18399514 45.09436819 102.86408457 45.09336853 104.54417419 C45.08954307 108.97473643 45.07971256 113.4052661 45.06866455 117.83581543 C45.05845103 122.35342976 45.05387104 126.87104934 45.04882812 131.38867188 C45.03809031 140.25912893 45.02101356 149.12956176 45 158 C48.15673676 157.8775023 51.31270643 157.7407017 54.46875 157.6015625 C55.35143555 157.56748291 56.23412109 157.53340332 57.14355469 157.49829102 C73.93470152 156.73294869 89.23257482 151.5416723 100.921875 138.92578125 C112.83235275 125.02276117 116.29418776 109.8367263 115 92 C112.81313158 76.26924901 104.51520392 63.71961566 92.37109375 53.8671875 C83.43454284 47.71415245 73.75261112 43.52262082 62.82104492 44.29223633 C50.75484442 45.03111263 41.50404927 44.82854494 32.03871155 36.66424561 C27.38588414 32.14971688 23.04998458 27.41089886 18.75 22.5625 C16.91712616 20.59458942 15.06162061 18.64859686 13.20703125 16.70117188 C0 2.68107813 0 2.68107813 0 0 Z " fill="#32486C" transform="translate(382,38)"/>
<path d="M0 0 C2.60672297 2.32363994 3.94839547 4.60782767 5.41796875 7.76171875 C5.86325928 8.70708496 6.3085498 9.65245117 6.76733398 10.62646484 C7.47031616 12.14167725 7.47031616 12.14167725 8.1875 13.6875 C9.18117114 15.79870484 10.17596606 17.90938112 11.171875 20.01953125 C11.65720703 21.05029785 12.14253906 22.08106445 12.64257812 23.14306641 C14.35527149 26.74773146 16.13233107 30.31599168 17.9375 33.875 C21.38932337 40.70362675 24.69964003 47.59706241 28 54.5 C32.56937295 64.05150456 37.22824222 73.54841738 42 83 C48.08678775 95.07196776 54.0728637 107.18091348 59.87426758 119.39282227 C63.00613965 125.96836415 66.22449685 132.49493099 69.5 139 C74.65215017 149.23945321 79.60842721 159.56531338 84.52929688 169.91748047 C86.1304933 173.27350737 87.74369368 176.62357968 89.359375 179.97265625 C90.19190796 181.69971802 90.19190796 181.69971802 91.04125977 183.46166992 C92.12369111 185.70599332 93.20747392 187.9496655 94.29272461 190.19262695 C95.01987671 191.70215942 95.01987671 191.70215942 95.76171875 193.2421875 C96.19444092 194.1379248 96.62716309 195.03366211 97.07299805 195.95654297 C98 198 98 198 98 199 C83.15 199 68.3 199 53 199 C51.205625 195.761875 49.41125 192.52375 47.5625 189.1875 C46.99732666 188.17067139 46.43215332 187.15384277 45.84985352 186.10620117 C45.40569092 185.30158447 44.96152832 184.49696777 44.50390625 183.66796875 C44.04830322 182.84578857 43.5927002 182.0236084 43.12329102 181.17651367 C42 179 42 179 41 176 C22.19 175.67 3.38 175.34 -16 175 C-13.03 168.73 -10.06 162.46 -7 156 C-5.99453125 153.73898438 -4.9890625 151.47796875 -3.953125 149.1484375 C2.85010735 134.31518054 2.85010735 134.31518054 6.8046875 131.89599609 C10.62991919 130.71473388 14.16767045 131.06664232 18 132 C9.80490398 115.34067415 9.80490398 115.34067415 1 99 C-1.10708795 101.69099356 -2.82302233 104.36745208 -4.390625 107.40234375 C-4.844375 108.27632813 -5.298125 109.1503125 -5.765625 110.05078125 C-6.25546875 111.00339844 -6.7453125 111.95601563 -7.25 112.9375 C-7.7759375 113.95328125 -8.301875 114.9690625 -8.84375 116.015625 C-9.9800707 118.21127272 -11.11477849 120.40775577 -12.24804688 122.60498047 C-13.96812924 125.9382393 -15.69409278 129.26838305 -17.421875 132.59765625 C-23.07501555 143.4986915 -28.70339709 154.41197019 -34.296875 165.34375 C-34.74889282 166.2267981 -35.20091064 167.10984619 -35.66662598 168.01965332 C-37.90899561 172.40058473 -40.1494701 176.78246679 -42.38671875 181.16601562 C-43.21087236 182.77737707 -44.03508817 184.3887067 -44.859375 186 C-45.23374695 186.73520874 -45.6081189 187.47041748 -45.99383545 188.22790527 C-46.68228115 189.57205291 -47.38285595 190.91009021 -48.09806824 192.2401886 C-49.12460851 194.16280444 -49.12460851 194.16280444 -50.12524414 196.96948242 C-52.41904419 199.45385995 -53.17805896 199.36524341 -56.47143555 199.56762695 C-58.36004832 199.56683508 -60.24877544 199.53856949 -62.13671875 199.48828125 C-63.13129593 199.48120651 -64.12587311 199.47413177 -65.15058899 199.46684265 C-68.33032133 199.43883158 -71.50829906 199.37607922 -74.6875 199.3125 C-76.84177146 199.28742588 -78.9960705 199.26461117 -81.15039062 199.24414062 C-86.43419341 199.1889834 -91.71697138 199.10529098 -97 199 C-95.61282695 194.49435605 -93.82292887 190.42485075 -91.69140625 186.22265625 C-91.36881332 185.58307983 -91.0462204 184.94350342 -90.71385193 184.2845459 C-90.02401443 182.91731044 -89.33248618 181.55092693 -88.6394043 180.18533325 C-86.81383492 176.58670393 -85.00259667 172.98088239 -83.19140625 169.375 C-82.83035797 168.65663467 -82.46930969 167.93826935 -82.09732056 167.19813538 C-76.12552963 155.29487708 -70.45414777 143.24711826 -64.80761719 131.18701172 C-60.68336492 122.38199621 -56.37862009 113.68090061 -52 105 C-50.0589888 101.14758983 -48.12254429 97.29291023 -46.1875 93.4375 C-45.73858398 92.54796631 -45.28966797 91.65843262 -44.82714844 90.74194336 C-41.44095868 83.99361683 -38.17122624 77.1939564 -34.921875 70.37890625 C-29.25813514 58.50283291 -23.4999199 46.67425074 -17.70874023 34.85986328 C-16.03708952 31.44813896 -14.36910378 28.0346374 -12.70117188 24.62109375 C-11.62522092 22.42437095 -10.54905719 20.22775234 -9.47265625 18.03125 C-8.98096451 17.02396851 -8.48927277 16.01668701 -7.98268127 14.97888184 C-5.4787483 9.88012558 -2.88640089 4.89298292 0 0 Z " fill="#32486C" transform="translate(108,39)"/>
<path d="M0 0 C13.53 0 27.06 0 41 0 C41 52.14 41 104.28 41 158 C74.99 158 108.98 158 144 158 C144 171.86 144 185.72 144 200 C96.15 200 48.3 200 -1 200 C-1.04030303 150.13619044 -1.04030303 150.13619044 -1.04882812 129.31054688 C-1.05477182 114.90616502 -1.06177544 100.50178899 -1.07543945 86.09741211 C-1.08538423 75.60882356 -1.09185293 65.12023971 -1.09408849 54.63164657 C-1.09539595 49.07433136 -1.09848402 43.51702962 -1.10573006 37.9597187 C-1.11248702 32.7354724 -1.11461763 27.5112452 -1.11310768 22.28699493 C-1.11338416 20.36363306 -1.11539119 18.44027058 -1.11920547 16.51691246 C-1.12413767 13.90293905 -1.12300006 11.28903899 -1.12025452 8.67506409 C-1.12316736 7.90367822 -1.1260802 7.13229235 -1.12908131 6.33753115 C-1.11412121 1.11412121 -1.11412121 1.11412121 0 0 Z " fill="#32486C" transform="translate(220,38)"/>
<path d="M0 0 C3.94766936 3.53992886 6.56132261 7.68564234 9.375 12.125 C10.05949219 13.18847656 10.05949219 13.18847656 10.7578125 14.2734375 C14.28470025 19.78172286 17.65832215 25.37784292 21 31 C1.47620004 66.19304951 1.47620004 66.19304951 -6.57421875 80.2421875 C-7.92459498 82.598892 -9.27484265 84.9556701 -10.625 87.3125 C-10.96593689 87.90747284 -11.30687378 88.50244568 -11.65814209 89.115448 C-17.48198969 99.2841225 -23.20561999 109.50502691 -28.86376953 119.7668457 C-32.80683697 126.90622957 -36.860646 133.97259681 -41 141 C-44.655347 139.5485179 -46.05153722 137.83169286 -48.05859375 134.4921875 C-48.60966797 133.58726562 -49.16074219 132.68234375 -49.72851562 131.75 C-50.29248047 130.80125 -50.85644531 129.8525 -51.4375 128.875 C-52.5611488 127.01819944 -53.68484603 125.16142819 -54.80859375 123.3046875 C-55.34137939 122.40274658 -55.87416504 121.50080566 -56.4230957 120.5715332 C-57.94625512 118.01575526 -57.94625512 118.01575526 -59.61401367 115.76245117 C-60.96872837 113.86494216 -62.12276353 112.16007375 -63 110 C-62.30859375 106.75390625 -62.30859375 106.75390625 -60.4375 103.5625 C-60.10322998 102.96961182 -59.76895996 102.37672363 -59.42456055 101.76586914 C-58.31689229 99.82196806 -57.1608688 97.9125242 -56 96 C-55.23418578 94.68652052 -54.47119599 93.3713905 -53.7109375 92.0546875 C-52.06717256 89.2227202 -50.40188285 86.40482583 -48.72265625 83.59375 C-45.83426589 78.74452052 -43.03926794 73.84422208 -40.25 68.9375 C-35.3709261 60.36802623 -30.42193346 51.84140354 -25.44262695 43.32983398 C-22.26240973 37.88974642 -19.09603984 32.44216755 -15.953125 26.98046875 C-15.61658401 26.39582352 -15.28004303 25.81117828 -14.93330383 25.20881653 C-13.30716484 22.3830222 -11.68298954 19.55612184 -10.0612793 16.7277832 C-6.8134313 11.07883012 -3.49628494 5.49888293 0 0 Z " fill="#567291" transform="translate(619,50)"/>
<path d="M0 0 C0.66 0 1.32 0 2 0 C2 0.66 2 1.32 2 2 C2.66 2 3.32 2 4 2 C4.99 4.97 4.99 4.97 6 8 C6.66 8 7.32 8 8 8 C8.99 10.97 8.99 10.97 10 14 C10.66 14 11.32 14 12 14 C16 19.41176471 16 19.41176471 16 22 C16.66 22 17.32 22 18 22 C19.94824962 25.27305937 21.04370723 27.27154615 20.8125 31.125 C20.10035085 33.64491239 19.3044606 35.73893497 18 38 C17.34 38 16.68 38 16 38 C15.89042969 38.55429688 15.78085937 39.10859375 15.66796875 39.6796875 C14.88022238 42.41606962 13.69522596 44.63536744 12.3125 47.125 C11.77367187 48.09695312 11.23484375 49.06890625 10.6796875 50.0703125 C9.1456707 52.7459232 7.55609203 55.37502951 5.9375 58 C2.81343436 63.12709454 0.36746606 68.48987987 -2 74 C-2.66 74 -3.32 74 -4 74 C-4 75.32 -4 76.64 -4 78 C-4.66 78 -5.32 78 -6 78 C-6.144375 78.5775 -6.28875 79.155 -6.4375 79.75 C-7.21875 82.875 -7.21875 82.875 -8 86 C-8.66 86 -9.32 86 -10 86 C-10.4640625 87.423125 -10.4640625 87.423125 -10.9375 88.875 C-12 92 -12 92 -13 94 C-36.76 94 -60.52 94 -85 94 C-84.67 92.02 -84.34 90.04 -84 88 C-83.34 88 -82.68 88 -82 88 C-81.7525 87.175 -81.505 86.35 -81.25 85.5 C-79.81295189 81.47626529 -77.97645485 77.78020976 -76 74 C-75.34 74 -74.68 74 -74 74 C-74 72.68 -74 71.36 -74 70 C-73.34 70 -72.68 70 -72 70 C-71.7525 69.195625 -71.505 68.39125 -71.25 67.5625 C-70 65 -70 65 -68.32910156 64.34594727 C-65.35565258 63.90429347 -62.49110569 63.88867679 -59.484375 63.90234375 C-57.60878906 63.90717773 -57.60878906 63.90717773 -55.6953125 63.91210938 C-53.74238281 63.92467773 -53.74238281 63.92467773 -51.75 63.9375 C-49.77386719 63.94426758 -49.77386719 63.94426758 -47.7578125 63.95117188 C-44.50516259 63.96295684 -41.25260416 63.97940989 -38 64 C-36.68 61.36 -35.36 58.72 -34 56 C-33.34 56 -32.68 56 -32 56 C-31.773125 55.175 -31.54625 54.35 -31.3125 53.5 C-29.9779717 49.94125786 -28.30060549 47.13554691 -26.2421875 43.96875 C-24.62576975 41.40688036 -23.2986963 38.73409748 -22 36 C-21.34 36 -20.68 36 -20 36 C-19.01 33.03 -19.01 33.03 -18 30 C-17.34 30 -16.68 30 -16 30 C-15.62101563 28.72382812 -15.62101563 28.72382812 -15.234375 27.421875 C-13.90856228 23.74652075 -12.2188362 20.62296744 -10.25 17.25 C-9.72092041 16.34290283 -9.72092041 16.34290283 -9.18115234 15.41748047 C-8.4660047 14.19386964 -7.74842278 12.97167802 -7.02832031 11.75097656 C-6.07657627 10.13039056 -5.14293891 8.49920744 -4.2109375 6.8671875 C-3.68757812 5.96226563 -3.16421875 5.05734375 -2.625 4.125 C-2.16351562 3.32320313 -1.70203125 2.52140625 -1.2265625 1.6953125 C-0.82179688 1.13585937 -0.41703125 0.57640625 0 0 Z " fill="#F5B240" transform="translate(696,90)"/>
<path d="M0 0 C2.85939857 3.44117756 5.28038541 6.93730423 7.56640625 10.78125 C8.21673828 11.87050781 8.86707031 12.95976562 9.53710938 14.08203125 C10.20548828 15.20996094 10.87386719 16.33789062 11.5625 17.5 C12.23474609 18.62792969 12.90699219 19.75585938 13.59960938 20.91796875 C14.85007885 23.01657194 16.09903163 25.11608018 17.34594727 27.21679688 C17.89178467 28.13525391 18.43762207 29.05371094 19 30 C19.63545746 31.30320442 19.63545746 31.30320442 20.28375244 32.63273621 C21.76679388 35.19797075 21.76679388 35.19797075 24.33488464 35.63923645 C25.25199722 35.64589828 26.1691098 35.65256012 27.11401367 35.65942383 C28.15486618 35.67906693 29.19571869 35.69871002 30.26811218 35.71894836 C31.95104118 35.71304939 31.95104118 35.71304939 33.66796875 35.70703125 C34.81791824 35.72215256 35.96786774 35.73727386 37.15266418 35.75285339 C40.83113971 35.79589412 44.50879724 35.80458468 48.1875 35.8125 C50.67905846 35.83563139 53.17059728 35.86099387 55.66210938 35.88867188 C61.77474719 35.95168608 67.88706323 35.98649027 74 36 C73.49299057 36.97445572 73.49299057 36.97445572 72.97573853 37.96859741 C70.57208581 42.66540067 68.50311463 47.14688156 67.0234375 52.2265625 C64.29637808 59.46316343 61.084306 66.22112211 54 70 C38.99779136 75.07271252 17.91646536 75.53599343 3 70 C-5.94425234 64.54991691 -9.81448497 53.97086359 -12.78613281 44.40551758 C-13.94256969 41.16112137 -15.24679363 39.15102016 -17.3203125 36.453125 C-18.54931641 34.37133789 -18.54931641 34.37133789 -19 32 C-17.28111787 26.74408086 -14.45940104 22.32609155 -11.5 17.6875 C-10.72833752 16.41548794 -9.96006937 15.14141014 -9.1953125 13.86523438 C-6.31731286 9.10512114 -3.41499875 4.39860896 0 0 Z " fill="#344A6D" transform="translate(551,168)"/>
<path d="M0 0 C31.79676065 -2.81898992 31.79676065 -2.81898992 39.60644531 1.41210938 C43.44613503 5.28291489 45.08778814 10.14371515 46.86230469 15.20898438 C49.02480283 20.51406565 52.3926686 25.12834424 55.5625 29.875 C56.75675032 31.7230531 57.94592825 33.57439853 59.12890625 35.4296875 C59.63494385 36.21585449 60.14098145 37.00202148 60.66235352 37.81201172 C61.10377686 38.53404785 61.5452002 39.25608398 62 40 C62.43570313 40.66555908 62.87140625 41.33111816 63.3203125 42.0168457 C64 44 64 44 63.20483398 46.0871582 C62.72344971 46.81765381 62.24206543 47.54814941 61.74609375 48.30078125 C61.22080078 49.11353516 60.69550781 49.92628906 60.15429688 50.76367188 C59.58775391 51.60478516 59.02121094 52.44589844 58.4375 53.3125 C57.89802734 54.14201172 57.35855469 54.97152344 56.80273438 55.82617188 C53.6540762 60.63841542 50.37431553 65.34382159 47 70 C41.72314011 65.32417241 38.20410067 59.56003026 34.375 53.6875 C32.93706941 51.50593574 31.49826638 49.32494628 30.05859375 47.14453125 C29.3610498 46.08572754 28.66350586 45.02692383 27.94482422 43.93603516 C25.48337497 40.22006871 22.97380652 36.54012098 20.4375 32.875 C20.02185791 32.27171875 19.60621582 31.6684375 19.17797852 31.046875 C17.15063645 28.10579591 15.11751878 25.16887729 13.07714844 22.23681641 C10.9827048 19.22464348 8.8972809 16.20636628 6.8125 13.1875 C6.13952881 12.22505371 5.46655762 11.26260742 4.77319336 10.27099609 C3.84325562 8.92062256 3.84325562 8.92062256 2.89453125 7.54296875 C2.33612549 6.73883545 1.77771973 5.93470215 1.20239258 5.10620117 C0 3 0 3 0 0 Z " fill="#97989A" transform="translate(627,38)"/>
<path d="M0 0 C13.53 0 27.06 0 41 0 C41 52.14 41 104.28 41 158 C40.67 157.34 40.34 156.68 40 156 C38.68 156 37.36 156 36 156 C36 155.34 36 154.68 36 154 C36.66 154 37.32 154 38 154 C37.99907821 153.26393807 37.99815641 152.52787615 37.99720669 151.76950932 C37.97515247 133.88539485 37.95858894 116.00128308 37.94818783 98.11715794 C37.94302464 89.46864395 37.93598152 80.82013903 37.92456055 72.17163086 C37.91461439 64.63635421 37.90814674 57.10108412 37.90591151 49.56580108 C37.90460428 45.57344148 37.9015177 41.58110064 37.89426994 37.58874702 C37.8875108 33.83532902 37.88538282 30.08193761 37.88689232 26.3285141 C37.88661594 24.94697106 37.88461019 23.56542719 37.88079453 22.18388939 C37.87585901 20.30562855 37.87760204 18.42735362 37.87974548 16.54908752 C37.87882369 15.49547814 37.8779019 14.44186876 37.87695217 13.35633183 C38 11 38 11 39 10 C39.33 7.03 39.66 4.06 40 1 C26.8 1 13.6 1 0 1 C0 0.67 0 0.34 0 0 Z " fill="#505F80" transform="translate(220,38)"/>
<path d="M0 0 C1.98 0 3.96 0 6 0 C6.34933594 0.85464844 6.69867188 1.70929688 7.05859375 2.58984375 C7.51363281 3.69457031 7.96867187 4.79929687 8.4375 5.9375 C9.11619141 7.59072266 9.11619141 7.59072266 9.80859375 9.27734375 C10.74424608 11.86568916 10.74424608 11.86568916 12 13 C13.65 8.71 15.3 4.42 17 0 C18.98 0 20.96 0 23 0 C24 1 24 1 24.11352539 3.13305664 C24.10828857 4.04949951 24.10305176 4.96594238 24.09765625 5.91015625 C24.09443359 6.89951172 24.09121094 7.88886719 24.08789062 8.90820312 C24.07951172 9.94912109 24.07113281 10.99003906 24.0625 12.0625 C24.05798828 13.10728516 24.05347656 14.15207031 24.04882812 15.22851562 C24.03699913 17.8190666 24.02051689 20.40950559 24 23 C22.35 23.33 20.7 23.66 19 24 C18.67 20.04 18.34 16.08 18 12 C17.13375 14.6915625 17.13375 14.6915625 16.25 17.4375 C15.265625 20.49609375 15.265625 20.49609375 14 23 C12.68 23.33 11.36 23.66 10 24 C8.68 20.7 7.36 17.4 6 14 C5.67 17.3 5.34 20.6 5 24 C3.35 24 1.7 24 0 24 C0 16.08 0 8.16 0 0 Z " fill="#52637C" transform="translate(443,256)"/>
<path d="M0 0 C1.98 0 3.96 0 6 0 C7.98 4.29 9.96 8.58 12 13 C12.804375 11.040625 13.60875 9.08125 14.4375 7.0625 C16.875 1.125 16.875 1.125 18 0 C20.5 -0.125 20.5 -0.125 23 0 C24 1 24 1 24.11352539 3.22485352 C24.10828857 4.18319092 24.10305176 5.14152832 24.09765625 6.12890625 C24.09443359 7.16337891 24.09121094 8.19785156 24.08789062 9.26367188 C24.07951172 10.35228516 24.07113281 11.44089844 24.0625 12.5625 C24.05798828 13.65498047 24.05347656 14.74746094 24.04882812 15.87304688 C24.03699826 18.58208495 24.02051543 21.29101599 24 24 C22.35 24 20.7 24 19 24 C18.67 20.37 18.34 16.74 18 13 C16.68 16.63 15.36 20.26 14 24 C12.68 24 11.36 24 10 24 C8.68 20.7 7.36 17.4 6 14 C5.67 17.3 5.34 20.6 5 24 C3.35 24 1.7 24 0 24 C0 16.08 0 8.16 0 0 Z " fill="#536481" transform="translate(539,256)"/>
<path d="M0 0 C2.26171875 0.05859375 2.26171875 0.05859375 5 1 C6.81108418 3.00687706 8.29773484 4.85714306 9.8125 7.0625 C10.21919922 7.63033203 10.62589844 8.19816406 11.04492188 8.78320312 C12.04255162 10.17988477 13.02301533 11.58879991 14 13 C14.33 8.71 14.66 4.42 15 0 C16.65 0 18.3 0 20 0 C20 7.92 20 15.84 20 24 C18.35 24 16.7 24 15 24 C13.13548243 22.00801938 11.69707209 20.23044928 10.1875 18 C9.78080078 17.42765625 9.37410156 16.8553125 8.95507812 16.265625 C7.95525768 14.85411379 6.97561378 13.42834959 6 12 C5.67 15.63 5.34 19.26 5 23 C3.35 23.33 1.7 23.66 0 24 C-1.65394117 22.34605883 -1.12999683 20.39684587 -1.1328125 18.125 C-1.13410156 17.14015625 -1.13539063 16.1553125 -1.13671875 15.140625 C-1.13285156 14.10421875 -1.12898438 13.0678125 -1.125 12 C-1.13080078 10.44539063 -1.13080078 10.44539063 -1.13671875 8.859375 C-1.13542969 7.87453125 -1.13414062 6.8896875 -1.1328125 5.875 C-1.13168457 4.96492188 -1.13055664 4.05484375 -1.12939453 3.1171875 C-1 1 -1 1 0 0 Z " fill="#5E6F8A" transform="translate(481,256)"/>
<path d="M0 0 C3.52787301 1.95657197 5.70285021 4.10855063 7 8 C7.41873961 12.30013364 7.4550224 15.93069736 5.75 19.9375 C3.43633869 22.66431511 1.35897841 23.7909264 -2.18359375 24.3359375 C-6.10118212 24.40383331 -8.44670337 24.30607899 -11.9375 22.375 C-15.30195856 18.50077499 -16.25163435 14.99220728 -15.9375 9.9375 C-15.27386914 5.71292306 -13.33077014 3.68086377 -10 1 C-6.76918255 -0.61540873 -3.49240902 -0.5896275 0 0 Z M-10 8 C-10.61316399 11.04924794 -10.5124209 13.93686175 -10 17 C-8.47922114 19.28765772 -8.47922114 19.28765772 -6 20 C-2.85333225 19.92325201 -1.49518203 19.46103154 0.8125 17.3125 C2.36382423 14.29150017 2.41972691 12.35781526 2 9 C1.02896212 6.53813421 1.02896212 6.53813421 -1 5 C-5.24066347 4.38156991 -7.37435623 4.5629328 -10 8 Z " fill="#495977" transform="translate(260,256)"/>
<path d="M0 0 C1.67542976 0.28604898 3.34385343 0.61781233 5 1 C5 3.97 5 6.94 5 10 C7.97 10 10.94 10 14 10 C14 6.7 14 3.4 14 0 C15.65 0 17.3 0 19 0 C19 7.92 19 15.84 19 24 C17.35 24 15.7 24 14 24 C14 20.7 14 17.4 14 14 C11.03 14 8.06 14 5 14 C5.020625 15.464375 5.04125 16.92875 5.0625 18.4375 C5.08392007 19.95832518 5.07179964 21.48071962 5 23 C4 24 4 24 1.4375 24.0625 C0.633125 24.041875 -0.17125 24.02125 -1 24 C-1.02887236 20.18751574 -1.04675492 16.3750593 -1.0625 12.5625 C-1.07087891 11.47388672 -1.07925781 10.38527344 -1.08789062 9.26367188 C-1.09111328 8.22919922 -1.09433594 7.19472656 -1.09765625 6.12890625 C-1.10289307 5.17056885 -1.10812988 4.21223145 -1.11352539 3.22485352 C-1 1 -1 1 0 0 Z " fill="#63748E" transform="translate(327,256)"/>
<path d="M0 0 C12.625 0 12.625 0 17.375 4 C20.44264628 7.77556465 20.48093243 11.28141765 20 16 C18.59204084 19.72695073 17.37925558 20.77554261 13.9375 22.8125 C10 24 10 24 0 24 C0 16.08 0 8.16 0 0 Z M5 5 C5 9.62 5 14.24 5 19 C10.64067231 19.53966611 10.64067231 19.53966611 13.4375 17.4375 C15.32042676 14.98268571 15.32042676 14.98268571 15 11.4375 C14.27839081 8.02497107 14.27839081 8.02497107 12.25 6.0625 C9.6611684 4.64416141 9.6611684 4.64416141 5 5 Z " fill="#4B5B7A" transform="translate(222,256)"/>
<path d="M0 0 C1.65 0.33 3.3 0.66 5 1 C5.33 6.61 5.66 12.22 6 18 C7.65 18.33 9.3 18.66 11 19 C13.93447357 16.06552643 13.46158423 12.81740544 13.625 8.875 C13.68300781 7.74384766 13.68300781 7.74384766 13.7421875 6.58984375 C13.83651031 4.72696816 13.91934662 2.86351745 14 1 C15.65 0.67 17.3 0.34 19 0 C19.13530844 3.06398451 19.2342407 6.12197126 19.3125 9.1875 C19.35439453 10.05181641 19.39628906 10.91613281 19.43945312 11.80664062 C19.52535341 16.29063556 19.47242137 18.35114202 16.76171875 22.07421875 C13.22059807 24.54348678 11.34125466 24.72626901 7.15625 24.49609375 C3.67250002 23.69457881 2.08081779 21.7960989 0 19 C-1.19825457 15.40523628 -1.14608744 12.11450601 -1.125 8.375 C-1.12886719 7.68148438 -1.13273437 6.98796875 -1.13671875 6.2734375 C-1.12666646 1.12666646 -1.12666646 1.12666646 0 0 Z " fill="#60728C" transform="translate(271,256)"/>
<path d="M0 0 C2.475 0.495 2.475 0.495 5 1 C5.33 6.94 5.66 12.88 6 19 C7.98 19 9.96 19 12 19 C14.11925604 16.88074396 13.41831017 12.3803907 13.5625 9.4375 C13.60568359 8.63119141 13.64886719 7.82488281 13.69335938 6.99414062 C13.79975262 4.99631195 13.90040888 2.9981793 14 1 C15.65614657 0.61781233 17.32457024 0.28604898 19 0 C20.90049221 1.90049221 20.21802011 5.09325872 20.25 7.625 C20.20978676 13.26634373 19.9541778 17.18578433 17 22 C13.97792605 24.01471597 13.08273301 24.33719034 9.625 24.4375 C8.49964844 24.49744141 8.49964844 24.49744141 7.3515625 24.55859375 C3.59335493 23.66586338 2.24882079 22.11132824 0 19 C-0.59343691 15.70267946 -0.4742191 12.52388943 -0.3125 9.1875 C-0.28994141 8.30384766 -0.26738281 7.42019531 -0.24414062 6.50976562 C-0.18547428 4.3391109 -0.09579979 2.1693331 0 0 Z " fill="#6A7893" transform="translate(515,256)"/>
<path d="M0 0 C2.475 0.495 2.475 0.495 5 1 C5.33 6.61 5.66 12.22 6 18 C10.60532389 19.45314664 10.60532389 19.45314664 13 18 C13.33 12.39 13.66 6.78 14 1 C15.65 0.67 17.3 0.34 19 0 C19.13530844 3.06398451 19.2342407 6.12197126 19.3125 9.1875 C19.35439453 10.05181641 19.39628906 10.91613281 19.43945312 11.80664062 C19.52535341 16.29063556 19.47242137 18.35114202 16.76171875 22.07421875 C14.00256973 23.99820809 12.80249474 24.68314251 9.5 24.625 C8.7678125 24.63789063 8.035625 24.65078125 7.28125 24.6640625 C3.63522457 23.60271948 2.22908183 22.0615836 0 19 C-0.59432966 15.70290295 -0.47421419 12.5237881 -0.3125 9.1875 C-0.28994141 8.30384766 -0.26738281 7.42019531 -0.24414062 6.50976562 C-0.18547428 4.3391109 -0.09579979 2.1693331 0 0 Z " fill="#475774" transform="translate(419,256)"/>
<path d="M0 0 C1.32 0 2.64 0 4 0 C5.5056651 3.62267294 7.00356546 7.24850549 8.5 10.875 C8.92925781 11.90753906 9.35851562 12.94007813 9.80078125 14.00390625 C10.40986328 15.48310547 10.40986328 15.48310547 11.03125 16.9921875 C11.40830078 17.90339355 11.78535156 18.81459961 12.17382812 19.75341797 C13 22 13 22 13 24 C10.625 24.1875 10.625 24.1875 8 24 C6 21 6 21 6 18 C2.04 18.495 2.04 18.495 -2 19 C-2.99 21.475 -2.99 21.475 -4 24 C-5.65 24 -7.3 24 -9 24 C-8.35415196 18.92889685 -6.87352872 14.49255002 -5.0625 9.75 C-4.79759766 9.03070313 -4.53269531 8.31140625 -4.25976562 7.5703125 C-2.25352444 2.25352444 -2.25352444 2.25352444 0 0 Z M1 8 C0.67 9.98 0.34 11.96 0 14 C1.32 13.67 2.64 13.34 4 13 C3.34 11.35 2.68 9.7 2 8 C1.67 8 1.34 8 1 8 Z " fill="#3C4F6F" transform="translate(302,256)"/>
<path d="M0 0 C1.32 0 2.64 0 4 0 C5.5056651 3.62267294 7.00356546 7.24850549 8.5 10.875 C8.92925781 11.90753906 9.35851562 12.94007813 9.80078125 14.00390625 C10.40986328 15.48310547 10.40986328 15.48310547 11.03125 16.9921875 C11.40830078 17.90339355 11.78535156 18.81459961 12.17382812 19.75341797 C13 22 13 22 13 24 C11.35 24 9.7 24 8 24 C7.34 22.02 6.68 20.04 6 18 C2.04 18.495 2.04 18.495 -2 19 C-2.99 21.475 -2.99 21.475 -4 24 C-5.65 24 -7.3 24 -9 24 C-8.38301463 18.62708572 -6.59292437 14.11721945 -4.5 9.1875 C-4.01853516 8.02444336 -4.01853516 8.02444336 -3.52734375 6.83789062 C-1.14773261 1.14773261 -1.14773261 1.14773261 0 0 Z M1 9 C0.67 10.65 0.34 12.3 0 14 C1.32 14 2.64 14 4 14 C3.34 12.35 2.68 10.7 2 9 C1.67 9 1.34 9 1 9 Z " fill="#4A5B7C" transform="translate(385,256)"/>
<path d="M0 0 C1.32 0 2.64 0 4 0 C5.5056651 3.62267294 7.00356546 7.24850549 8.5 10.875 C8.92925781 11.90753906 9.35851562 12.94007813 9.80078125 14.00390625 C10.40986328 15.48310547 10.40986328 15.48310547 11.03125 16.9921875 C11.40830078 17.90339355 11.78535156 18.81459961 12.17382812 19.75341797 C13 22 13 22 13 24 C11.35 24 9.7 24 8 24 C7.34 22.02 6.68 20.04 6 18 C2.04 18.495 2.04 18.495 -2 19 C-2.99 21.475 -2.99 21.475 -4 24 C-5.65 24 -7.3 24 -9 24 C-8.38301463 18.62708572 -6.59292437 14.11721945 -4.5 9.1875 C-4.01853516 8.02444336 -4.01853516 8.02444336 -3.52734375 6.83789062 C-1.14773261 1.14773261 -1.14773261 1.14773261 0 0 Z M1 9 C0.67 10.65 0.34 12.3 0 14 C1.32 14 2.64 14 4 14 C3.34 12.35 2.68 10.7 2 9 C1.67 9 1.34 9 1 9 Z " fill="#4D5F7C" transform="translate(181,256)"/>
<path d="M0 0 C2.25 0.125 2.25 0.125 5 1 C9 6.08108108 9 6.08108108 9 9 C9.66 9 10.32 9 11 9 C11.268125 8.2575 11.53625 7.515 11.8125 6.75 C12.98232553 4.04093035 13.91312362 2.08687638 16 0 C18.6875 -0.25 18.6875 -0.25 21 0 C19.87174765 3.28218864 18.41419853 5.87099024 16.4375 8.6875 C13.46501017 13.25988876 13.12081284 17.64030293 13 23 C11.35 23.33 9.7 23.66 8 24 C8.020625 23.41734375 8.04125 22.8346875 8.0625 22.234375 C7.85148755 13.84663021 3.94201446 8.55182782 -1 2 C-0.67 1.34 -0.34 0.68 0 0 Z " fill="#51627F" transform="translate(349,256)"/>
<path d="M0 0 C1.25554687 -0.00128906 2.51109375 -0.00257813 3.8046875 -0.00390625 C4.46178711 -0.00181152 5.11888672 0.0002832 5.79589844 0.00244141 C7.80411335 0.00779016 9.81210459 0.00249559 11.8203125 -0.00390625 C13.07585937 -0.00261719 14.33140625 -0.00132812 15.625 0 C16.78644531 0.00112793 17.94789063 0.00225586 19.14453125 0.00341797 C21.8125 0.1328125 21.8125 0.1328125 22.8125 1.1328125 C22.8125 2.7828125 22.8125 4.4328125 22.8125 6.1328125 C12.9125 6.1328125 3.0125 6.1328125 -7.1875 6.1328125 C-7.1875 -0.95370814 -6.42460559 0.00623921 0 0 Z " fill="#526381" transform="translate(143.1875,265.8671875)"/>
<path d="M0 0 C1.65 0 3.3 0 5 0 C5 6.27 5 12.54 5 19 C8.3 19 11.6 19 15 19 C15.33 20.65 15.66 22.3 16 24 C10.72 24 5.44 24 0 24 C0 16.08 0 8.16 0 0 Z " fill="#546682" transform="translate(196,256)"/>
<path d="M0 0 C1.16781006 0.00523682 2.33562012 0.01047363 3.53881836 0.01586914 C4.79887695 0.0190918 6.05893555 0.02231445 7.35717773 0.02563477 C8.6976732 0.03399136 10.03816799 0.04245632 11.37866211 0.05102539 C12.72306153 0.05603879 14.06746271 0.06060197 15.41186523 0.06469727 C18.71334151 0.07653051 22.01473014 0.09301568 25.31616211 0.11352539 C25.31616211 2.09352539 25.31616211 4.07352539 25.31616211 6.11352539 C15.74616211 6.11352539 6.17616211 6.11352539 -3.68383789 6.11352539 C-3.68383789 0.15582504 -3.68383789 0.15582504 0 0 Z " fill="#526382" transform="translate(576.683837890625,265.886474609375)"/>
<path d="M0 0 C1.32 0 2.64 0 4 0 C4 6.27 4 12.54 4 19 C7.3 19 10.6 19 14 19 C14.33 20.65 14.66 22.3 15 24 C9.72 24 4.44 24 -1 24 C-1.02682792 20.18745377 -1.04675477 16.37509388 -1.0625 12.5625 C-1.07087891 11.47388672 -1.07925781 10.38527344 -1.08789062 9.26367188 C-1.09111328 8.22919922 -1.09433594 7.19472656 -1.09765625 6.12890625 C-1.10289307 5.17056885 -1.10812988 4.21223145 -1.11352539 3.22485352 C-1 1 -1 1 0 0 Z " fill="#667A97" transform="translate(401,256)"/>
<path d="M0 0 C6.24795675 -0.02527124 12.49590041 -0.04283344 18.74389648 -0.05493164 C20.87118014 -0.05997298 22.99846031 -0.06680591 25.12573242 -0.07543945 C28.17627826 -0.08751379 31.22677845 -0.09323014 34.27734375 -0.09765625 C35.71327126 -0.10539818 35.71327126 -0.10539818 37.1782074 -0.11329651 C38.49946373 -0.11340981 38.49946373 -0.11340981 39.84741211 -0.11352539 C40.62684677 -0.115746 41.40628143 -0.11796661 42.20933533 -0.12025452 C44 0 44 0 45 1 C45.09492722 3.34253782 45.12559791 5.65546104 45.11352539 7.99829102 C45.11367142 8.72995483 45.11381744 9.46161865 45.1139679 10.2154541 C45.11326867 12.64496784 45.10547585 15.07440583 45.09765625 17.50390625 C45.0957921 19.18399514 45.09436819 20.86408457 45.09336853 22.54417419 C45.08954307 26.97473643 45.07971256 31.4052661 45.06866455 35.83581543 C45.05845103 40.35342976 45.05387104 44.87104934 45.04882812 49.38867188 C45.03809031 58.25912893 45.02101356 67.12956176 45 76 C44.67 76 44.34 76 44 76 C43.98969254 75.10241974 43.97938507 74.20483948 43.96876526 73.28005981 C43.87090898 64.83354966 43.76841162 56.38711147 43.66066074 47.94072151 C43.60542582 43.59803965 43.55200491 39.25535105 43.50268555 34.91259766 C43.45505039 30.72395735 43.40270789 26.53540022 43.34705925 22.34685898 C43.32663185 20.74644916 43.3079194 19.14601653 43.29092598 17.54556656 C43.26689045 15.30910216 43.23683488 13.07279553 43.20532227 10.83642578 C43.18200584 8.92447922 43.18200584 8.92447922 43.15821838 6.97390747 C43.20217617 4.07179923 43.20217617 4.07179923 42 2 C28.47 2 14.94 2 1 2 C0.67 2.66 0.34 3.32 0 4 C0 2.68 0 1.36 0 0 Z " fill="#8892A9" transform="translate(382,120)"/>
<path d="M0 0 C1.98 0 3.96 0 6 0 C8.83022097 3.99560608 7.76210446 7.42737323 7 12 C6.34 12 5.68 12 5 12 C5 15.96 5 19.92 5 24 C3.35 24 1.7 24 0 24 C0 16.08 0 8.16 0 0 Z " fill="#60718F" transform="translate(443,256)"/>
<path d="M0 0 C1.67542976 0.28604898 3.34385343 0.61781233 5 1 C5 3.97 5 6.94 5 10 C6.32 10.33 7.64 10.66 9 11 C8.34 11 7.68 11 7 11 C7 11.66 7 12.32 7 13 C6.01 13 5.02 13 4 13 C4 16.63 4 20.26 4 24 C2.35 24 0.7 24 -1 24 C-1.02887236 20.18751574 -1.04675492 16.3750593 -1.0625 12.5625 C-1.07087891 11.47388672 -1.07925781 10.38527344 -1.08789062 9.26367188 C-1.09111328 8.22919922 -1.09433594 7.19472656 -1.09765625 6.12890625 C-1.10289307 5.17056885 -1.10812988 4.21223145 -1.11352539 3.22485352 C-1 1 -1 1 0 0 Z " fill="#314666" transform="translate(327,256)"/>
<path d="M0 0 C1.32 0 2.64 0 4 0 C6.01670288 7.43659188 6.2137731 14.31604457 6 22 C4.34385343 22.38218767 2.67542976 22.71395102 1 23 C0 22 0 22 -0.11352539 19.86694336 C-0.10828857 18.95050049 -0.10305176 18.03405762 -0.09765625 17.08984375 C-0.09443359 16.10048828 -0.09121094 15.11113281 -0.08789062 14.09179688 C-0.07951172 13.05087891 -0.07113281 12.00996094 -0.0625 10.9375 C-0.05798828 9.89271484 -0.05347656 8.84792969 -0.04882812 7.77148438 C-0.03699913 5.1809334 -0.02051689 2.59049441 0 0 Z " fill="#334566" transform="translate(480,257)"/>
<path d="M0 0 C2 1.5 2 1.5 3 3 C2.34 4.32 1.68 5.64 1 7 C0.34 6.67 -0.32 6.34 -1 6 C-2.37342831 5.9310528 -3.75002102 5.91532292 -5.125 5.9375 C-6.40375 5.958125 -7.6825 5.97875 -9 6 C-9.33 8.97 -9.66 11.94 -10 15 C-10.66 14.01 -11.32 13.02 -12 12 C-12.66 13.98 -13.32 15.96 -14 18 C-16.30808679 14.74152453 -16.21054407 11.84727586 -15.6171875 7.96875 C-14.61046109 4.75742019 -12.56306057 3.06295119 -10 1 C-6.82975235 -0.58512383 -3.45332972 -0.42372144 0 0 Z " fill="#516181" transform="translate(260,256)"/>
<path d="M0 0 C1.65 0 3.3 0 5 0 C5 7.92 5 15.84 5 24 C3.35 24 1.7 24 0 24 C0 16.08 0 8.16 0 0 Z " fill="#4F607F" transform="translate(471,256)"/>
<path d="M0 0 C1.32 0 2.64 0 4 0 C4 7.92 4 15.84 4 24 C2.35 24 0.7 24 -1 24 C-1.02887236 20.18751574 -1.04675492 16.3750593 -1.0625 12.5625 C-1.07087891 11.47388672 -1.07925781 10.38527344 -1.08789062 9.26367188 C-1.09111328 8.22919922 -1.09433594 7.19472656 -1.09765625 6.12890625 C-1.10289307 5.17056885 -1.10812988 4.21223145 -1.11352539 3.22485352 C-1 1 -1 1 0 0 Z " fill="#576984" transform="translate(318,256)"/>
<path d="M0 0 C1.32 0 2.64 0 4 0 C4 7.92 4 15.84 4 24 C2.35 24 0.7 24 -1 24 C-1.02887236 20.18751574 -1.04675492 16.3750593 -1.0625 12.5625 C-1.07087891 11.47388672 -1.07925781 10.38527344 -1.08789062 9.26367188 C-1.09111328 8.22919922 -1.09433594 7.19472656 -1.09765625 6.12890625 C-1.10289307 5.17056885 -1.10812988 4.21223145 -1.11352539 3.22485352 C-1 1 -1 1 0 0 Z " fill="#576985" transform="translate(506,256)"/>
<path d="M0 0 C1.65 0.33 3.3 0.66 5 1 C5 7.27 5 13.54 5 20 C3.68 20.33 2.36 20.66 1 21 C-1.08560886 16.74634716 -1.27256739 12.89736579 -1.1875 8.25 C-1.18685547 7.56550781 -1.18621094 6.88101562 -1.18554688 6.17578125 C-1.14067963 1.14067963 -1.14067963 1.14067963 0 0 Z " fill="#62718D" transform="translate(271,256)"/>
<path d="M0 0 C1.98 0 3.96 0 6 0 C6.33 2.64 6.66 5.28 7 8 C6.01 8 5.02 8 4 8 C3.67 12.62 3.34 17.24 3 22 C2.01 22 1.02 22 0 22 C0 14.74 0 7.48 0 0 Z " fill="#324567" transform="translate(540,257)"/>
<path d="M0 0 C0.66 0 1.32 0 2 0 C2.99 3.3 3.98 6.6 5 10 C3.35 10 1.7 10 0 10 C-0.66 8.02 -1.32 6.04 -2 4 C-4.64 4.33 -7.28 4.66 -10 5 C-10.66 6.65 -11.32 8.3 -12 10 C-13.65 10 -15.3 10 -17 10 C-16.25 4.25 -16.25 4.25 -14 2 C-13.67 2.33 -13.34 2.66 -13 3 C-10.80949979 2.90982004 -8.621534 2.75333792 -6.4375 2.5625 C-4.64119141 2.40974609 -4.64119141 2.40974609 -2.80859375 2.25390625 C-1.88175781 2.17011719 -0.95492187 2.08632813 0 2 C0 1.34 0 0.68 0 0 Z " fill="#5A6A84" transform="translate(189,270)"/>
<path d="M0 0 C2.01583511 3.02375266 2.70108381 4.4439281 3 8 C2.0390625 11.0078125 2.0390625 11.0078125 0.625 14.125 C0.16351562 15.15882813 -0.29796875 16.19265625 -0.7734375 17.2578125 C-1.17820312 18.16273438 -1.58296875 19.06765625 -2 20 C-2.33 20.99 -2.66 21.98 -3 23 C-4.32 23 -5.64 23 -7 23 C-7.33 21.68 -7.66 20.36 -8 19 C-6.35 19 -4.7 19 -3 19 C-3 17.68 -3 16.36 -3 15 C-3.99 15.33 -4.98 15.66 -6 16 C-4.25192871 10.53262809 -2.34205919 5.24175152 0 0 Z " fill="#586884" transform="translate(556,257)"/>
<path d="M0 0 C0.66 0 1.32 0 2 0 C2 0.66 2 1.32 2 2 C2.66 2 3.32 2 4 2 C4.66 3.98 5.32 5.96 6 8 C6.66 8 7.32 8 8 8 C8 8.66 8 9.32 8 10 C7.34 10 6.68 10 6 10 C6 10.66 6 11.32 6 12 C4 12 4 12 1.875 10 C1.25625 9.34 0.6375 8.68 0 8 C0 8.66 0 9.32 0 10 C-0.99 10 -1.98 10 -3 10 C-3.309375 10.61875 -3.61875 11.2375 -3.9375 11.875 C-4.625 13.25 -5.3125 14.625 -6 16 C-6.66 16 -7.32 16 -8 16 C-6.46197215 10.15549417 -3.5439162 4.87288478 0 0 Z " fill="#F5B139" transform="translate(696,90)"/>
<path d="M0 0 C1.32 0 2.64 0 4 0 C8.59225513 9.41002278 8.59225513 9.41002278 8 14 C6.68 13.67 5.36 13.34 4 13 C3.67 11.35 3.34 9.7 3 8 C1.35 8.33 -0.3 8.66 -2 9 C-3 6 -3 6 -1.5625 2.8125 C-1.046875 1.884375 -0.53125 0.95625 0 0 Z " fill="#475776" transform="translate(385,256)"/>
<path d="M0 0 C0.33 0 0.66 0 1 0 C1 4.62 1 9.24 1 14 C2.27875 13.71125 3.5575 13.4225 4.875 13.125 C5.59429687 12.96257812 6.31359375 12.80015625 7.0546875 12.6328125 C9.20719964 12.09525572 9.20719964 12.09525572 11 10 C11.33 10.66 11.66 11.32 12 12 C12.99 11.67 13.98 11.34 15 11 C14.4375 13.3125 14.4375 13.3125 13 16 C7.41559345 19.37391229 2.40546304 19.3479829 -4 19 C-4 18.34 -4 17.68 -4 17 C-1.03 17 1.94 17 5 17 C5 16.34 5 15.68 5 15 C3.35 15 1.7 15 0 15 C0 10.05 0 5.1 0 0 Z " fill="#697890" transform="translate(226,261)"/>
<path d="M0 0 C0.66 0 1.32 0 2 0 C2 1.32 2 2.64 2 4 C24.77 4.33 47.54 4.66 71 5 C71 5.33 71 5.66 71 6 C47.24 6 23.48 6 -1 6 C-0.67 4.02 -0.34 2.04 0 0 Z " fill="#FDD481" transform="translate(612,178)"/>
<path d="M0 0 C0 6.6 0 13.2 0 20 C-1.32 20 -2.64 20 -4 20 C-4.24858198 17.22965863 -4.47452879 14.46060931 -4.6875 11.6875 C-4.76033203 10.90181641 -4.83316406 10.11613281 -4.90820312 9.30664062 C-4.96298828 8.54931641 -5.01777344 7.79199219 -5.07421875 7.01171875 C-5.13182373 6.31522217 -5.18942871 5.61872559 -5.2487793 4.90112305 C-4.83865674 1.76704617 -3.18467408 0 0 0 Z " fill="#354B70" transform="translate(466,260)"/>
<path d="M0 0 C1.65 0.33 3.3 0.66 5 1 C5 5.62 5 10.24 5 15 C4.67 14.01 4.34 13.02 4 12 C3.01 12 2.02 12 1 12 C0.67 13.65 0.34 15.3 0 17 C-0.33 17 -0.66 17 -1 17 C-1.02684679 14.35409986 -1.04676357 11.70846904 -1.0625 9.0625 C-1.07087891 8.30775391 -1.07925781 7.55300781 -1.08789062 6.77539062 C-1.09652441 4.85005687 -1.05224333 2.92464419 -1 1 C-0.67 0.67 -0.34 0.34 0 0 Z " fill="#74839C" transform="translate(530,256)"/>
<path d="M0 0 C1.98 0 3.96 0 6 0 C5.67 4.29 5.34 8.58 5 13 C3.35 13.33 1.7 13.66 0 14 C-0.19456705 12.04235617 -0.38044247 10.08384679 -0.5625 8.125 C-0.66691406 7.03445313 -0.77132813 5.94390625 -0.87890625 4.8203125 C-1 2 -1 2 0 0 Z " fill="#576581" transform="translate(357,266)"/>
<path d="M0 0 C2.0625 2.3125 2.0625 2.3125 4 5 C3.67 5.99 3.34 6.98 3 8 C1.68 8 0.36 8 -1 8 C-0.690625 9.423125 -0.690625 9.423125 -0.375 10.875 C-0.25125 11.90625 -0.1275 12.9375 0 14 C-0.66 14.66 -1.32 15.32 -2 16 C-5 14 -5 14 -5.87109375 11.67578125 C-6.03716569 8.22853029 -5.07831157 6.94381378 -3.0625 4.1875 C-2.49660156 3.39730469 -1.93070313 2.60710937 -1.34765625 1.79296875 C-0.90292969 1.20128906 -0.45820312 0.60960937 0 0 Z " fill="#3D4F75" transform="translate(551,168)"/>
<path d="M0 0 C1.32 0 2.64 0 4 0 C4 5.61 4 11.22 4 17 C2.68 17.33 1.36 17.66 0 18 C0 12.06 0 6.12 0 0 Z " fill="#394E72" transform="translate(434,256)"/>
<path d="M0 0 C0.99 0.33 1.98 0.66 3 1 C2.34 3.31 1.68 5.62 1 8 C1.99 8.33 2.98 8.66 4 9 C4 13.29 4 17.58 4 22 C2.68 22 1.36 22 0 22 C0 14.74 0 7.48 0 0 Z " fill="#334562" transform="translate(443,257)"/>
<path d="M0 0 C0.99 0.33 1.98 0.66 3 1 C3 4.96 3 8.92 3 13 C4.65 13 6.3 13 8 13 C8 13.66 8 14.32 8 15 C5.03 15 2.06 15 -1 15 C-1.02685412 12.68756208 -1.04632841 10.3750373 -1.0625 8.0625 C-1.07410156 6.77472656 -1.08570313 5.48695313 -1.09765625 4.16015625 C-1 1 -1 1 0 0 Z " fill="#304669" transform="translate(223,263)"/>
<path d="M0 0 C0.99 0 1.98 0 3 0 C3 7.26 3 14.52 3 22 C1.68 21.67 0.36 21.34 -1 21 C-1 20.34 -1 19.68 -1 19 C-0.34 19 0.32 19 1 19 C0.67 18.34 0.34 17.68 0 17 C-0.07194869 14.11629667 -0.09291708 11.25760336 -0.0625 8.375 C-0.05798828 7.57320313 -0.05347656 6.77140625 -0.04882812 5.9453125 C-0.03703168 3.96350994 -0.01909605 1.98174567 0 0 Z " fill="#314569" transform="translate(497,257)"/>
<path d="M0 0 C0.33 0.66 0.66 1.32 1 2 C1.66 2 2.32 2 3 2 C3.35897436 8.22222222 3.35897436 8.22222222 1.875 11.4375 C-0.75128857 13.6260738 -2.68553637 13.29461899 -6 13 C-4.84826645 10.53199953 -3.95216435 8.95216435 -2 7 C-1.28072705 4.68234271 -0.6090107 2.34904126 0 0 Z " fill="#374A6B" transform="translate(531,266)"/>
<path d="M0 0 C1.32 0.66 2.64 1.32 4 2 C3.625 3.9375 3.625 3.9375 3 6 C0.29816945 7.35091528 -2.11808206 7.33858058 -5.125 7.5625 C-6.22070312 7.64628906 -7.31640625 7.73007812 -8.4453125 7.81640625 C-9.28835937 7.87699219 -10.13140625 7.93757813 -11 8 C-10.67 6.68 -10.34 5.36 -10 4 C-7.03 4 -4.06 4 -1 4 C-0.67 2.68 -0.34 1.36 0 0 Z " fill="#334565" transform="translate(186,266)"/>
<path d="M0 0 C1.99954746 -0.04254356 4.00041636 -0.04080783 6 0 C7 1 7 1 7.11352539 3.13305664 C7.10828857 4.04949951 7.10305176 4.96594238 7.09765625 5.91015625 C7.09443359 6.89951172 7.09121094 7.88886719 7.08789062 8.90820312 C7.07951172 9.94912109 7.07113281 10.99003906 7.0625 12.0625 C7.05798828 13.10728516 7.05347656 14.15207031 7.04882812 15.22851562 C7.03699913 17.8190666 7.02051689 20.40950559 7 23 C6.67 23 6.34 23 6 23 C6 16.73 6 10.46 6 4 C4.68 4.99 3.36 5.98 2 7 C1.01 6.67 0.02 6.34 -1 6 C-0.67 5.34 -0.34 4.68 0 4 C0 2.68 0 1.36 0 0 Z " fill="#808DA1" transform="translate(460,256)"/>
<path d="M0 0 C1.32 0.66 2.64 1.32 4 2 C4 5.63 4 9.26 4 13 C2.68 13 1.36 13 0 13 C-0.19551338 11.39679026 -0.38111983 9.79237014 -0.5625 8.1875 C-0.71912109 6.84751953 -0.71912109 6.84751953 -0.87890625 5.48046875 C-1 3 -1 3 0 0 Z " fill="#374C6F" transform="translate(262,259)"/>
<path d="M0 0 C0.33 0.66 0.66 1.32 1 2 C1.680625 1.814375 2.36125 1.62875 3.0625 1.4375 C6.57232191 0.91476057 9.52188063 1.38621423 13 2 C13 2.33 13 2.66 13 3 C10.36 3.33 7.72 3.66 5 4 C4.34 5.65 3.68 7.3 3 9 C1.35 9 -0.3 9 -2 9 C-1.51421457 5.87709365 -1.0013988 3.00419641 0 0 Z " fill="#556883" transform="translate(295,271)"/>
<path d="M0 0 C0.99 0 1.98 0 3 0 C3 5.61 3 11.22 3 17 C2.01 17 1.02 17 0 17 C0 11.39 0 5.78 0 0 Z " fill="#324568" transform="translate(516,257)"/>
<path d="M0 0 C0.33 0 0.66 0 1 0 C1 5.61 1 11.22 1 17 C2.32 16.67 3.64 16.34 5 16 C3.75023244 19.65316671 3.32901247 20.78065836 0 23 C-2.1875 22.625 -2.1875 22.625 -4 22 C-3.34 22 -2.68 22 -2 22 C-2.33 20.68 -2.66 19.36 -3 18 C-2.34 17.67 -1.68 17.34 -1 17 C-0.67 11.39 -0.34 5.78 0 0 Z " fill="#79849C" transform="translate(433,257)"/>
<path d="M0 0 C3 3.75 3 3.75 3 6 C2.34 6 1.68 6 1 6 C0.814375 7.2065625 0.814375 7.2065625 0.625 8.4375 C0.41875 9.283125 0.2125 10.12875 0 11 C-0.99 11.495 -0.99 11.495 -2 12 C-3.6875 9.3125 -3.6875 9.3125 -5 6 C-3.73766204 3.0102522 -2.92552556 1.46276278 0 0 Z " fill="#455675" transform="translate(537,194)"/>
<path d="M0 0 C0.33 0 0.66 0 1 0 C1 6.93 1 13.86 1 21 C1.99 21 2.98 21 4 21 C4.33 17.04 4.66 13.08 5 9 C5.33 9 5.66 9 6 9 C6 13.29 6 17.58 6 22 C4.35 22.33 2.7 22.66 1 23 C0 22 0 22 -0.11352539 19.86694336 C-0.10828857 18.95050049 -0.10305176 18.03405762 -0.09765625 17.08984375 C-0.09443359 16.10048828 -0.09121094 15.11113281 -0.08789062 14.09179688 C-0.07951172 13.05087891 -0.07113281 12.00996094 -0.0625 10.9375 C-0.05798828 9.89271484 -0.05347656 8.84792969 -0.04882812 7.77148438 C-0.03699913 5.1809334 -0.02051689 2.59049441 0 0 Z " fill="#A5B2C4" transform="translate(480,257)"/>
<path d="M0 0 C0.33 0.66 0.66 1.32 1 2 C0.649375 2.969375 0.29875 3.93875 -0.0625 4.9375 C-0.371875 5.948125 -0.68125 6.95875 -1 8 C-0.01 9.485 -0.01 9.485 1 11 C-3.34390483 12.08597621 -6.00609492 11.99695254 -10 10 C-6.66666667 6.66666667 -3.33333333 3.33333333 0 0 Z " fill="#4E5E7C" transform="translate(487,172)"/>
<path d="M0 0 C0.33 0 0.66 0 1 0 C1.18395704 4.04705482 0.93489201 6.47166751 -1 10 C-1.103125 10.804375 -1.20625 11.60875 -1.3125 12.4375 C-2.26100063 15.97282052 -4.32320832 17.59775106 -7 20 C-6.47493172 14.78254934 -5.2201441 10.77348889 -2.9375 6.0625 C-2.38964844 4.91910156 -1.84179688 3.77570313 -1.27734375 2.59765625 C-0.85582031 1.74042969 -0.43429688 0.88320312 0 0 Z " fill="#425273" transform="translate(89,76)"/>
<path d="M0 0 C1.67542976 0.28604898 3.34385343 0.61781233 5 1 C5 3.97 5 6.94 5 10 C4.67 10 4.34 10 4 10 C3.67 7.36 3.34 4.72 3 2 C2.01 2.495 2.01 2.495 1 3 C0.67 9.6 0.34 16.2 0 23 C1.32 23.33 2.64 23.66 4 24 C2.35 24 0.7 24 -1 24 C-1.02887236 20.18751574 -1.04675492 16.3750593 -1.0625 12.5625 C-1.07087891 11.47388672 -1.07925781 10.38527344 -1.08789062 9.26367188 C-1.09111328 8.22919922 -1.09433594 7.19472656 -1.09765625 6.12890625 C-1.10289307 5.17056885 -1.10812988 4.21223145 -1.11352539 3.22485352 C-1 1 -1 1 0 0 Z " fill="#C0CCDC" transform="translate(327,256)"/>
<path d="M0 0 C0.99 0 1.98 0 3 0 C2.1216227 4.56756196 1.614517 6.52067674 -2.125 9.4375 C-3.07375 9.953125 -4.0225 10.46875 -5 11 C-5.6875 8.75 -5.6875 8.75 -6 6 C-4.75 3.6875 -4.75 3.6875 -3 2 C-2.01 2 -1.02 2 0 2 C0 1.34 0 0.68 0 0 Z " fill="#314770" transform="translate(504,208)"/>
<path d="M0 0 C0.99 0 1.98 0 3 0 C4.26237731 2.52475462 4.09856404 4.31200466 4.0625 7.125 C4.05347656 8.03507812 4.04445313 8.94515625 4.03515625 9.8828125 C4.02355469 10.58148438 4.01195312 11.28015625 4 12 C2.68 12 1.36 12 0 12 C0 8.04 0 4.08 0 0 Z " fill="#334663" transform="translate(419,260)"/>
<path d="M0 0 C0.66 0 1.32 0 2 0 C3.94824962 3.27305937 5.04370723 5.27154615 4.8125 9.125 C4.10035085 11.64491239 3.3044606 13.73893497 2 16 C1.34 16 0.68 16 0 16 C0 15.34 0 14.68 0 14 C-0.66 14 -1.32 14 -2 14 C-2 13.34 -2 12.68 -2 12 C-0.68 12 0.64 12 2 12 C2 9.36 2 6.72 2 4 C0.68 3.67 -0.64 3.34 -2 3 C-1.34 2.01 -0.68 1.02 0 0 Z " fill="#F1C56F" transform="translate(712,112)"/>
<path d="M0 0 C1.79068573 2.6860286 2.66055791 4.6626589 3.625 7.6875 C3.88539063 8.49574219 4.14578125 9.30398438 4.4140625 10.13671875 C4.60742188 10.75160156 4.80078125 11.36648438 5 12 C2.625 12.1875 2.625 12.1875 0 12 C-2 9 -2 9 -1.7578125 6.73828125 C-1.44457031 5.53751953 -1.44457031 5.53751953 -1.125 4.3125 C-0.92132813 3.50425781 -0.71765625 2.69601562 -0.5078125 1.86328125 C-0.34023438 1.24839844 -0.17265625 0.63351562 0 0 Z " fill="#596881" transform="translate(310,268)"/>
<path d="M0 0 C0.99 0.33 1.98 0.66 3 1 C3 1.66 3 2.32 3 3 C8.28 3 13.56 3 19 3 C19 3.66 19 4.32 19 5 C12.73 5 6.46 5 0 5 C0 3.35 0 1.7 0 0 Z " fill="#3D506F" transform="translate(573,267)"/>
<path d="M0 0 C7.84179688 6.4453125 7.84179688 6.4453125 10 10 C10 10.66 10 11.32 10 12 C7.03 11.505 7.03 11.505 4 11 C4 9.68 4 8.36 4 7 C3.34 7 2.68 7 2 7 C0 4 0 4 -1 2 C-0.67 1.34 -0.34 0.68 0 0 Z " fill="#425272" transform="translate(510,67)"/>
<path d="M0 0 C0.33 0 0.66 0 1 0 C1 1.65 1 3.3 1 5 C0.34 5 -0.32 5 -1 5 C-1 6.98 -1 8.96 -1 11 C-1.99 11 -2.98 11 -4 11 C-4 11.66 -4 12.32 -4 13 C-4.66 13 -5.32 13 -6 13 C-6 13.66 -6 14.32 -6 15 C-6.66 15 -7.32 15 -8 15 C-7.690625 14.236875 -7.38125 13.47375 -7.0625 12.6875 C-6.32106407 10.81210323 -5.63771783 8.91315348 -5 7 C-4.34 7 -3.68 7 -3 7 C-2.690625 6.030625 -2.38125 5.06125 -2.0625 4.0625 C-1 1 -1 1 0 0 Z " fill="#F2C674" transform="translate(667,139)"/>
<path d="M0 0 C0 2.64 0 5.28 0 8 C-1.65 8.66 -3.3 9.32 -5 10 C-5 7.03 -5 4.06 -5 1 C-3 0 -3 0 0 0 Z " fill="#4A5C7B" transform="translate(242,264)"/>
<path d="M0 0 C2.29633824 3.44450737 2.54016485 5.93812283 3 10 C3.66 10 4.32 10 5 10 C5.33 10.99 5.66 11.98 6 13 C4.68 12.67 3.36 12.34 2 12 C2 11.34 2 10.68 2 10 C1.01 10 0.02 10 -1 10 C-2.15837626 5.94568308 -1.83691257 3.78187881 0 0 Z " fill="#465877" transform="translate(451,263)"/>
<path d="M0 0 C0.90492188 0.02320313 1.80984375 0.04640625 2.7421875 0.0703125 C4.10730469 0.09738281 4.10730469 0.09738281 5.5 0.125 C6.19867188 0.14820313 6.89734375 0.17140625 7.6171875 0.1953125 C7.6171875 1.5153125 7.6171875 2.8353125 7.6171875 4.1953125 C-0.95424107 4.48102679 -0.95424107 4.48102679 -4.3828125 2.1953125 C-2.3828125 0.1953125 -2.3828125 0.1953125 0 0 Z " fill="#5A6881" transform="translate(407.3828125,274.8046875)"/>
<path d="M0 0 C0.33 0 0.66 0 1 0 C2.29243536 4.1196377 3.26252625 7.66831683 3 12 C-0.875 11.125 -0.875 11.125 -2 10 C-2.35897436 3.53846154 -2.35897436 3.53846154 0 0 Z " fill="#485877" transform="translate(248,266)"/>
<path d="M0 0 C0.33 0.66 0.66 1.32 1 2 C1.66 2 2.32 2 3 2 C3.33 1.34 3.66 0.68 4 0 C5.125 2.8125 5.125 2.8125 6 6 C4 9 4 9 1.375 9.6875 C0.59125 9.790625 -0.1925 9.89375 -1 10 C-1.33 9.34 -1.66 8.68 -2 8 C-1.34 8 -0.68 8 0 8 C0.33 6.35 0.66 4.7 1 3 C0.34 3 -0.32 3 -1 3 C-0.67 2.01 -0.34 1.02 0 0 Z " fill="#3B4F74" transform="translate(179,189)"/>
<path d="M0 0 C0.99 0.66 1.98 1.32 3 2 C4.9896995 2.39013716 6.99019869 2.73202649 9 3 C8.67 3.99 8.34 4.98 8 6 C4.6875 6.6875 4.6875 6.6875 1 7 C-0.9375 5.5625 -0.9375 5.5625 -2 4 C-1.34 3.34 -0.68 2.68 0 2 C0 1.34 0 0.68 0 0 Z " fill="#435575" transform="translate(275,273)"/>
<path d="M0 0 C1.66611905 -0.042721 3.33382885 -0.04063832 5 0 C6 1 6 1 6.11352539 3.22485352 C6.10828857 4.18319092 6.10305176 5.14152832 6.09765625 6.12890625 C6.09282227 7.68061523 6.09282227 7.68061523 6.08789062 9.26367188 C6.07951172 10.35228516 6.07113281 11.44089844 6.0625 12.5625 C6.05798828 13.65498047 6.05347656 14.74746094 6.04882812 15.87304688 C6.03699826 18.58208495 6.02051543 21.29101599 6 24 C4.35 24 2.7 24 1 24 C2.32 23.67 3.64 23.34 5 23 C4.8595017 20.2079699 4.71284617 17.41650204 4.5625 14.625 C4.52318359 13.8309375 4.48386719 13.036875 4.44335938 12.21875 C4.31106596 7.97398779 4.31106596 7.97398779 3 4 C3.33 3.01 3.66 2.02 4 1 C2.68 0.67 1.36 0.34 0 0 Z " fill="#8E9AB1" transform="translate(557,256)"/>
<path d="M0 0 C0.99 0 1.98 0 3 0 C1.23570801 4.97209562 -1.3939166 9.43438061 -4 14 C-4.66 13.34 -5.32 12.68 -6 12 C-5.625 8.875 -5.625 8.875 -5 6 C-3.68 6 -2.36 6 -1 6 C-0.67 4.02 -0.34 2.04 0 0 Z " fill="#6F849A" transform="translate(604,138)"/>
<path d="M0 0 C1.65 0.33 3.3 0.66 5 1 C4.01 4.3 3.02 7.6 2 11 C0.68 11 -0.64 11 -2 11 C-2.33 9.68 -2.66 8.36 -3 7 C-1.35 7 0.3 7 2 7 C2 5.68 2 4.36 2 3 C1.01 3.33 0.02 3.66 -1 4 C-0.67 2.68 -0.34 1.36 0 0 Z " fill="#66748C" transform="translate(551,269)"/>
<path d="M0 0 C0.33 0 0.66 0 1 0 C1.57293869 9.73995772 1.57293869 9.73995772 -2 14 C-2.66 14 -3.32 14 -4 14 C-4 13.01 -4 12.02 -4 11 C-4.99 10.67 -5.98 10.34 -7 10 C-5.75 8.4375 -5.75 8.4375 -4 7 C-1.8125 7.3125 -1.8125 7.3125 0 8 C0 5.36 0 2.72 0 0 Z " fill="#68768F" transform="translate(266,264)"/>
<path d="M0 0 C0.33 0 0.66 0 1 0 C0.98839844 0.99902344 0.97679687 1.99804688 0.96484375 3.02734375 C0.95582031 4.31769531 0.94679688 5.60804688 0.9375 6.9375 C0.92589844 8.22527344 0.91429687 9.51304687 0.90234375 10.83984375 C0.63467451 13.86298403 0.63467451 13.86298403 2 15 C2.33 15.66 2.66 16.32 3 17 C1.02 17 -0.96 17 -3 17 C-3.125 14.625 -3.125 14.625 -3 12 C-2.34 11.34 -1.68 10.68 -1 10 C-0.53837573 7.56747339 -0.53837573 7.56747339 -0.375 4.875 C-0.30023438 3.96492188 -0.22546875 3.05484375 -0.1484375 2.1171875 C-0.09945313 1.41851562 -0.05046875 0.71984375 0 0 Z " fill="#34465F" transform="translate(404,262)"/>
<path d="M0 0 C0.66 0.33 1.32 0.66 2 1 C1.67 1.99 1.34 2.98 1 4 C0.34 4 -0.32 4 -1 4 C-1.20496094 4.62648438 -1.40992188 5.25296875 -1.62109375 5.8984375 C-1.89050781 6.71570312 -2.15992188 7.53296875 -2.4375 8.375 C-2.70433594 9.18710937 -2.97117187 9.99921875 -3.24609375 10.8359375 C-4 13 -4 13 -5 15 C-5.99 15 -6.98 15 -8 15 C-6.62712658 11.30123909 -4.93644547 8.0485524 -2.875 4.6875 C-2.33617187 3.80449219 -1.79734375 2.92148437 -1.2421875 2.01171875 C-0.83226562 1.34785156 -0.42234375 0.68398438 0 0 Z " fill="#6C869F" transform="translate(619,50)"/>
<path d="M0 0 C0.99 0.33 1.98 0.66 3 1 C3.625 3.3125 3.625 3.3125 4 6 C3.01 7.485 3.01 7.485 2 9 C0.68 8.67 -0.64 8.34 -2 8 C-2.33 6.02 -2.66 4.04 -3 2 C-2.34 2 -1.68 2 -1 2 C-0.67 2.66 -0.34 3.32 0 4 C0.66 4 1.32 4 2 4 C2 3.34 2 2.68 2 2 C1.34 2 0.68 2 0 2 C0 1.34 0 0.68 0 0 Z " fill="#606D86" transform="translate(454,271)"/>
<path d="M0 0 C2.31 0 4.62 0 7 0 C6.67 0.66 6.34 1.32 6 2 C5.773125 2.680625 5.54625 3.36125 5.3125 4.0625 C4 6 4 6 0.875 6.75 C-0.548125 6.87375 -0.548125 6.87375 -2 7 C-1.34 4.69 -0.68 2.38 0 0 Z " fill="#596985" transform="translate(381,264)"/>
<path d="M0 0 C0.33 0.66 0.66 1.32 1 2 C2.32 2 3.64 2 5 2 C5 4.31 5 6.62 5 9 C4.34 8.01 3.68 7.02 3 6 C2.34 7.98 1.68 9.96 1 12 C-1.83022097 8.00439392 -0.76210446 4.57262677 0 0 Z " fill="#6C7893" transform="translate(245,262)"/>
<path d="M0 0 C1.32 0 2.64 0 4 0 C4.66 1.98 5.32 3.96 6 6 C0.25 6.125 0.25 6.125 -2 5 C-1.34 3.35 -0.68 1.7 0 0 Z " fill="#586A87" transform="translate(385,256)"/>
<path d="M0 0 C2.475 0.495 2.475 0.495 5 1 C5 6.28 5 11.56 5 17 C4.67 17 4.34 17 4 17 C3.67 12.71 3.34 8.42 3 4 C2.01 4 1.02 4 0 4 C0 2.68 0 1.36 0 0 Z " fill="#8693AA" transform="translate(419,256)"/>
<path d="M0 0 C2.6855594 2.6855594 3.06049974 5.37621328 4 9 C3.01 8.67 2.02 8.34 1 8 C1 8.66 1 9.32 1 10 C0.34 10 -0.32 10 -1 10 C-1.66 8.35 -2.32 6.7 -3 5 C-2.01 4.67 -1.02 4.34 0 4 C0 2.68 0 1.36 0 0 Z " fill="#5B6B89" transform="translate(185,258)"/>
<path d="M0 0 C2.50037734 2.17424117 3.43628586 3.73045798 4 7 C-0.75 8.125 -0.75 8.125 -3 7 C-1.125 1.125 -1.125 1.125 0 0 Z " fill="#4D5B79" transform="translate(108,39)"/>
<path d="M0 0 C3.3 0 6.6 0 10 0 C10 1.32 10 2.64 10 4 C7.69 4 5.38 4 3 4 C3 3.01 3 2.02 3 1 C2.01 0.67 1.02 0.34 0 0 Z " fill="#65718B" transform="translate(201,275)"/>
<path d="M0 0 C0.99 0 1.98 0 3 0 C3 4.29 3 8.58 3 13 C0 10 0 10 -0.29296875 7.51953125 C-0.25816406 6.62621094 -0.22335937 5.73289062 -0.1875 4.8125 C-0.16042969 3.91144531 -0.13335937 3.01039063 -0.10546875 2.08203125 C-0.07066406 1.39496094 -0.03585937 0.70789063 0 0 Z " fill="#324664" transform="translate(286,257)"/>
<path d="M0 0 C2.0625 1.6875 2.0625 1.6875 4 4 C3.75 6.75 3.75 6.75 3 9 C0.525 8.01 0.525 8.01 -2 7 C-1.34 4.69 -0.68 2.38 0 0 Z " fill="#576686" transform="translate(299,261)"/>
<path d="M0 0 C2.0625 2.3125 2.0625 2.3125 4 5 C3.67 5.99 3.34 6.98 3 8 C2.34 8 1.68 8 1 8 C0.67 7.34 0.34 6.68 0 6 C-0.99 6 -1.98 6 -3 6 C-1.125 1.125 -1.125 1.125 0 0 Z " fill="#5B6B85" transform="translate(551,168)"/>
<path d="M0 0 C1 3 1 3 1 5 C1.66 5 2.32 5 3 5 C3 6.32 3 7.64 3 9 C2.34 9 1.68 9 1 9 C1 8.34 1 7.68 1 7 C0.01 7 -0.98 7 -2 7 C-2 7.66 -2 8.32 -2 9 C-2.66 9 -3.32 9 -4 9 C-2.94124926 5.59687262 -1.99097846 2.98646769 0 0 Z " fill="#F7BD62" transform="translate(619,167)"/>
<path d="M0 0 C2.15377564 2.62198774 3.40072174 4.64404172 4 8 C2.02 8 0.04 8 -2 8 C-1.125 1.125 -1.125 1.125 0 0 Z " fill="#546683" transform="translate(162,148)"/>
<path d="M0 0 C1.32 0.66 2.64 1.32 4 2 C3.01 3.98 2.02 5.96 1 8 C0.34 8 -0.32 8 -1 8 C-1 7.34 -1 6.68 -1 6 C-1.66 6 -2.32 6 -3 6 C-1.125 1.125 -1.125 1.125 0 0 Z " fill="#405374" transform="translate(99,145)"/>
<path d="M0 0 C1.23556641 0.01740234 1.23556641 0.01740234 2.49609375 0.03515625 C3.32238281 0.04417969 4.14867187 0.05320312 5 0.0625 C5.63808594 0.07410156 6.27617187 0.08570313 6.93359375 0.09765625 C6.93359375 0.75765625 6.93359375 1.41765625 6.93359375 2.09765625 C7.59359375 2.42765625 8.25359375 2.75765625 8.93359375 3.09765625 C7.49651285 3.15188572 6.05883913 3.19055348 4.62109375 3.22265625 C3.82058594 3.24585938 3.02007812 3.2690625 2.1953125 3.29296875 C-0.06640625 3.09765625 -0.06640625 3.09765625 -3.06640625 1.09765625 C-2.06640625 0.09765625 -2.06640625 0.09765625 0 0 Z " fill="#334667" transform="translate(382.06640625,269.90234375)"/>
<path d="M0 0 C0 3.3 0 6.6 0 10 C-0.99 10 -1.98 10 -3 10 C-3 7.03 -3 4.06 -3 1 C-1 0 -1 0 0 0 Z " fill="#314667" transform="translate(345,269)"/>
<path d="M0 0 C0.99 0.66 1.98 1.32 3 2 C2.690625 2.5775 2.38125 3.155 2.0625 3.75 C1.07416636 5.84294184 0.4831387 7.74535275 0 10 C-1.32 10 -2.64 10 -4 10 C-2.8905928 6.51329166 -1.73662334 3.22515763 0 0 Z " fill="#505F7D" transform="translate(20,218)"/>
<path d="M0 0 C1.11375 0.556875 1.11375 0.556875 2.25 1.125 C-0.0625 3.1875 -0.0625 3.1875 -2.75 5.125 C-3.74 4.795 -4.73 4.465 -5.75 4.125 C-6.08 3.135 -6.41 2.145 -6.75 1.125 C-4.02098495 -0.69434337 -3.21400584 -1.02263822 0 0 Z " fill="#485778" transform="translate(496.75,217.875)"/>
<path d="M0 0 C2 3 2 3 1.625 5.1875 C1.41875 5.785625 1.2125 6.38375 1 7 C0.34 7 -0.32 7 -1 7 C-1.103125 7.639375 -1.20625 8.27875 -1.3125 8.9375 C-1.539375 9.618125 -1.76625 10.29875 -2 11 C-2.99 11.33 -3.98 11.66 -5 12 C-3.68938409 7.76570244 -2.05643741 3.92592596 0 0 Z " fill="#53607D" transform="translate(43,171)"/>
<path d="M0 0 C0.66 0 1.32 0 2 0 C2.33 0.66 2.66 1.32 3 2 C3.66 2 4.32 2 5 2 C5 3.32 5 4.64 5 6 C3.35 6 1.7 6 0 6 C-0.38218767 4.34385343 -0.71395102 2.67542976 -1 1 C-0.67 0.67 -0.34 0.34 0 0 Z " fill="#384A6E" transform="translate(548,270)"/>
<path d="M0 0 C0.99 0 1.98 0 3 0 C3 2.97 3 5.94 3 9 C2.01 9 1.02 9 0 9 C0 6.03 0 3.06 0 0 Z " fill="#324569" transform="translate(342,257)"/>
<path d="M0 0 C1.65 0 3.3 0 5 0 C4.74438677 2.3431213 4.40729228 4.67843403 4 7 C3.01 7.495 3.01 7.495 2 8 C0.4375 5.6875 0.4375 5.6875 -1 3 C-0.67 2.01 -0.34 1.02 0 0 Z " fill="#657C96" transform="translate(569,176)"/>
<path d="M0 0 C2.64465038 3.1254959 3.84414715 6.08788267 5 10 C4.34 10.66 3.68 11.32 3 12 C3 10.68 3 9.36 3 8 C1.68 7.67 0.36 7.34 -1 7 C-0.67 4.69 -0.34 2.38 0 0 Z " fill="#5A6888" transform="translate(115,52)"/>
<path d="M0 0 C0.66 1.32 1.32 2.64 2 4 C2.66 4 3.32 4 4 4 C4.33 3.34 4.66 2.68 5 2 C5.33 2.99 5.66 3.98 6 5 C4.35 5 2.7 5 1 5 C0.67 5.99 0.34 6.98 0 8 C-1.5 6.625 -1.5 6.625 -3 5 C-3 4.34 -3 3.68 -3 3 C-2.01 3 -1.02 3 0 3 C0 2.01 0 1.02 0 0 Z " fill="#62708A" transform="translate(356,261)"/>
<path d="M0 0 C2.40358636 0.26310129 4.01691725 1.04304509 6.10546875 2.23046875 C4.5031992 2.45292268 2.89850108 2.65793544 1.29296875 2.85546875 C0.39964844 2.97148437 -0.49367188 3.0875 -1.4140625 3.20703125 C-3.89453125 3.23046875 -3.89453125 3.23046875 -6.89453125 1.23046875 C-5.03663049 -0.62743201 -2.46980966 0.05097168 0 0 Z " fill="#50617D" transform="translate(457.89453125,233.76953125)"/>
<path d="M0 0 C0.99 0 1.98 0 3 0 C4.2077558 3.62326739 3.54311128 4.64146369 2 8 C0.68 6.35 -0.64 4.7 -2 3 C-1.34 2.67 -0.68 2.34 0 2 C0 1.34 0 0.68 0 0 Z " fill="#647A9A" transform="translate(563,165)"/>
<path d="M0 0 C0.66 0 1.32 0 2 0 C0.8905928 3.48670834 -0.26337666 6.77484237 -2 10 C-2.66 10 -3.32 10 -4 10 C-4 8.68 -4 7.36 -4 6 C-3.34 6 -2.68 6 -2 6 C-2 5.34 -2 4.68 -2 4 C-2.66 4 -3.32 4 -4 4 C-4 3.34 -4 2.68 -4 2 C-2.68 2 -1.36 2 0 2 C0 1.34 0 0.68 0 0 Z " fill="#F1C876" transform="translate(696,154)"/>
<path d="M0 0 C0.99 0.33 1.98 0.66 3 1 C2.01 2.32 1.02 3.64 0 5 C0.99 4.67 1.98 4.34 3 4 C3 5.32 3 6.64 3 8 C1.35 8 -0.3 8 -2 8 C-1.125 2.25 -1.125 2.25 0 0 Z " fill="#626D89" transform="translate(378,272)"/>
<path d="M0 0 C2.35953094 2.35953094 2.49141413 3.77895617 3 7 C1.35 7 -0.3 7 -2 7 C-2 3 -2 3 0 0 Z " fill="#68748E" transform="translate(395,273)"/>
<path d="M0 0 C2.31 0.66 4.62 1.32 7 2 C7 2.66 7 3.32 7 4 C6.34 4 5.68 4 5 4 C4.67 4.66 4.34 5.32 4 6 C4 5.34 4 4.68 4 4 C2.35 4.33 0.7 4.66 -1 5 C-1 1 -1 1 0 0 Z " fill="#3C4F6A" transform="translate(384,260)"/>
<path d="M0 0 C0.99 0.33 1.98 0.66 3 1 C2.34 2.65 1.68 4.3 1 6 C0.34 6 -0.32 6 -1 6 C-1.66 7.32 -2.32 8.64 -3 10 C-3.125 4.25 -3.125 4.25 -2 2 C-1.34 2 -0.68 2 0 2 C0 1.34 0 0.68 0 0 Z " fill="#F1C26D" transform="translate(687,170)"/>
<path d="M0 0 C1.98 0 3.96 0 6 0 C5.6875 1.9375 5.6875 1.9375 5 4 C4.01 4.33 3.02 4.66 2 5 C2 4.34 2 3.68 2 3 C1.01 3.33 0.02 3.66 -1 4 C-0.67 2.68 -0.34 1.36 0 0 Z " fill="#394E6E" transform="translate(357,266)"/>
<path d="M0 0 C0.66 0 1.32 0 2 0 C2.1875 2.375 2.1875 2.375 2 5 C1.01 5.66 0.02 6.32 -1 7 C-1.66 6.67 -2.32 6.34 -3 6 C-2.42655063 3.13275314 -2.1385485 2.1385485 0 0 Z " fill="#425570" transform="translate(555,264)"/>
<path d="M0 0 C0.99 0 1.98 0 3 0 C3.33 2.64 3.66 5.28 4 8 C3.01 8 2.02 8 1 8 C0.67 7.34 0.34 6.68 0 6 C0.66 6 1.32 6 2 6 C2 5.01 2 4.02 2 3 C1.34 3 0.68 3 0 3 C0 2.01 0 1.02 0 0 Z " fill="#3F4F71" transform="translate(543,257)"/>
<path d="M0 0 C2.475 0.99 2.475 0.99 5 2 C4.67 3.32 4.34 4.64 4 6 C1.03 5.505 1.03 5.505 -2 5 C-1.34 4.67 -0.68 4.34 0 4 C0 2.68 0 1.36 0 0 Z " fill="#576684" transform="translate(251,274)"/>
<path d="M0 0 C0.33 0.66 0.66 1.32 1 2 C1.680625 1.814375 2.36125 1.62875 3.0625 1.4375 C6.57232191 0.91476057 9.52188063 1.38621423 13 2 C13 2.33 13 2.66 13 3 C9.97265625 3.24414062 9.97265625 3.24414062 6.9453125 3.48828125 C4.60480784 3.87393036 4.60480784 3.87393036 3 7 C3 5.68 3 4.36 3 3 C2.01 3 1.02 3 0 3 C0 2.01 0 1.02 0 0 Z " fill="#63728C" transform="translate(295,271)"/>
<path d="M0 0 C1.65 0 3.3 0 5 0 C3.92598892 2.91517292 3.22189824 4.77810176 1 7 C1 5.68 1 4.36 1 3 C0.34 3 -0.32 3 -1 3 C-0.67 2.01 -0.34 1.02 0 0 Z " fill="#707D97" transform="translate(365,256)"/>
<path d="M0 0 C1.32 0 2.64 0 4 0 C4.33 1.32 4.66 2.64 5 4 C2.69 4.33 0.38 4.66 -2 5 C-1.125 1.125 -1.125 1.125 0 0 Z " fill="#6A7893" transform="translate(302,256)"/>
<path d="M0 0 C1.38609004 3.15020465 0.89180331 4.31918022 -0.25 7.6875 C-2 11 -2 11 -5 12 C-3.68938409 7.76570244 -2.05643741 3.92592596 0 0 Z " fill="#66718C" transform="translate(59,138)"/>
<path d="M0 0 C0.66 0 1.32 0 2 0 C3.23102992 3.69308976 2.87175152 6.88050712 2.5625 10.6875 C2.51029297 11.38939453 2.45808594 12.09128906 2.40429688 12.81445312 C2.27492135 14.54338054 2.13817469 16.27175355 2 18 C1.67 18 1.34 18 1 18 C0.67 12.06 0.34 6.12 0 0 Z " fill="#6E7999" transform="translate(497,126)"/>
<path d="M0 0 C1.32 0 2.64 0 4 0 C4 1.98 4 3.96 4 6 C2.68 6 1.36 6 0 6 C0 4.02 0 2.04 0 0 Z " fill="#4C5F7A" transform="translate(401,256)"/>
<path d="M0 0 C0.99 0.33 1.98 0.66 3 1 C1.68 3.64 0.36 6.28 -1 9 C-1.33 9 -1.66 9 -2 9 C-2.125 5.625 -2.125 5.625 -2 2 C-1.34 1.34 -0.68 0.68 0 0 Z " fill="#5F6C84" transform="translate(60,224)"/>
<path d="M0 0 C-1.45255699 3.82946843 -3.42895561 5.12050295 -7 7 C-6.75 4.625 -6.75 4.625 -6 2 C-3.84898936 0.54286376 -2.59713506 0 0 0 Z " fill="#52617A" transform="translate(506,212)"/>
<path d="M0 0 C1.32 0 2.64 0 4 0 C4 0.66 4 1.32 4 2 C4.66 2.33 5.32 2.66 6 3 C5.67 4.65 5.34 6.3 5 8 C2.74754119 5.31158141 1.11786042 3.35358125 0 0 Z " fill="#525F7C" transform="translate(537,208)"/>
<path d="M0 0 C0.66 0.33 1.32 0.66 2 1 C1.34 3.64 0.68 6.28 0 9 C-1.32 8.67 -2.64 8.34 -4 8 C-2.68 5.36 -1.36 2.72 0 0 Z " fill="#4C5C72" transform="translate(96,205)"/>
<path d="M0 0 C0.99 0 1.98 0 3 0 C1.64978174 4.41889613 -0.26115668 6.34345343 -4 9 C-3.6875 7.0625 -3.6875 7.0625 -3 5 C-2.01 4.67 -1.02 4.34 0 4 C-0.33 3.01 -0.66 2.02 -1 1 C-0.67 0.67 -0.34 0.34 0 0 Z " fill="#54607A" transform="translate(518,196)"/>
<path d="M0 0 C0.75 1.625 0.75 1.625 1 4 C-0.8125 7.25 -0.8125 7.25 -3 10 C-3.66 10 -4.32 10 -5 10 C-3.84414715 6.08788267 -2.64465038 3.1254959 0 0 Z " fill="#F1C775" transform="translate(693,96)"/>
<path d="M0 0 C0.66 0 1.32 0 2 0 C0.90931332 3.77545388 0.0916909 6.47043472 -3 9 C-3 7.02 -3 5.04 -3 3 C-2.01 2.67 -1.02 2.34 0 2 C0 1.34 0 0.68 0 0 Z " fill="#74869B" transform="translate(634,86)"/>
<path d="M0 0 C3.08089673 2.77280706 4.68775452 5.06326356 6 9 C4.0625 8.6875 4.0625 8.6875 2 8 C1.67 7.01 1.34 6.02 1 5 C0.34 4.34 -0.32 3.68 -1 3 C-0.67 2.01 -0.34 1.02 0 0 Z " fill="#768CA6" transform="translate(627,62)"/>
<path d="M0 0 C2.97 0.495 2.97 0.495 6 1 C5.01 2.485 5.01 2.485 4 4 C0.875 4.1875 0.875 4.1875 -2 4 C-1.34 2.68 -0.68 1.36 0 0 Z " fill="#475471" transform="translate(527,275)"/>
<path d="M0 0 C1.32 0.66 2.64 1.32 4 2 C3.34 3.65 2.68 5.3 2 7 C0.4375 5.75 0.4375 5.75 -1 4 C-0.6875 1.8125 -0.6875 1.8125 0 0 Z " fill="#405477" transform="translate(494,272)"/>
<path d="M0 0 C1.32 0.66 2.64 1.32 4 2 C3.67 3.32 3.34 4.64 3 6 C2.01 6 1.02 6 0 6 C-1.125 2.25 -1.125 2.25 0 0 Z " fill="#3A4E71" transform="translate(186,266)"/>
<path d="M0 0 C2 3 2 3 2 5 C2.33 5.99 2.66 6.98 3 8 C1.35 8 -0.3 8 -2 8 C-1.47731534 5.23723823 -0.89130413 2.6739124 0 0 Z " fill="#5B6D86" transform="translate(459,258)"/>
<path d="M0 0 C0.99 0.33 1.98 0.66 3 1 C2.34 2.65 1.68 4.3 1 6 C-1.64 5.34 -4.28 4.68 -7 4 C-7 3.67 -7 3.34 -7 3 C-5.5459375 2.814375 -5.5459375 2.814375 -4.0625 2.625 C-2.5465625 2.315625 -2.5465625 2.315625 -1 2 C-0.67 1.34 -0.34 0.68 0 0 Z " fill="#697A92" transform="translate(260,257)"/>
<path d="M0 0 C2.475 0.495 2.475 0.495 5 1 C5 3.97 5 6.94 5 10 C4.67 10 4.34 10 4 10 C3.67 7.36 3.34 4.72 3 2 C2.01 2.33 1.02 2.66 0 3 C0 2.01 0 1.02 0 0 Z " fill="#8E9BAF" transform="translate(327,256)"/>
<path d="M0 0 C1.32 0.66 2.64 1.32 4 2 C-2.625 6 -2.625 6 -6 6 C-6 5.34 -6 4.68 -6 4 C-3 2 -3 2 0 2 C0 1.34 0 0.68 0 0 Z " fill="#5A687F" transform="translate(489,222)"/>
<path d="M0 0 C2.4375 0.6875 2.4375 0.6875 5 2 C5.8125 4.625 5.8125 4.625 6 7 C3.00675737 5.9024777 2.15389099 5.32317108 0.75 2.375 C0.5025 1.59125 0.255 0.8075 0 0 Z " fill="#7B8B9F" transform="translate(572,184)"/>
<path d="M0 0 C4.75286041 4.29290618 4.75286041 4.29290618 5 8 C4.34 8.66 3.68 9.32 3 10 C2.30289269 8.71349294 1.61757124 7.42059335 0.9375 6.125 C0.36322266 5.04605469 0.36322266 5.04605469 -0.22265625 3.9453125 C-0.47917969 3.30335938 -0.73570312 2.66140625 -1 2 C-0.67 1.34 -0.34 0.68 0 0 Z " fill="#7689A0" transform="translate(557,157)"/>
<path d="M0 0 C2.15377564 2.62198774 3.40072174 4.64404172 4 8 C3.01 8.33 2.02 8.66 1 9 C-1.125 3.375 -1.125 3.375 0 0 Z " fill="#53617F" transform="translate(528,91)"/>
<path d="M0 0 C2.31 1.98 4.62 3.96 7 6 C4 7 4 7 2 7 C0 4 0 4 -1 2 C-0.67 1.34 -0.34 0.68 0 0 Z " fill="#5F6E86" transform="translate(510,67)"/>
<path d="M0 0 C1.32 0 2.64 0 4 0 C4.33 1.32 4.66 2.64 5 4 C3.35 4 1.7 4 0 4 C0 2.68 0 1.36 0 0 Z " fill="#687291" transform="translate(310,276)"/>
<path d="M0 0 C0.66 0 1.32 0 2 0 C5 5.75 5 5.75 5 8 C3.68 7.67 2.36 7.34 1 7 C0.67 4.69 0.34 2.38 0 0 Z " fill="#5C6982" transform="translate(196,220)"/>
<path d="M0 0 C4 4.625 4 4.625 4 8 C2.68 7.67 1.36 7.34 0 7 C0.33 5.68 0.66 4.36 1 3 C0.34 2.67 -0.32 2.34 -1 2 C-0.67 1.34 -0.34 0.68 0 0 Z " fill="#54607F" transform="translate(555,175)"/>
<path d="M0 0 C2.11180592 2.57089417 3.66306057 4.63060567 4 8 C3.34 8.66 2.68 9.32 2 10 C-0.4375 4.15 -0.4375 4.15 -1 1 C-0.67 0.67 -0.34 0.34 0 0 Z " fill="#5A6683" transform="translate(154,132)"/>
<path d="M0 0 C0.66 0 1.32 0 2 0 C1.38722388 2.96175123 0.74627478 4.38058783 -1 7 C-1.99 7.33 -2.98 7.66 -4 8 C-2.87548273 5.0280615 -1.77706209 2.66559313 0 0 Z " fill="#71859B" transform="translate(604,76)"/>
<path d="M0 0 C0.33 0 0.66 0 1 0 C1.3227506 4.62609198 0.84450614 7.28026121 -2 11 C-2.66 11 -3.32 11 -4 11 C-2.7874262 7.27566618 -1.49140021 3.62197194 0 0 Z " fill="#5A6682" transform="translate(89,76)"/>
<path d="M0 0 C1.32 0.66 2.64 1.32 4 2 C4 2.99 4 3.98 4 5 C2.35 5.33 0.7 5.66 -1 6 C-0.67 4.02 -0.34 2.04 0 0 Z " fill="#4E5F78" transform="translate(262,259)"/>
<path d="M0 0 C2.64 0 5.28 0 8 0 C5 1.5 5 1.5 2 3 C1.34444881 5.52733235 1.34444881 5.52733235 1 8 C0.67 8 0.34 8 0 8 C0 5.36 0 2.72 0 0 Z " fill="#6E819E" transform="translate(222,256)"/>
<path d="M0 0 C0.33 0.66 0.66 1.32 1 2 C1.66 2.33 2.32 2.66 3 3 C2.34 3.61875 1.68 4.2375 1 4.875 C-1.2284549 6.75637427 -1.2284549 6.75637427 -1 9 C-1.99 9 -2.98 9 -4 9 C-2.80100302 5.9168649 -1.52299523 2.93720508 0 0 Z " fill="#7689A0" transform="translate(566,141)"/>
<path d="M0 0 C1.32 0 2.64 0 4 0 C2.25 5.75 2.25 5.75 0 8 C0 5.36 0 2.72 0 0 Z " fill="#F3C160" transform="translate(706,132)"/>
<path d="M0 0 C0.99 1.32 1.98 2.64 3 4 C2.03114628 5.68496298 1.03013277 7.35178756 0 9 C-0.33 9 -0.66 9 -1 9 C-0.67 6.03 -0.34 3.06 0 0 Z " fill="#7B8D9F" transform="translate(637,77)"/>
<path d="M0 0 C0.66 1.32 1.32 2.64 2 4 C1.01 5.32 0.02 6.64 -1 8 C-1.66 6.02 -2.32 4.04 -3 2 C-2.34 2 -1.68 2 -1 2 C-0.67 1.34 -0.34 0.68 0 0 Z " fill="#3F5375" transform="translate(148,120)"/>
<path d="M0 0 C0.66 1.32 1.32 2.64 2 4 C2.66 4 3.32 4 4 4 C4 4.66 4 5.32 4 6 C3.34 6 2.68 6 2 6 C2 6.66 2 7.32 2 8 C1.34 8 0.68 8 0 8 C0 5.36 0 2.72 0 0 Z " fill="#F0C168" transform="translate(700,94)"/>
<path d="M0 0 C0.66 0 1.32 0 2 0 C2 0.66 2 1.32 2 2 C2.66 2 3.32 2 4 2 C4 2.66 4 3.32 4 4 C2.68 4 1.36 4 0 4 C0 4.66 0 5.32 0 6 C-0.66 6 -1.32 6 -2 6 C-1.34 4.02 -0.68 2.04 0 0 Z " fill="#F3CA81" transform="translate(696,90)"/>
<path d="M0 0 C0.33 0 0.66 0 1 0 C1 1.65 1 3.3 1 5 C1.66 5.33 2.32 5.66 3 6 C1.02 6.33 -0.96 6.66 -3 7 C-2.34 6.67 -1.68 6.34 -1 6 C-1.20625 5.38125 -1.4125 4.7625 -1.625 4.125 C-1.74875 3.42375 -1.8725 2.7225 -2 2 C-1.34 1.34 -0.68 0.68 0 0 Z " fill="#738198" transform="translate(284,273)"/>
<path d="M0 0 C0.99 0.99 1.98 1.98 3 3 C2.67 3.66 2.34 4.32 2 5 C0.68 4.67 -0.64 4.34 -2 4 C-2 3.01 -2 2.02 -2 1 C-1.34 0.67 -0.68 0.34 0 0 Z " fill="#3D526F" transform="translate(421,271)"/>
<path d="M0 0 C0.33 0 0.66 0 1 0 C1.125 5.75 1.125 5.75 0 8 C-0.66 8 -1.32 8 -2 8 C-2.20086443 4.28400809 -2.1519437 3.22791555 0 0 Z " fill="#314669" transform="translate(248,266)"/>
<path d="M0 0 C0.66 0.99 1.32 1.98 2 3 C0.625 5.5 0.625 5.5 -1 8 C-1.66 8 -2.32 8 -3 8 C-1.125 2.25 -1.125 2.25 0 0 Z " fill="#54627C" transform="translate(100,197)"/>
<path d="M0 0 C0.33 0 0.66 0 1 0 C0.67 2.64 0.34 5.28 0 8 C-0.99 8 -1.98 8 -3 8 C-1.125 2.25 -1.125 2.25 0 0 Z " fill="#63738D" transform="translate(35,187)"/>
<path d="M0 0 C0 1.32 0 2.64 0 4 C0.66 4.33 1.32 4.66 2 5 C-2.75 4.25 -2.75 4.25 -5 2 C-2 0 -2 0 0 0 Z " fill="#506081" transform="translate(475,185)"/>
<path d="M0 0 C0.66 0.33 1.32 0.66 2 1 C1.67 1.99 1.34 2.98 1 4 C0.34 4 -0.32 4 -1 4 C-1.33 5.32 -1.66 6.64 -2 8 C-2.66 8 -3.32 8 -4 8 C-2.87548273 5.0280615 -1.77706209 2.66559313 0 0 Z " fill="#8193A9" transform="translate(619,50)"/>
</svg>
