<?xml version="1.0" standalone="no"?>
<!DOCTYPE svg PUBLIC "-//W3C//DTD SVG 20010904//EN"
 "http://www.w3.org/TR/2001/REC-SVG-20010904/DTD/svg10.dtd">
<svg version="1.0" xmlns="http://www.w3.org/2000/svg"
 width="706.000000pt" height="242.000000pt" viewBox="0 0 706.000000 242.000000"
 preserveAspectRatio="xMidYMid meet">

<g transform="translate(0.000000,242.000000) scale(0.100000,-0.100000)"
fill="#000000" stroke="none">
<path d="M2090 1420 l0 -990 720 0 720 0 0 200 0 200 -517 2 -518 3 -3 788 -2
787 -200 0 -200 0 0 -990z"/>
<path d="M3920 2205 l205 -205 121 0 c201 0 320 -42 444 -157 192 -177 242
-452 126 -688 -61 -122 -194 -241 -320 -285 -68 -24 -172 -39 -273 -40 l-73 0
0 380 0 380 -220 0 -220 0 0 -580 0 -580 348 0 c199 0 374 5 408 11 105 18
241 69 328 122 340 207 517 551 485 944 -29 351 -263 678 -587 818 -168 73
-256 85 -657 85 l-320 0 205 -205z"/>
<path d="M931 2313 c-24 -48 -230 -469 -457 -935 -227 -466 -425 -869 -439
-897 l-25 -51 217 0 218 0 72 142 c40 79 118 231 173 338 56 107 140 269 187
360 47 91 89 169 93 173 7 8 200 -347 200 -367 0 -3 -33 -6 -72 -6 l-73 0
-102 -203 -103 -202 284 -3 283 -2 59 -115 59 -115 218 0 217 0 -79 158 c-43
86 -88 177 -99 202 -11 25 -95 198 -187 385 -91 187 -216 443 -278 570 -62
126 -159 326 -217 443 l-105 213 -44 -88z"/>
<path d="M5957 2057 c-127 -220 -160 -278 -345 -597 -53 -91 -107 -186 -121
-211 l-24 -45 93 -147 c51 -81 97 -144 101 -140 7 7 132 226 364 638 34 61
103 183 154 273 l92 163 -55 87 c-31 48 -72 113 -93 144 l-38 56 -128 -221z"/>
<path d="M5393 1088 c-7 -10 -125 -211 -168 -288 -2 -3 45 -86 105 -185 l108
-180 249 -3 249 -2 30 52 c17 29 57 95 88 146 31 51 60 100 63 108 4 12 -32
14 -248 14 l-254 1 -104 174 c-57 96 -105 175 -106 175 -1 0 -7 -6 -12 -12z"/>
<path d="M1661 128 c-23 -57 -41 -106 -41 -110 0 -20 31 -5 45 22 13 26 21 30
56 30 36 0 41 -3 50 -30 7 -19 18 -30 30 -30 18 0 18 2 -3 57 -40 109 -67 163
-81 163 -9 0 -30 -39 -56 -102z m89 -18 c0 -14 -7 -18 -30 -18 -33 1 -39 22
-19 61 l12 21 18 -23 c11 -13 19 -31 19 -41z"/>
<path d="M1860 120 l0 -110 70 0 c56 0 70 3 70 15 0 11 -12 15 -50 15 l-50 0
0 95 c0 88 -1 95 -20 95 -19 0 -20 -7 -20 -110z"/>
<path d="M2110 120 l0 -110 49 0 c96 0 141 36 141 112 0 66 -57 108 -145 108
l-45 0 0 -110z m138 57 c19 -20 24 -90 8 -112 -7 -10 -32 -19 -59 -22 l-47 -6
0 83 0 83 41 -6 c23 -3 48 -12 57 -20z"/>
<path d="M2393 218 c-12 -6 -29 -25 -37 -43 -45 -95 24 -189 119 -164 49 14
75 52 75 110 0 42 -5 55 -29 80 -32 31 -84 38 -128 17z m100 -35 c23 -26 30
-65 17 -98 -14 -36 -26 -45 -67 -45 -39 0 -63 30 -63 80 0 51 24 80 64 80 19
0 40 -8 49 -17z"/>
<path d="M2600 153 c0 -43 6 -89 13 -103 24 -48 122 -57 155 -13 7 10 12 50
12 105 0 72 -3 88 -15 88 -12 0 -15 -15 -15 -77 -1 -87 -14 -115 -54 -115 -45
0 -55 17 -58 105 -3 69 -6 82 -20 85 -16 3 -18 -6 -18 -75z"/>
<path d="M2901 208 c-81 -207 -78 -198 -55 -198 8 0 20 14 25 30 10 27 15 30
54 30 38 0 44 -3 55 -30 8 -18 20 -30 31 -30 21 0 24 -11 -43 155 -26 65 -52
82 -67 43z m47 -71 c16 -33 9 -47 -24 -47 -25 0 -29 14 -18 58 8 28 25 24 42
-11z"/>
<path d="M3070 120 c0 -91 3 -110 15 -110 12 0 15 19 15 110 0 91 -3 110 -15
110 -12 0 -15 -19 -15 -110z"/>
<path d="M3160 121 c0 -104 1 -111 20 -111 17 0 20 7 20 51 l0 50 53 -3 52 -3
3 -47 c2 -34 7 -48 18 -48 11 0 14 21 14 110 0 91 -3 110 -15 110 -11 0 -15
-12 -15 -45 l0 -45 -54 0 -55 0 -3 42 c-2 31 -8 44 -20 46 -16 3 -18 -7 -18
-107z"/>
<path d="M3395 203 c10 -16 29 -44 42 -63 16 -24 23 -49 23 -82 0 -41 3 -48
20 -48 17 0 20 7 20 46 0 34 7 56 29 87 49 72 54 87 34 87 -10 0 -30 -19 -46
-45 -16 -25 -32 -45 -37 -45 -4 0 -20 20 -34 45 -18 30 -34 45 -48 45 -20 0
-20 -1 -3 -27z"/>
<path d="M3701 127 c-23 -57 -41 -107 -41 -110 0 -19 32 -3 45 23 13 26 21 30
56 30 36 0 41 -3 50 -30 7 -19 18 -30 30 -30 18 0 17 4 -7 68 -14 37 -33 86
-42 110 -26 69 -44 57 -91 -61z m74 13 c21 -41 19 -49 -15 -48 -33 1 -39 22
-20 59 14 25 17 24 35 -11z"/>
<path d="M3900 120 l0 -110 70 0 c56 0 70 3 70 15 0 11 -12 15 -50 15 l-50 0
0 95 c0 88 -1 95 -20 95 -19 0 -20 -7 -20 -110z"/>
<path d="M4082 140 c3 -97 12 -114 63 -128 17 -5 45 -5 63 0 44 12 62 55 62
148 0 63 -2 70 -20 70 -17 0 -19 -8 -22 -87 -3 -83 -4 -88 -29 -102 -24 -13
-29 -13 -53 2 -25 17 -26 22 -26 102 0 80 -1 85 -21 85 -20 0 -21 -4 -17 -90z"/>
<path d="M4320 120 c0 -103 1 -110 20 -110 17 0 19 8 22 78 l3 77 30 -77 c17
-43 35 -78 41 -78 7 0 25 35 40 78 l29 77 3 -77 c3 -70 5 -78 22 -78 19 0 20
7 20 111 l0 110 -27 -3 c-25 -3 -31 -11 -53 -76 -14 -39 -29 -71 -34 -69 -5 2
-20 35 -34 75 -24 66 -28 72 -54 72 l-28 0 0 -110z"/>
<path d="M4610 120 c0 -91 3 -110 15 -110 12 0 15 19 15 110 0 91 -3 110 -15
110 -12 0 -15 -19 -15 -110z"/>
<path d="M4700 120 c0 -103 1 -110 20 -110 17 0 19 8 22 78 l3 77 54 -77 c34
-49 62 -78 73 -78 16 0 18 10 18 110 0 90 -3 110 -15 110 -11 0 -15 -18 -17
-82 l-3 -83 -58 83 c-39 54 -65 82 -78 82 -18 0 -19 -8 -19 -110z"/>
<path d="M4950 120 c0 -103 1 -110 20 -110 19 0 20 7 20 110 0 103 -1 110 -20
110 -19 0 -20 -7 -20 -110z"/>
<path d="M5050 142 c0 -55 5 -95 13 -105 32 -44 130 -35 154 13 7 14 13 60 13
103 0 70 -2 77 -20 77 -18 0 -20 -7 -20 -84 0 -92 -9 -109 -57 -109 -41 0 -53
27 -53 115 0 63 -3 78 -15 78 -12 0 -15 -16 -15 -88z"/>
<path d="M5290 120 c0 -91 3 -110 15 -110 12 0 15 15 15 77 0 42 3 73 8 69 4
-4 18 -37 32 -73 14 -37 31 -68 37 -70 6 -2 23 28 39 71 16 42 31 76 34 76 3
0 4 -34 2 -75 -4 -71 -3 -75 17 -75 20 0 21 5 21 111 l0 110 -27 -3 c-22 -3
-30 -12 -50 -68 -13 -36 -26 -72 -29 -80 -3 -9 -19 20 -36 68 -26 72 -33 82
-54 82 -24 0 -24 0 -24 -110z"/>
<path d="M1267 123 c-4 -3 -7 -15 -7 -25 0 -17 11 -18 140 -18 l140 0 0 25 0
25 -133 0 c-74 0 -137 -3 -140 -7z"/>
<path d="M5630 105 l0 -25 141 0 c140 0 140 0 137 23 -3 21 -6 22 -140 25
l-138 3 0 -26z"/>
</g>
</svg>
