<?xml version="1.0" standalone="no"?>
<!DOCTYPE svg PUBLIC "-//W3C//DTD SVG 20010904//EN"
 "http://www.w3.org/TR/2001/REC-SVG-20010904/DTD/svg10.dtd">
<svg version="1.0" xmlns="http://www.w3.org/2000/svg"
 width="408.000000pt" height="110.000000pt" viewBox="0 0 408.000000 110.000000"
 preserveAspectRatio="xMidYMid meet">

<g transform="translate(0.000000,110.000000) scale(0.100000,-0.100000)"
fill="#000000" stroke="none">
<path d="M3105 1059 c-16 -5 -44 -6 -61 -3 -36 7 -57 -13 -22 -20 13 -3 82
-14 153 -26 310 -50 508 -114 589 -192 48 -47 49 -47 44 -100 -5 -49 -10 -56
-64 -108 -91 -85 -242 -155 -538 -249 -72 -23 -137 -47 -145 -55 -9 -7 -42
-18 -74 -25 -32 -7 -56 -15 -54 -18 3 -3 29 0 59 6 29 6 103 20 163 32 189 35
408 92 500 128 196 78 273 120 339 185 54 52 93 125 58 107 -9 -4 -29 -11 -43
-14 -25 -6 -26 -5 -25 38 1 38 -4 50 -34 79 -19 20 -74 55 -123 80 -48 24 -84
46 -80 48 5 3 2 3 -5 1 -7 -1 -29 4 -48 12 -19 8 -34 11 -34 7 0 -3 -5 -1 -12
6 -7 7 -18 12 -26 12 -8 0 -28 6 -45 14 -18 8 -122 24 -232 36 -110 12 -202
23 -205 25 -3 1 -18 -2 -35 -6z"/>
<path d="M1704 1013 c-4 -26 -4 -108 0 -182 6 -144 36 -504 41 -509 8 -8 212
-8 227 -1 9 5 82 96 161 202 262 347 330 435 389 501 10 10 15 23 12 28 -6 10
-215 11 -229 0 -6 -4 -28 -29 -50 -57 -21 -27 -69 -81 -107 -120 -37 -38 -82
-92 -101 -119 -39 -59 -64 -77 -76 -58 -4 7 -11 70 -14 139 -4 69 -11 131 -16
137 -5 6 -11 27 -13 46 l-3 35 -107 3 -107 3 -7 -48z"/>
<path d="M27 969 c2 -13 12 -45 20 -71 l15 -48 89 0 c50 0 100 5 112 12 31 17
222 22 277 8 99 -26 93 -28 116 39 l21 61 -93 0 c-57 0 -95 -4 -100 -11 -9
-15 14 -28 51 -30 l30 -1 -35 -10 c-19 -5 -52 -14 -73 -20 -28 -9 -41 -8 -49
0 -7 7 -28 12 -48 13 -19 0 -44 4 -55 9 -16 7 -14 9 15 9 47 2 81 11 74 22 -3
5 1 10 8 11 14 2 -114 13 -279 24 l-102 6 6 -23z"/>
<path d="M1495 790 c-3 -5 -1 -10 4 -10 6 0 11 5 11 10 0 6 -2 10 -4 10 -3 0
-8 -4 -11 -10z"/>
<path d="M43 763 c-8 -6 -8 -21 1 -63 l12 -55 95 -2 c61 -1 87 1 74 7 -14 6 5
9 61 9 60 1 85 5 94 16 15 18 47 20 52 3 2 -6 30 -13 62 -16 37 -3 53 -8 44
-13 -9 -6 -7 -9 9 -9 16 0 25 10 37 47 9 26 16 50 16 55 0 9 -101 11 -124 2
-21 -8 -20 -24 2 -24 9 0 24 -5 32 -10 10 -7 -28 -10 -115 -9 -82 0 -123 4
-110 9 11 5 37 9 59 9 31 1 36 4 27 14 -7 9 -46 16 -113 20 -57 4 -125 9 -153
12 -27 3 -55 2 -62 -2z"/>
<path d="M3588 717 c-14 -6 -32 -20 -38 -32 -12 -22 -107 -90 -175 -123 -22
-11 -48 -30 -57 -41 -17 -20 -17 -21 1 -21 30 0 131 38 196 75 73 40 125 95
125 130 0 27 -10 29 -52 12z"/>
<path d="M89 553 l-67 -4 17 -67 17 -67 93 -3 c62 -2 91 1 86 8 -4 6 16 10 57
10 35 0 70 5 78 10 11 7 11 10 2 10 -7 0 -10 5 -7 10 4 6 -19 10 -62 11 -73 0
-65 11 19 23 75 11 65 23 -25 30 -99 9 -129 15 -121 27 3 5 -1 8 -8 7 -7 -1
-43 -3 -79 -5z"/>
<path d="M435 521 l-40 -7 39 -19 39 -20 -39 -5 c-51 -7 -54 -34 -4 -38 19 -2
41 -9 49 -15 12 -9 13 -9 7 1 -4 6 -3 12 1 12 10 0 33 58 33 83 0 18 -14 19
-85 8z"/>
<path d="M3940 450 c-9 -6 -10 -10 -3 -10 6 0 15 5 18 10 8 12 4 12 -15 0z"/>
<path d="M3875 421 c-22 -11 -37 -20 -34 -20 10 -1 79 29 79 34 0 7 0 7 -45
-14z"/>
<path d="M2463 293 c9 -2 25 -2 35 0 9 3 1 5 -18 5 -19 0 -27 -2 -17 -5z"/>
<path d="M3240 253 c-30 -8 -58 -20 -62 -26 -15 -25 12 -28 86 -12 62 14 76
20 76 36 0 23 -22 23 -100 2z"/>
<path d="M2873 253 c9 -2 25 -2 35 0 9 3 1 5 -18 5 -19 0 -27 -2 -17 -5z"/>
<path d="M2770 165 c-49 -9 -55 -13 -58 -36 l-3 -26 83 13 c46 8 84 14 86 14
1 0 2 11 2 25 0 28 -10 29 -110 10z"/>
</g>
</svg>
