<?xml version="1.0" standalone="no"?>
<!DOCTYPE svg PUBLIC "-//W3C//DTD SVG 20010904//EN"
 "http://www.w3.org/TR/2001/REC-SVG-20010904/DTD/svg10.dtd">
<svg version="1.0" xmlns="http://www.w3.org/2000/svg"
 width="1227.000000pt" height="340.000000pt" viewBox="0 0 1227.000000 340.000000"
 preserveAspectRatio="xMidYMid meet">

<g transform="translate(0.000000,340.000000) scale(0.100000,-0.100000)"
fill="#000000" stroke="none">
<path d="M1346 1653 c-3 -16 -10 -64 -16 -108 -6 -44 -28 -208 -50 -365 -22
-157 -51 -375 -65 -485 -14 -110 -28 -215 -31 -232 l-6 -33 149 0 150 0 7 52
c6 48 19 165 75 646 10 90 21 165 23 168 3 2 10 -6 16 -19 23 -45 322 -605
385 -722 l64 -120 135 -3 135 -3 11 108 c6 60 34 308 61 553 27 245 53 478 57
518 l7 72 -126 0 -126 0 -6 -32 c-7 -43 -75 -661 -75 -684 0 -11 -3 -14 -9 -8
-5 5 -96 170 -201 367 l-193 357 -183 0 -182 0 -6 -27z"/>
<path d="M2550 1665 c0 -9 33 -139 73 -288 41 -150 114 -424 163 -609 l89
-338 171 0 171 0 76 158 c142 295 249 517 277 577 15 33 76 159 134 279 58
120 106 223 106 227 0 5 -72 9 -160 9 l-161 0 -30 -67 c-37 -81 -232 -533
-297 -685 -25 -60 -48 -108 -51 -108 -3 0 -19 57 -35 128 -16 70 -62 262 -101
427 l-72 300 -177 3 c-155 2 -176 1 -176 -13z"/>
<path d="M4011 1638 c-10 -24 -64 -142 -119 -263 -299 -659 -415 -911 -423
-920 -21 -22 0 -25 153 -23 l162 3 32 75 c18 41 46 110 64 153 l32 77 243 0
c219 0 243 -2 249 -17 4 -9 27 -79 52 -155 l45 -138 160 0 c87 0 159 3 159 7
0 7 -111 368 -140 453 -22 65 -83 260 -175 559 -36 118 -68 218 -71 223 -3 4
-95 8 -205 8 l-200 0 -18 -42z m247 -448 c33 -102 62 -195 66 -207 l7 -23
-156 0 c-122 0 -156 3 -152 13 86 216 172 418 174 411 1 -5 29 -92 61 -194z"/>
</g>
</svg>
