<?xml version="1.0" standalone="no"?>
<!DOCTYPE svg PUBLIC "-//W3C//DTD SVG 20010904//EN"
 "http://www.w3.org/TR/2001/REC-SVG-20010904/DTD/svg10.dtd">
<svg version="1.0" xmlns="http://www.w3.org/2000/svg"
 width="828.000000pt" height="776.000000pt" viewBox="0 0 828.000000 776.000000"
 preserveAspectRatio="xMidYMid meet">

<g transform="translate(0.000000,776.000000) scale(0.100000,-0.100000)"
fill="#000000" stroke="none">
<path d="M4725 7720 c-3 -5 -19 -10 -36 -10 -17 0 -36 -8 -46 -20 -19 -21 -58
-27 -68 -10 -4 6 -15 8 -26 5 -11 -4 -44 -1 -75 6 -49 11 -62 10 -112 -6 -32
-10 -62 -23 -69 -27 -6 -5 -28 -8 -50 -7 -42 3 -104 -23 -143 -58 -14 -13 -30
-23 -37 -23 -7 0 -16 -6 -20 -13 -10 -16 -54 -34 -106 -43 -27 -5 -42 -14 -49
-30 -6 -13 -19 -26 -30 -29 -10 -4 -18 -14 -18 -24 0 -9 -20 -32 -45 -51 -25
-19 -45 -41 -45 -49 0 -27 -31 -105 -49 -126 -41 -47 -81 -150 -96 -250 -2
-11 -4 -20 -5 -20 -1 0 -4 -40 -6 -90 -2 -49 -9 -135 -14 -190 -5 -55 -12
-158 -15 -230 -4 -71 -13 -168 -20 -215 -41 -249 -44 -264 -75 -306 -16 -23
-30 -51 -30 -62 0 -35 -20 -75 -54 -112 -18 -19 -41 -46 -50 -60 l-17 -25 6
25 c6 24 5 25 -52 25 -32 0 -66 4 -75 9 -13 6 -21 -2 -37 -36 -11 -24 -33 -58
-50 -75 -30 -32 -49 -44 -36 -23 3 6 1 10 -4 10 -6 0 -11 -4 -11 -9 0 -5 -12
-11 -27 -13 -24 -3 -30 -11 -49 -73 -11 -39 -41 -104 -65 -144 -24 -41 -43
-79 -41 -84 2 -6 -23 -38 -55 -71 -92 -95 -225 -246 -218 -246 3 0 16 5 28 11
25 13 -86 -91 -115 -107 -27 -15 -54 -64 -105 -189 -64 -158 -115 -305 -172
-500 -27 -93 -66 -219 -85 -279 -19 -61 -32 -114 -29 -119 3 -5 25 -6 49 -2
54 8 116 -3 107 -19 -4 -6 0 -6 9 2 12 9 65 12 205 12 l189 -2 12 -111 c7 -62
17 -125 22 -142 8 -28 29 -153 31 -185 0 -8 5 -26 10 -40 5 -14 11 -45 13 -70
8 -73 24 -195 35 -257 6 -32 15 -94 21 -138 5 -44 16 -112 23 -151 7 -39 10
-79 6 -90 -4 -11 -1 -28 7 -41 13 -21 13 -23 -7 -23 -18 0 -19 -2 -9 -15 7 -8
16 -13 20 -10 10 6 11 1 55 -275 20 -124 47 -290 61 -369 29 -172 28 -163 7
-159 -10 2 -26 -5 -35 -15 -9 -10 -22 -16 -28 -12 -20 12 -68 -49 -61 -78 1
-5 -4 -5 -10 -2 -6 4 -9 15 -6 25 5 20 -27 80 -43 80 -5 0 -10 -4 -10 -10 0
-5 4 -10 10 -10 5 0 7 -6 4 -13 -3 -8 2 -19 10 -26 12 -11 12 -17 -7 -52 -15
-28 -23 -36 -30 -27 -7 10 -10 10 -14 1 -5 -14 -33 -18 -33 -5 0 14 -127 142
-133 135 -4 -3 -7 -2 -7 4 0 6 7 13 15 17 8 3 15 10 15 16 0 7 -6 8 -16 2 -9
-5 -32 -6 -50 -2 -19 4 -32 4 -29 0 7 -11 -132 -17 -190 -8 -20 4 -34 0 -42
-11 -11 -14 -12 -14 -13 2 0 10 -5 15 -11 12 -5 -4 -8 -12 -6 -18 2 -6 -3 -19
-11 -28 -18 -20 -25 -69 -11 -69 5 0 36 14 69 30 74 37 122 39 155 5 23 -22
25 -32 25 -108 0 -71 -7 -107 -41 -218 -34 -111 -163 -454 -175 -468 -15 -17
-8 20 21 109 83 252 127 403 144 484 9 48 20 84 23 80 4 -3 4 4 1 17 -4 15 -3
20 5 15 15 -9 16 23 2 44 -9 13 -10 13 -10 0 -1 -8 -6 -4 -11 9 -9 22 -13 23
-69 18 -41 -3 -68 -12 -90 -28 -80 -63 -155 -125 -158 -131 -2 -5 -9 -8 -16
-8 -17 0 -271 -268 -268 -282 1 -5 -2 -8 -7 -8 -13 0 -136 -149 -246 -295 -64
-85 -91 -115 -93 -102 -4 17 -6 17 -28 -4 -13 -12 -24 -26 -24 -31 0 -18 -53
-88 -67 -88 -25 0 -388 -123 -375 -128 10 -3 142 36 197 59 11 5 33 11 49 13
16 3 34 10 40 16 5 5 17 10 25 10 30 0 -12 -26 -69 -44 -96 -30 -214 -77 -229
-91 -12 -12 -9 -12 25 -2 21 6 42 15 45 20 9 13 210 78 233 75 12 -1 27 1 33
5 24 15 13 -3 -46 -78 -33 -41 -68 -88 -77 -105 -10 -16 -21 -30 -25 -30 -4 0
-10 -8 -13 -17 -12 -31 44 28 80 84 36 55 65 84 44 42 -11 -21 -78 -140 -167
-299 -49 -86 -5 -24 75 105 44 72 88 139 98 149 10 11 44 55 77 98 32 43 64
78 71 78 8 0 33 9 57 19 24 11 100 31 169 46 69 15 134 31 145 35 25 11 225
44 230 38 3 -2 0 -20 -6 -39 -8 -30 -38 -179 -94 -479 -8 -47 -20 -104 -25
-128 -8 -34 -7 -46 4 -58 22 -22 46 -17 46 9 0 34 30 142 40 145 5 2 7 9 4 16
-3 7 0 23 5 37 5 13 10 18 10 10 1 -7 7 -11 16 -7 19 7 20 14 -10 -96 -14 -51
-25 -100 -25 -108 0 -14 34 -16 259 -18 222 -2 261 -1 274 13 18 18 54 20 59
4 3 -9 9 -9 25 -1 14 8 92 11 230 10 116 0 215 2 222 6 21 13 560 9 646 -5 89
-15 110 -15 276 -4 79 5 142 4 195 -4 68 -11 92 -10 169 4 66 13 130 16 245
14 118 -2 174 1 233 14 89 19 230 22 326 6 75 -12 155 3 264 49 77 33 86 40
69 51 -7 4 -48 89 -91 188 -44 99 -91 203 -105 231 -31 62 -32 66 -5 103 11
16 17 29 13 29 -4 0 6 13 24 28 26 24 78 119 121 225 8 21 17 28 34 25 20 -3
22 -9 25 -83 3 -80 18 -115 49 -115 19 0 53 -61 47 -85 -6 -24 14 -52 41 -57
18 -3 20 3 23 52 1 30 4 64 7 76 5 22 74 74 98 74 7 0 45 24 83 53 53 41 70
60 72 82 4 28 4 28 -55 -21 -112 -95 -213 -166 -242 -170 -14 -3 -41 18 -41
31 0 4 7 5 15 2 8 -4 17 -2 19 2 3 5 16 6 28 4 27 -5 70 25 222 156 92 79 102
90 135 165 19 45 88 188 153 318 65 130 115 243 112 251 -4 11 -13 12 -48 3
-24 -6 -51 -17 -60 -25 -10 -9 -16 -10 -16 -2 0 6 -5 11 -11 11 -6 0 -9 -6 -7
-12 3 -7 -14 -28 -36 -46 -23 -19 -46 -44 -53 -56 -8 -14 -12 -16 -13 -6 0 9
-3 11 -8 5 -4 -5 -16 -10 -27 -10 -14 0 -24 -11 -32 -35 -7 -19 -12 -27 -12
-17 -1 13 -6 17 -20 12 -13 -4 -24 1 -34 15 -7 11 -16 17 -19 14 -7 -6 -20 29
-23 61 -4 31 -3 30 -30 59 -21 22 -23 31 -14 49 10 21 10 21 -5 3 -9 -11 -16
-25 -16 -31 0 -5 -18 -11 -40 -11 -22 -1 -40 2 -40 7 0 5 -9 9 -20 9 -11 0
-23 6 -26 14 -7 19 -124 22 -124 3 0 -15 -35 -59 -44 -56 -19 5 -66 -13 -66
-26 0 -8 -5 -15 -11 -15 -11 0 -20 -7 -99 -79 -37 -34 -42 -43 -30 -51 12 -8
13 -11 1 -19 -11 -7 -11 -9 0 -14 12 -5 12 -6 0 -6 -16 -1 -51 37 -51 56 0 7
-4 13 -10 13 -5 0 -10 -7 -10 -15 0 -8 5 -15 10 -15 6 0 10 -7 10 -15 0 -8 -4
-15 -10 -15 -5 0 -10 -9 -10 -20 0 -11 -5 -20 -11 -20 -6 0 -9 -7 -6 -15 4 -8
2 -17 -4 -21 -6 -3 -8 -12 -5 -20 11 -28 -4 -13 -22 21 l-18 36 -21 -20 -21
-20 -11 30 c-7 21 -7 37 0 50 6 13 6 19 -1 19 -5 0 -10 5 -10 11 0 5 5 7 11 3
8 -4 8 0 0 15 -8 14 -8 21 -1 21 5 0 10 5 10 11 0 5 -4 7 -10 4 -5 -3 -11 -3
-11 2 -1 4 -3 17 -5 28 -6 37 -6 60 0 142 6 82 0 97 -24 68 -11 -14 -7 -19 13
-16 4 0 7 -4 7 -9 0 -6 -7 -10 -16 -10 -12 0 -15 -6 -10 -26 9 -35 -10 -22
-29 19 -10 20 -14 24 -11 10 2 -12 -2 -24 -9 -27 -9 -3 -12 2 -10 15 4 21 -20
27 -29 7 -3 -7 -5 -2 -3 13 2 14 -3 31 -11 38 -12 12 -13 47 -8 210 9 286 17
425 26 436 11 14 26 263 21 362 -3 75 -1 87 23 128 15 25 30 45 34 45 4 0 23
15 43 33 20 17 48 41 62 52 24 18 29 35 52 165 14 80 26 152 27 160 0 8 5 38
10 65 5 28 11 64 13 80 6 43 25 186 25 190 0 7 637 6 654 -1 9 -3 16 -15 16
-26 0 -19 1 -20 23 -4 12 9 45 27 73 41 77 36 187 107 244 159 8 7 27 16 41
19 15 4 58 31 95 62 38 30 89 66 114 81 125 74 141 90 191 183 39 72 45 90 33
95 -22 8 -13 50 11 54 56 9 175 80 255 153 89 80 217 179 232 179 4 0 42 20
82 45 41 25 78 45 81 45 4 0 20 10 37 21 17 12 85 41 152 64 161 56 185 68
224 107 57 56 80 102 91 180 5 40 9 74 7 75 -2 2 -45 -2 -97 -8 -52 -7 -119
-13 -149 -14 -30 -2 -81 -8 -113 -14 -62 -11 -90 -5 -101 24 -3 9 -1 25 4 36
12 22 105 83 170 112 25 11 61 35 80 52 19 18 76 70 125 115 210 193 232 217
238 265 4 24 2 57 -4 74 -17 49 -62 43 -167 -22 -48 -29 -113 -68 -145 -86
-55 -31 -59 -32 -82 -17 -32 21 -32 51 2 79 14 12 73 63 129 114 57 51 117 99
133 108 29 14 31 20 31 68 0 28 5 79 10 112 6 35 6 63 1 68 -17 17 -76 -13
-171 -88 -52 -41 -109 -82 -126 -90 -17 -8 -37 -22 -44 -30 -40 -48 -90 -37
-90 19 0 18 6 51 14 72 7 22 11 44 9 51 -2 6 10 46 26 88 21 53 31 94 31 131
0 50 -3 58 -41 99 -37 40 -46 45 -85 45 -30 0 -44 -4 -44 -13 0 -8 -14 -34
-32 -58 -17 -23 -42 -70 -54 -102 -27 -69 -40 -87 -63 -87 -9 0 -46 -44 -88
-108 -86 -128 -125 -172 -152 -172 -36 0 -49 34 -43 110 3 43 1 70 -5 70 -6 0
-24 22 -41 49 -25 41 -37 51 -68 57 -35 6 -40 4 -70 -32 -19 -21 -47 -68 -65
-104 -17 -36 -37 -72 -44 -80 -7 -8 -15 -27 -19 -42 -3 -14 -51 -74 -106 -132
-55 -59 -100 -113 -100 -121 0 -8 -20 -39 -45 -69 -36 -44 -45 -64 -45 -93 0
-21 -8 -52 -18 -69 -47 -85 -94 -187 -118 -258 -24 -70 -38 -90 -121 -182
-109 -120 -126 -134 -171 -134 -27 0 -45 -12 -109 -75 -41 -41 -82 -75 -90
-75 -8 0 -26 -9 -40 -20 -14 -11 -32 -20 -40 -20 -24 0 -71 -29 -165 -101 -50
-38 -99 -69 -109 -69 -10 0 -24 -8 -31 -19 -7 -10 -35 -30 -63 -44 -27 -14
-77 -53 -109 -87 -67 -69 -81 -78 -203 -122 -48 -17 -94 -37 -101 -44 -6 -7
-22 -16 -35 -19 -27 -9 -87 -64 -87 -81 0 -7 -13 -24 -30 -37 -16 -14 -30 -29
-30 -33 0 -15 -54 -64 -70 -64 -8 0 -31 13 -50 29 -19 15 -50 36 -69 46 -55
28 -142 116 -163 165 -28 64 -43 212 -27 267 6 24 18 43 25 43 8 0 14 5 14 11
0 8 11 9 33 5 113 -25 187 -33 197 -21 5 6 28 18 51 25 22 8 46 22 53 32 7 10
15 15 19 12 3 -3 15 12 26 34 11 22 24 42 28 44 27 12 95 191 86 227 -3 12 1
29 9 39 9 9 34 66 57 127 24 60 48 116 54 123 8 11 25 13 65 8 52 -6 88 4 104
28 13 19 9 56 -7 62 -22 9 -39 44 -27 56 6 6 6 24 1 49 -5 22 -6 45 -2 52 4 6
6 47 4 92 -2 77 -1 82 29 118 18 20 35 35 40 32 5 -3 11 -1 15 5 3 5 14 10 23
10 23 1 53 43 42 60 -5 8 -6 35 -3 61 7 58 -1 86 -21 70 -12 -10 -64 -8 -123
5 -36 7 -51 48 -55 153 -1 28 -5 51 -8 51 -12 0 -31 88 -25 120 8 45 12 50 40
50 12 0 26 8 29 17 5 12 9 14 18 5 9 -9 16 -8 29 4 22 20 48 7 80 -38 16 -22
19 -33 11 -36 -10 -3 -10 -7 -2 -17 8 -10 19 -11 33 -6 27 11 37 11 63 1 17
-7 24 -4 33 16 9 20 18 24 55 24 25 0 48 5 51 10 4 6 36 29 71 51 35 23 64 46
64 53 0 7 16 18 35 25 19 7 35 15 35 19 0 6 16 28 60 79 13 16 13 100 0 105
-6 2 -16 36 -22 75 -5 40 -18 80 -27 90 -25 27 -71 110 -71 127 0 9 -4 16 -10
16 -5 0 -12 11 -16 24 -4 16 -15 26 -35 30 -16 3 -40 17 -53 31 -13 14 -33 25
-45 25 -11 0 -21 5 -21 10 0 6 -7 10 -15 10 -11 0 -15 12 -15 45 0 25 -3 45
-7 45 -13 0 -73 57 -73 68 0 6 -10 22 -23 35 -18 21 -24 22 -35 11 -19 -21
-62 -18 -62 4 0 9 -7 25 -15 36 -11 15 -22 17 -53 12 -31 -5 -43 -2 -57 14
-10 11 -23 20 -29 20 -6 0 -31 18 -55 40 -24 22 -46 40 -49 40 -3 0 -20 12
-39 26 -22 17 -47 26 -70 26 -36 0 -93 41 -93 67 0 6 -7 11 -16 11 -8 0 -22 7
-30 15 -17 17 -80 20 -89 5z m-364 -1286 c23 -38 41 -94 30 -94 -4 0 -20 28
-36 63 -16 34 -36 71 -45 82 -15 20 -15 20 8 1 12 -11 32 -34 43 -52z m-312
-77 c-5 -20 -12 -37 -15 -37 -6 0 5 59 13 73 11 18 12 -1 2 -36z m59 -128 c-6
-16 -13 -28 -15 -25 -8 8 6 56 17 56 5 0 5 -13 -2 -31z m25 -108 c-7 -9 -22
15 -28 44 -7 30 -7 30 12 -5 10 -19 18 -37 16 -39z m199 7 c-7 -7 -12 -8 -12
-2 0 14 12 26 19 19 2 -3 -1 -11 -7 -17z m-273 -30 c12 -21 20 -38 17 -38 -8
0 -46 62 -46 74 0 11 1 10 29 -36z m131 -19 c19 -44 8 -43 -16 1 -13 24 -17
37 -9 33 7 -2 19 -18 25 -34z m-74 -53 c3 -8 1 -23 -4 -32 -9 -16 -11 -15 -21
5 -12 22 -7 41 10 41 5 0 12 -6 15 -14z m833 -78 c5 -13 7 -26 4 -30 -2 -5 0
-8 5 -8 6 0 8 -9 5 -20 -3 -10 4 -35 16 -53 12 -19 21 -40 21 -46 0 -6 7 -28
15 -47 13 -32 16 -34 30 -21 8 9 15 20 15 25 0 5 9 17 20 27 11 10 20 24 20
32 0 23 18 14 24 -12 4 -14 11 -25 16 -25 15 0 12 -66 -3 -79 -8 -6 -17 -8
-20 -4 -4 3 -7 2 -7 -4 0 -6 -18 -22 -40 -37 -28 -18 -42 -37 -49 -63 -7 -23
-24 -48 -45 -65 l-34 -27 -6 30 c-3 19 0 38 9 52 9 15 11 27 5 37 -13 20 -13
67 0 75 16 10 11 21 -15 33 -30 14 -80 111 -65 126 5 5 10 31 10 56 0 25 5 51
12 58 19 19 48 14 57 -10z m211 -453 c14 -16 10 -18 -14 -9 -9 3 -16 10 -16
15 0 14 16 11 30 -6z m-196 -62 c-26 -19 -31 2 -8 29 18 19 19 19 23 2 2 -10
-5 -24 -15 -31z m-1324 -258 c19 -19 32 -35 29 -35 -3 0 -20 16 -39 35 -19 19
-32 35 -29 35 3 0 20 -16 39 -35z m-482 -7 c-2 -6 -10 -14 -16 -16 -7 -2 -10
2 -6 12 7 18 28 22 22 4z m553 -55 c13 -15 12 -15 -8 -4 -24 12 -29 21 -14 21
5 0 15 -7 22 -17z m-186 -73 c-3 -5 2 -10 12 -11 10 0 13 -3 6 -5 -7 -3 -10
-11 -7 -18 3 -8 -4 -16 -15 -19 -18 -4 -19 -2 -11 14 6 10 10 22 9 26 -2 13 1
23 7 23 3 0 2 -4 -1 -10z m340 -70 c57 -58 58 -60 41 -79 -10 -11 -23 -18 -27
-15 -5 3 -9 -2 -9 -11 0 -9 -4 -14 -8 -11 -5 3 -9 -1 -9 -9 0 -8 6 -15 14 -15
11 0 11 -5 3 -20 -9 -17 -8 -20 10 -20 13 0 28 -13 41 -35 21 -35 36 -47 26
-21 -4 10 -1 13 9 9 18 -7 18 -18 -2 -37 -8 -9 -12 -21 -9 -26 4 -7 13 -4 23
8 14 16 20 17 29 7 6 -7 10 -15 7 -18 -3 -2 15 -28 40 -57 25 -29 44 -55 44
-59 -4 -13 14 -51 23 -51 6 0 7 -9 4 -21 -5 -15 -4 -19 4 -15 6 4 11 0 11 -9
0 -9 5 -13 10 -10 6 3 10 0 10 -7 0 -8 9 -14 21 -15 12 -1 26 -8 32 -16 7 -8
28 -23 47 -33 44 -24 60 -39 60 -56 0 -15 19 -38 32 -38 4 0 5 15 3 34 -3 21
1 38 9 45 27 23 -52 144 -116 175 -20 10 -28 11 -32 2 -3 -7 -8 -6 -15 4 -6 8
-6 16 -1 18 13 5 -18 72 -48 107 l-27 30 34 -30 c80 -72 520 -579 521 -600 0
-13 -119 -83 -145 -85 -11 -1 -39 -2 -63 -1 -39 1 -45 5 -75 48 -17 25 -44 60
-59 77 -30 33 -35 52 -16 58 16 6 -36 77 -61 85 -53 17 -70 27 -80 51 -7 14
-21 32 -32 40 -10 7 -19 20 -19 28 0 10 -8 14 -26 11 -19 -2 -37 7 -66 34 -22
20 -38 41 -35 47 4 5 -9 23 -28 41 -25 23 -43 31 -65 29 -35 -3 -37 -12 -11
-53 18 -28 271 -286 415 -422 36 -35 66 -71 66 -81 0 -9 -11 -24 -24 -32 -13
-8 -51 -40 -84 -72 -72 -67 -109 -79 -152 -48 -17 12 -37 35 -45 51 -18 34
-22 35 -46 13 -17 -16 -22 -13 -80 50 -67 72 -114 106 -148 106 -26 0 -92 32
-110 54 -11 13 -11 20 1 38 9 13 16 28 18 33 1 6 6 17 11 26 9 18 -36 95 -81
138 -14 12 -25 30 -25 40 -1 9 -6 15 -12 14 -7 -2 -11 7 -10 18 1 15 6 19 22
15 11 -3 25 -6 31 -6 6 0 21 -9 33 -19 16 -14 18 -21 9 -24 -8 -3 -6 -6 5 -6
10 -1 15 -6 12 -12 -4 -6 -13 -8 -21 -5 -8 3 -11 0 -7 -10 4 -11 9 -12 16 -5
14 14 30 14 22 1 -4 -6 -3 -10 2 -9 22 4 43 -2 38 -11 -9 -15 2 -12 19 6 24
24 20 67 -10 95 -14 13 -34 38 -45 56 -12 19 -32 36 -47 39 -33 8 -112 53
-112 64 0 16 33 34 63 35 41 0 44 16 9 53 -26 28 -39 51 -56 104 -3 9 -28 27
-56 39 -29 12 -76 41 -105 63 -29 23 -62 47 -72 54 -16 12 -16 12 7 7 14 -4
41 -10 60 -14 50 -11 90 -34 130 -76 19 -20 53 -46 75 -57 38 -20 155 -134
212 -207 16 -21 28 -30 31 -22 2 7 -4 22 -14 33 -11 12 -14 18 -7 15 7 -5 11
-1 10 11 -1 13 -8 18 -24 16 -20 -2 -23 1 -17 18 4 15 3 18 -6 13 -9 -6 -11
-4 -5 5 6 10 4 12 -8 7 -13 -5 -22 4 -38 38 -19 41 -29 50 -51 46 -5 0 -8 7
-8 17 0 10 -5 23 -11 29 -27 27 30 147 61 128 5 -3 15 3 22 15 17 26 22 25 37
-7 12 -26 14 -27 26 -10 15 20 9 54 -13 80 -8 9 -11 17 -6 17 5 0 36 -27 69
-60z m-280 21 c-3 -5 9 -21 27 -34 l32 -26 -56 2 c-31 1 -60 6 -65 11 -4 4 6
19 22 32 30 24 51 32 40 15z m-313 -33 c-9 -9 -15 -9 -24 0 -9 9 -7 12 12 12
19 0 21 -3 12 -12z m1648 -35 c-11 -17 -11 -17 -6 0 3 10 6 24 7 30 0 9 2 9 5
0 3 -7 0 -20 -6 -30z m-1262 -31 c-2 -7 -7 -12 -12 -12 -5 1 -13 -4 -17 -12
-7 -10 -9 -10 -9 0 0 6 -3 11 -7 10 -12 -2 -43 13 -43 21 0 4 20 6 45 6 32 0
45 -4 43 -13z m317 -32 c10 -11 16 -20 13 -20 -3 0 -13 9 -23 20 -10 11 -16
20 -13 20 3 0 13 -9 23 -20z m80 -102 c-9 -24 -31 -29 -31 -8 0 12 6 16 16 12
10 -4 9 2 -6 19 -35 40 -39 56 -5 23 21 -19 30 -36 26 -46z m-552 -269 c32
-15 33 -20 6 -45 -20 -18 -21 -18 -52 17 -18 20 -39 38 -47 42 -8 3 3 4 25 2
22 -2 52 -9 68 -16z m50 -43 c4 -10 0 -12 -14 -9 -10 3 -16 9 -13 14 8 13 21
11 27 -5z m182 -85 c3 -5 2 -12 -3 -15 -5 -3 -9 1 -9 9 0 17 3 19 12 6z m115
-566 c-33 -19 -46 -19 -30 0 7 8 22 15 34 15 20 -1 20 -2 -4 -15z m-55 -45
c278 0 385 -4 372 -11 -17 -10 -16 -12 8 -35 16 -15 23 -29 19 -37 -5 -8 -2
-8 9 2 9 7 17 20 17 27 0 8 4 14 9 14 5 0 11 7 14 14 4 11 1 13 -11 9 -12 -4
-14 -3 -7 5 14 15 143 18 157 4 16 -16 29 -15 23 1 -7 18 253 10 272 -8 9 -10
13 -50 13 -149 0 -122 -8 -164 -25 -136 -4 6 -11 5 -19 -3 -8 -6 -12 -16 -9
-21 3 -4 9 -2 14 5 6 10 9 10 9 2 0 -7 7 -10 15 -7 12 5 15 -4 15 -49 0 -43
-9 -77 -41 -151 -23 -53 -44 -96 -48 -96 -4 0 -7 -10 -8 -21 -3 -31 -85 -229
-96 -229 -4 0 -6 -4 -3 -9 6 -9 1 -22 -44 -126 l-22 -50 -14 30 -14 30 6 -42
c5 -37 3 -43 -12 -43 -13 0 -15 -3 -7 -11 9 -9 8 -15 -3 -26 -9 -9 -12 -23 -8
-35 4 -12 -8 -54 -31 -108 -29 -69 -41 -87 -54 -83 -13 4 -13 3 -2 -5 13 -9
12 -16 -4 -51 -10 -22 -21 -39 -25 -36 -4 2 -7 -8 -7 -23 0 -38 -93 -243 -106
-235 -6 4 -8 0 -4 -10 5 -15 -30 -112 -121 -332 -21 -51 -34 -69 -46 -67 -18
3 -22 -14 -5 -20 7 -2 7 -12 -2 -30 -6 -15 -16 -25 -20 -22 -5 3 -6 -1 -3 -9
3 -8 -5 -18 -20 -25 -18 -8 -24 -16 -19 -28 6 -15 8 -15 21 2 8 10 12 12 8 4
-3 -8 -9 -23 -12 -32 -4 -10 -13 -18 -20 -18 -8 0 -14 -6 -15 -12 0 -10 -2
-10 -6 0 -6 14 -33 16 -33 2 0 -5 5 -10 10 -10 6 0 5 -8 -2 -20 -7 -10 -9 -23
-5 -27 5 -4 12 -2 16 6 6 10 10 9 15 -4 3 -9 -1 -26 -10 -38 -11 -14 -14 -16
-11 -5 3 9 0 19 -8 22 -9 3 -12 0 -8 -10 3 -7 0 -14 -6 -14 -11 0 -15 13 -12
38 3 17 -16 15 -23 -3 -3 -9 -14 -15 -23 -13 -26 4 -22 -24 5 -38 21 -10 21
-12 5 -18 -10 -4 -19 -4 -20 1 -12 34 -22 37 -42 12 -23 -27 -23 -54 -1 -54 8
0 20 -4 25 -8 6 -4 19 -15 30 -23 19 -15 19 -15 -7 -10 -15 4 -30 1 -34 -5 -5
-9 -11 -6 -21 6 -7 11 -13 14 -13 9 0 -6 6 -16 13 -23 10 -10 9 -11 -5 -6 -11
4 -18 2 -18 -4 0 -6 -5 -11 -11 -11 -6 0 -9 6 -6 14 3 8 -1 17 -10 20 -21 8
-30 -1 -15 -16 7 -7 12 -17 12 -22 0 -6 -5 -4 -10 4 -5 8 -10 10 -10 4 0 -11
-21 -21 -63 -30 -10 -2 -16 0 -13 5 7 11 -18 33 -28 24 -4 -4 -9 3 -13 15 -3
12 -11 22 -19 22 -8 0 -11 -6 -8 -15 7 -16 -14 -48 -26 -40 -12 7 -33 -42 -27
-64 7 -29 -9 -17 -27 20 -9 18 -13 42 -9 59 5 26 -22 82 -49 101 -12 8 23 90
35 82 6 -3 7 -2 4 4 -9 14 14 83 26 76 6 -3 7 -2 4 4 -8 13 23 93 35 93 5 0 7
4 4 9 -6 9 192 500 212 523 6 8 9 17 6 20 -8 8 17 88 28 88 4 0 8 6 8 13 0 7
8 22 18 33 9 11 18 26 20 34 3 15 34 96 52 135 5 11 21 56 36 100 24 75 108
287 152 386 10 24 37 89 58 144 21 55 41 102 45 105 8 6 69 149 69 161 0 5
-117 9 -268 9 -201 0 -271 3 -281 13 -8 6 -11 7 -8 1 4 -8 -15 -12 -62 -13
-67 -2 -69 -1 -64 20 4 15 3 20 -5 15 -7 -4 -12 -14 -12 -22 0 -12 -14 -14
-72 -12 l-73 3 0 203 c0 216 3 229 50 217 11 -2 196 -5 410 -5z m1232 -1042
c-1 -40 -3 -10 -3 67 0 77 1 110 3 73 2 -37 2 -100 0 -140z m-183 -15 c-5 -65
-10 -99 -12 -75 -2 29 -8 42 -18 42 -8 0 -12 5 -9 10 4 6 11 8 16 5 5 -4 9 6
9 20 0 14 -4 24 -8 21 -4 -2 -7 5 -6 17 1 25 26 88 32 82 2 -2 0 -57 -4 -122z
m-72 13 c-2 -9 3 -25 10 -33 10 -13 10 -17 0 -21 -7 -2 -19 -10 -26 -18 -8 -8
-19 -14 -25 -14 -14 0 -29 32 -23 49 3 8 0 11 -7 7 -22 -14 -10 9 17 31 31 26
58 26 54 -1z m65 -158 c-3 -8 -6 -5 -6 6 -1 11 2 17 5 13 3 -3 4 -12 1 -19z
m-212 -45 c3 -13 2 -23 -3 -23 -11 0 -22 24 -22 48 0 21 15 5 25 -25z m156
-759 c10 -9 15 -23 11 -32 -5 -14 -7 -12 -12 8 -6 27 -35 31 -82 12 -16 -7
-38 -16 -50 -21 -26 -10 -126 -84 -179 -133 -19 -18 -26 -26 -15 -18 21 15 21
15 2 -7 -10 -12 -21 -21 -25 -21 -10 3 -173 -161 -247 -248 -65 -75 -105 -127
-285 -361 -38 -51 -74 -93 -79 -93 -19 0 206 306 357 486 214 253 448 444 547
444 22 0 47 -7 57 -16z m329 -97 c-4 -21 -11 -41 -14 -44 -10 -10 -35 18 -33
37 1 14 4 16 14 8 7 -6 14 -7 15 -2 0 5 2 14 3 19 2 6 3 17 4 25 1 9 4 11 11
4 5 -5 6 -24 0 -47z m-292 -7 c-2 -15 -7 -17 -18 -10 -12 8 -12 12 -2 18 7 5
12 13 11 18 -1 5 0 14 1 19 4 17 12 -24 8 -45z m860 6 c3 -16 -188 -387 -250
-485 -15 -25 -28 -53 -28 -62 0 -10 -6 -24 -13 -31 -7 -7 -24 -32 -38 -56 -14
-23 -28 -39 -32 -36 -5 6 -32 -10 -205 -124 -29 -19 -55 -32 -59 -29 -3 3 8
14 24 24 16 10 79 54 140 97 l112 80 32 83 c17 45 40 90 50 99 10 9 24 33 30
53 12 38 154 323 189 379 21 35 43 38 48 8z m-2599 -20 c16 -19 -4 -100 -21
-90 -7 4 -8 3 -4 -4 9 -15 -28 -86 -99 -191 -31 -46 -67 -105 -80 -130 -13
-25 -39 -61 -59 -80 -19 -19 -33 -37 -31 -41 2 -4 -7 -12 -20 -18 -20 -9 -25
-9 -25 3 0 7 4 17 10 20 17 11 149 201 199 288 44 76 111 210 111 222 0 43
-162 -184 -237 -332 -34 -68 -60 -123 -57 -123 2 0 -3 -14 -11 -31 -10 -18
-22 -28 -29 -26 -15 6 -86 -143 -86 -180 0 -27 -18 -40 -26 -18 -22 55 291
626 390 713 40 35 58 39 75 18z m1731 -50 c0 -49 -157 -530 -191 -584 -14 -22
-29 -29 -29 -14 0 4 15 52 34 107 41 121 133 418 142 460 12 53 44 76 44 31z
m395 -176 c3 -6 -1 -7 -9 -4 -18 7 -21 14 -7 14 6 0 13 -4 16 -10z m-3011
-190 c8 -130 6 -147 -47 -317 -41 -134 -50 -147 -86 -124 -10 7 -12 28 -6 102
12 157 48 417 62 442 2 4 19 7 37 7 l33 0 7 -110z m3698 80 c4 -8 7 -30 7 -47
1 -18 5 -33 10 -33 4 0 11 -37 15 -83 7 -82 -5 -147 -26 -147 -5 0 -43 -22
-84 -50 -41 -27 -77 -50 -79 -50 -3 0 -5 12 -5 28 0 15 -4 33 -9 41 -14 22
-60 -17 -61 -51 0 -15 -5 -30 -11 -34 -7 -4 -10 8 -8 37 6 108 0 155 -26 183
-22 24 -53 37 -41 18 3 -5 -15 -26 -40 -46 -46 -38 -164 -181 -164 -198 0 -5
-4 -7 -9 -4 -4 3 -16 -3 -26 -14 -10 -11 -22 -20 -27 -20 -12 0 66 98 150 188
37 39 62 72 55 72 -15 0 -33 31 -33 57 0 11 11 34 25 53 15 20 25 47 25 67 0
24 5 33 18 34 50 4 262 14 297 14 26 0 42 -5 47 -15z m-2515 -17 c3 -7 -4 -9
-16 -6 -12 3 -18 9 -15 15 7 11 26 6 31 -9z m33 -46 c0 -8 -6 -7 -46 10 -6 2
-14 -3 -18 -12 -3 -9 -1 -15 7 -14 24 3 37 -1 37 -12 0 -6 -9 -8 -21 -4 -13 5
-19 3 -15 -3 3 -5 -5 -13 -18 -16 -17 -4 -26 -15 -29 -34 -3 -22 -4 -20 -6 11
0 20 2 36 7 36 26 -4 32 2 21 22 -9 17 -8 20 2 14 9 -6 11 -3 6 9 -4 9 -3 14
2 11 5 -3 12 -1 16 4 7 12 55 -7 55 -22z m367 -12 c2 -6 -6 -11 -17 -11 -11 0
-20 6 -20 14 0 15 32 13 37 -3z m-227 -34 c6 -11 6 -22 1 -25 -5 -3 -11 5 -13
19 -6 30 -2 32 12 6z m-152 -27 c8 -15 8 -21 -1 -21 -7 0 -13 11 -13 24 -2 27
-1 27 14 -3z m262 22 c0 -2 -7 -7 -16 -10 -8 -3 -12 -2 -9 4 6 10 25 14 25 6z
m-19 -74 c-7 -2 -18 1 -23 6 -8 8 -4 9 13 5 13 -4 18 -8 10 -11z m1362 -13 c3
-12 3 -19 0 -16 -13 14 -64 -19 -89 -56 -16 -23 -30 -44 -31 -46 -10 -15 -10
10 0 39 19 54 29 67 67 83 46 20 47 20 53 -4z m24 -64 c-3 -46 -15 -46 -14 0
1 19 5 35 9 35 4 0 7 -16 5 -35z m265 -133 c-13 -13 -26 -21 -29 -19 -2 3 6
27 19 53 l23 49 6 -30 c5 -24 1 -35 -19 -53z m-437 59 c8 -14 -12 -23 -36 -16
-17 6 -19 9 -8 16 18 11 36 11 44 0z m-161 -16 c-4 -8 -8 -15 -11 -15 -2 0
-11 7 -19 15 -14 13 -13 15 10 15 18 0 24 -4 20 -15z m81 5 c-26 -11 -35 -12
-35 -2 0 4 12 8 28 9 23 1 24 1 7 -7z m825 -5 c0 -8 -4 -15 -10 -15 -5 0 -10
7 -10 15 0 8 5 15 10 15 6 0 10 -7 10 -15z m-1065 -14 c-6 -5 -28 -11 -50 -15
-22 -3 -76 -11 -120 -19 -157 -28 -181 -30 -169 -18 10 11 55 21 214 46 106
16 137 18 125 6z m1075 -41 c0 -5 -4 -10 -10 -10 -5 0 -10 5 -10 10 0 6 5 10
10 10 6 0 10 -4 10 -10z m-1430 -20 c0 -5 -9 -10 -21 -10 -11 0 -17 5 -14 10
3 6 13 10 21 10 8 0 14 -4 14 -10z m760 0 c0 -5 -5 -10 -11 -10 -5 0 -7 5 -4
10 3 6 8 10 11 10 2 0 4 -4 4 -10z m-860 -30 c-30 -10 -64 -19 -76 -19 -11 -1
-46 -10 -77 -20 -57 -20 -69 -19 -61 4 3 7 22 13 45 13 35 1 70 9 133 31 10 4
35 8 55 8 34 1 32 0 -19 -17z m930 -40 c-32 -24 -42 -14 -11 11 13 11 27 17
30 14 3 -4 -5 -15 -19 -25z m-2507 -6 c-3 -8 -12 -13 -20 -10 -8 3 -22 6 -31
7 -10 1 -7 4 8 9 40 13 50 11 43 -6z m-117 -3 c-3 -5 -15 -7 -26 -4 -28 7 -25
13 6 13 14 0 23 -4 20 -9z m41 3 c-3 -3 -12 -4 -19 -1 -8 3 -5 6 6 6 11 1 17
-2 13 -5z m3273 -56 c-1 -58 -13 -51 -25 15 -6 30 -4 37 9 37 13 0 16 -11 16
-52z m-3525 32 c3 -5 -3 -10 -15 -10 -12 0 -18 5 -15 10 3 6 10 10 15 10 5 0
12 -4 15 -10z m1580 1 c-6 -5 -59 -26 -120 -46 -170 -58 -215 -76 -215 -86 0
-6 -4 -8 -9 -5 -4 3 -23 -6 -41 -19 -18 -13 -37 -22 -41 -19 -21 12 -6 36 34
54 72 33 198 80 215 80 9 0 46 11 82 25 66 25 112 32 95 16z m-1625 -11 c0 -5
-19 -9 -42 -9 l-43 2 35 7 c19 4 38 8 43 9 4 0 7 -3 7 -9z m2810 -4 c0 -2 -34
-29 -75 -60 -84 -65 -131 -115 -151 -160 l-13 -31 -1 30 c0 24 13 43 63 93 75
74 177 148 177 128z m-2992 -18 c-3 -7 -18 -14 -34 -15 l-29 -2 25 14 c31 18
43 19 38 3z m39 6 c-3 -3 -12 -4 -19 -1 -8 3 -5 6 6 6 11 1 17 -2 13 -5z
m3233 -24 c12 -23 12 -24 -3 -11 -10 7 -17 20 -17 29 0 18 3 16 20 -18z
m-3483 5 c8 -22 2 -26 -61 -32 -30 -3 -53 -9 -51 -13 2 -4 -8 -5 -23 -4 -15 2
-21 1 -14 -2 19 -9 14 -24 -9 -24 -13 0 -18 4 -13 11 5 8 -1 10 -20 7 -36 -7
-41 6 -16 42 21 29 23 30 111 30 72 0 91 -3 96 -15z m1988 -24 c-14 -29 -35
-49 -35 -36 0 13 34 65 42 65 5 0 2 -13 -7 -29z m-1900 9 c-3 -5 -10 -10 -16
-10 -5 0 -9 5 -9 10 0 6 7 10 16 10 8 0 12 -4 9 -10z m2675 -48 c0 -13 -12
-22 -22 -16 -10 6 -1 24 13 24 5 0 9 -4 9 -8z m430 -41 c-12 -30 -96 -113
-121 -120 -26 -7 -34 -6 -37 3 -2 5 13 15 33 22 46 15 81 48 107 97 22 45 37
43 18 -2z m-1937 -38 c-7 -2 -13 -11 -13 -19 0 -17 -135 -133 -210 -181 -30
-20 -63 -44 -73 -54 -10 -11 -22 -19 -27 -19 -21 0 -7 16 38 44 52 33 200 156
246 205 17 17 35 31 40 30 6 0 5 -3 -1 -6z m677 -6 c0 -8 -9 -22 -20 -32 -11
-10 -34 -47 -50 -82 -16 -34 -39 -72 -50 -83 -11 -11 -17 -20 -14 -20 3 0 -3
-12 -14 -27 -28 -41 -97 -156 -105 -176 -8 -22 -35 -33 -49 -19 -8 8 11 47 65
134 41 68 89 141 106 163 17 22 49 66 71 98 40 56 60 71 60 44z m-2289 -70
c-8 -8 -11 -7 -11 4 0 20 13 34 18 19 3 -7 -1 -17 -7 -23z m794 3 c-3 -5 -10
-10 -16 -10 -5 0 -9 5 -9 10 0 6 7 10 16 10 8 0 12 -4 9 -10z m2272 -6 c-3 -3
-12 -4 -19 -1 -8 3 -5 6 6 6 11 1 17 -2 13 -5z m-18 -81 c-38 -160 -67 -257
-77 -261 -20 -6 -25 45 -9 95 8 26 25 83 38 126 17 57 27 77 40 77 14 0 16 -5
8 -37z m-1944 -78 c6 -52 24 -83 33 -57 6 18 52 15 52 -3 0 -10 -10 -15 -31
-15 -63 0 -95 42 -83 106 9 47 20 34 29 -31z m2144 -37 c-9 -16 -14 -19 -17
-9 -2 7 2 17 9 22 20 13 21 11 8 -13z m-2001 -14 c-9 -10 -24 -14 -33 -10 -23
9 -9 26 23 26 24 0 25 -1 10 -16z m-508 -11 c-1 -19 -18 -33 -33 -27 -20 7
-22 20 -4 27 19 8 37 8 37 0z"/>
<path d="M3840 4900 c0 -5 5 -10 10 -10 6 0 10 5 10 10 0 6 -4 10 -10 10 -5 0
-10 -4 -10 -10z"/>
<path d="M3808 4797 c-17 -18 -24 -35 -21 -47 3 -11 0 -26 -6 -34 -9 -11 -5
-18 21 -34 18 -11 48 -23 66 -25 18 -3 41 -11 50 -18 14 -11 15 -11 5 0 -6 7
-9 20 -6 29 5 11 3 13 -7 7 -9 -5 -11 -4 -6 3 14 23 -6 34 -21 13 -8 -12 -19
-19 -24 -15 -6 4 -4 13 7 25 13 15 14 22 5 33 -7 8 -8 16 -2 18 5 1 3 9 -5 16
-12 11 -14 9 -14 -10 0 -23 0 -23 -13 2 -8 15 -9 28 -4 31 5 4 7 13 5 20 -3
10 -12 6 -30 -14z"/>
<path d="M3896 4742 c-3 -5 1 -9 9 -9 8 0 15 4 15 9 0 4 -4 8 -9 8 -6 0 -12
-4 -15 -8z"/>
<path d="M4350 4351 c0 -6 5 -13 11 -17 8 -4 7 -9 -2 -15 -10 -6 -11 -9 -1 -9
6 0 12 -8 12 -18 0 -10 7 -19 15 -19 18 0 20 28 3 46 -9 10 -9 12 -1 7 6 -3
14 -2 17 2 3 5 -6 14 -20 21 -30 13 -34 14 -34 2z"/>
<path d="M4380 3705 c0 -8 5 -15 10 -15 6 0 10 7 10 15 0 8 -4 15 -10 15 -5 0
-10 -7 -10 -15z"/>
<path d="M4660 3710 c0 -5 5 -10 10 -10 6 0 10 5 10 10 0 6 -4 10 -10 10 -5 0
-10 -4 -10 -10z"/>
<path d="M4140 3679 c0 -5 5 -7 10 -4 6 3 10 8 10 11 0 2 -4 4 -10 4 -5 0 -10
-5 -10 -11z"/>
<path d="M4350 3679 c0 -5 5 -7 10 -4 6 3 10 8 10 11 0 2 -4 4 -10 4 -5 0 -10
-5 -10 -11z"/>
<path d="M4380 3665 c0 -9 6 -12 15 -9 8 4 15 10 15 15 0 5 -7 9 -15 9 -8 0
-15 -7 -15 -15z"/>
<path d="M4072 3640 c7 -10 14 -18 15 -16 6 6 -9 36 -18 36 -5 0 -4 -9 3 -20z"/>
<path d="M4399 3623 c-13 -16 -12 -17 4 -4 16 13 21 21 13 21 -2 0 -10 -8 -17
-17z"/>
<path d="M3795 3590 c3 -5 8 -10 11 -10 2 0 4 5 4 10 0 6 -5 10 -11 10 -5 0
-7 -4 -4 -10z"/>
<path d="M3356 3565 c4 -8 11 -15 16 -15 6 0 5 6 -2 15 -7 8 -14 15 -16 15 -2
0 -1 -7 2 -15z"/>
<path d="M3415 3560 c3 -5 11 -10 16 -10 6 0 7 5 4 10 -3 6 -11 10 -16 10 -6
0 -7 -4 -4 -10z"/>
<path d="M3650 3480 c0 -5 5 -10 11 -10 5 0 7 5 4 10 -3 6 -8 10 -11 10 -2 0
-4 -4 -4 -10z"/>
<path d="M3491 3443 c0 -25 1 -26 9 -8 12 27 12 35 0 35 -5 0 -10 -12 -9 -27z"/>
<path d="M3376 3427 c3 -10 9 -15 12 -12 3 3 0 11 -7 18 -10 9 -11 8 -5 -6z"/>
<path d="M4610 3409 c0 -5 5 -7 10 -4 6 3 10 8 10 11 0 2 -4 4 -10 4 -5 0 -10
-5 -10 -11z"/>
<path d="M4210 3381 c0 -5 7 -11 15 -15 9 -3 15 0 15 9 0 8 -7 15 -15 15 -8 0
-15 -4 -15 -9z"/>
<path d="M4305 3380 c4 -6 11 -8 16 -5 14 9 11 15 -7 15 -8 0 -12 -5 -9 -10z"/>
<path d="M4200 3340 c0 -5 7 -10 16 -10 8 0 12 5 9 10 -3 6 -10 10 -16 10 -5
0 -9 -4 -9 -10z"/>
<path d="M4545 3330 c3 -5 8 -10 11 -10 2 0 4 5 4 10 0 6 -5 10 -11 10 -5 0
-7 -4 -4 -10z"/>
<path d="M4540 3050 c0 -5 5 -10 10 -10 6 0 10 5 10 10 0 6 -4 10 -10 10 -5 0
-10 -4 -10 -10z"/>
<path d="M4395 2779 c-4 -6 -5 -12 -2 -15 2 -3 7 2 10 11 7 17 1 20 -8 4z"/>
<path d="M4256 2722 c-2 -4 7 -12 20 -19 13 -6 24 -8 24 -4 0 10 -39 31 -44
23z"/>
<path d="M4255 2690 c3 -5 11 -10 16 -10 6 0 7 5 4 10 -3 6 -11 10 -16 10 -6
0 -7 -4 -4 -10z"/>
<path d="M4196 2645 c4 -8 8 -15 10 -15 2 0 4 7 4 15 0 8 -4 15 -10 15 -5 0
-7 -7 -4 -15z"/>
<path d="M4215 2590 c3 -5 11 -10 16 -10 6 0 7 5 4 10 -3 6 -11 10 -16 10 -6
0 -7 -4 -4 -10z"/>
<path d="M4115 2030 c3 -5 8 -10 11 -10 2 0 4 5 4 10 0 6 -5 10 -11 10 -5 0
-7 -4 -4 -10z"/>
<path d="M3715 1900 c-3 -5 -1 -10 4 -10 6 0 11 5 11 10 0 6 -2 10 -4 10 -3 0
-8 -4 -11 -10z"/>
<path d="M3856 1801 c-4 -7 -5 -15 -2 -18 9 -9 19 4 14 18 -4 11 -6 11 -12 0z"/>
<path d="M3687 1776 c-4 -10 0 -12 14 -9 10 3 16 9 13 14 -8 13 -21 11 -27 -5z"/>
<path d="M3884 1776 c-3 -8 -1 -23 5 -33 7 -12 10 -13 11 -4 0 11 3 11 17 0
15 -13 15 -11 -1 19 -18 36 -24 39 -32 18z"/>
<path d="M3770 1609 c0 -5 5 -7 10 -4 6 3 10 8 10 11 0 2 -4 4 -10 4 -5 0 -10
-5 -10 -11z"/>
<path d="M3466 1495 c-3 -8 -1 -15 4 -15 6 0 10 7 10 15 0 8 -2 15 -4 15 -2 0
-6 -7 -10 -15z"/>
<path d="M3840 1490 c0 -5 5 -10 10 -10 6 0 10 5 10 10 0 6 -4 10 -10 10 -5 0
-10 -4 -10 -10z"/>
<path d="M3510 1485 c0 -5 5 -17 10 -25 5 -8 10 -10 10 -5 0 6 -5 17 -10 25
-5 8 -10 11 -10 5z"/>
<path d="M3680 1460 c0 -5 5 -10 10 -10 6 0 10 5 10 10 0 6 -4 10 -10 10 -5 0
-10 -4 -10 -10z"/>
<path d="M3708 1448 c-2 -13 -9 -22 -16 -20 -6 1 -12 -3 -12 -9 0 -6 7 -9 15
-5 8 3 15 1 15 -3 0 -5 7 -12 16 -15 13 -5 14 -4 6 7 -6 7 -9 25 -6 40 2 15 0
27 -5 27 -5 0 -11 -10 -13 -22z"/>
<path d="M3593 1414 c-2 -19 2 -34 8 -34 6 0 3 -7 -5 -16 -11 -10 -14 -24 -10
-42 9 -37 11 -39 34 -45 11 -3 18 -1 14 4 -9 15 8 10 28 -8 15 -14 18 -14 18
-1 0 8 -10 19 -21 24 -21 10 -21 10 -3 29 17 17 17 18 2 12 -10 -4 -18 -2 -18
4 0 6 -7 8 -16 5 -8 -3 -12 -2 -9 4 3 6 15 10 26 10 25 0 25 17 -1 25 -11 4
-18 11 -15 16 4 5 2 9 -4 9 -6 0 -8 6 -5 14 3 7 -1 16 -8 18 -9 4 -14 -5 -15
-28z"/>
<path d="M3530 1390 c0 -22 -4 -40 -10 -40 -15 0 -12 -27 4 -33 8 -3 17 1 20
9 10 26 7 104 -4 104 -5 0 -10 -18 -10 -40z"/>
<path d="M3646 1414 c-8 -21 -9 -20 13 -20 12 0 17 6 13 18 -5 22 -18 23 -26
2z"/>
<path d="M3499 1363 c-13 -16 -12 -17 4 -4 16 13 21 21 13 21 -2 0 -10 -8 -17
-17z"/>
<path d="M3480 1329 c0 -5 5 -7 10 -4 6 3 10 8 10 11 0 2 -4 4 -10 4 -5 0 -10
-5 -10 -11z"/>
<path d="M3555 1320 c-3 -5 -3 -15 1 -21 6 -11 23 6 24 24 0 10 -18 9 -25 -3z"/>
<path d="M3540 1234 c0 -8 5 -12 10 -9 6 4 17 1 25 -5 18 -15 20 1 3 18 -17
17 -38 15 -38 -4z"/>
<path d="M3450 1225 c-8 -9 -8 -15 -2 -15 12 0 26 19 19 26 -2 2 -10 -2 -17
-11z"/>
<path d="M5210 6370 c0 -5 5 -10 10 -10 6 0 10 5 10 10 0 6 -4 10 -10 10 -5 0
-10 -4 -10 -10z"/>
<path d="M5382 6275 c-7 -15 -8 -25 -2 -25 6 0 10 -19 11 -42 l1 -43 15 35 c8
19 17 50 20 67 5 28 3 33 -14 33 -11 0 -25 -11 -31 -25z"/>
<path d="M5411 6174 c0 -11 3 -14 6 -6 3 7 2 16 -1 19 -3 4 -6 -2 -5 -13z"/>
<path d="M5400 6024 c0 -8 5 -12 10 -9 6 4 8 11 5 16 -9 14 -15 11 -15 -7z"/>
<path d="M5282 5848 c-5 -7 -12 -29 -15 -48 l-6 -35 12 35 c7 19 16 41 20 48
5 6 6 12 4 12 -3 0 -9 -6 -15 -12z"/>
<path d="M2836 5232 l-19 -27 24 22 c12 12 21 24 18 27 -2 2 -13 -8 -23 -22z"/>
<path d="M318 3753 c-24 -6 -23 -18 2 -20 11 -1 18 2 15 8 -4 5 -2 9 4 9 5 0
12 -6 14 -12 3 -8 6 -6 6 5 1 17 -8 19 -41 10z"/>
<path d="M488 3753 c7 -3 16 -2 19 1 4 3 -2 6 -13 5 -11 0 -14 -3 -6 -6z"/>
<path d="M42 3732 c-3 -8 1 -18 8 -22 16 -10 52 -1 44 11 -3 5 2 9 10 9 9 0
16 4 16 8 0 14 -72 8 -78 -6z"/>
<path d="M7020 3739 c-13 -9 -12 -10 3 -5 9 3 17 1 17 -4 0 -6 4 -10 10 -10 5
0 7 7 4 15 -7 18 -14 18 -34 4z"/>
<path d="M459 3723 c-13 -16 -12 -17 4 -4 9 7 17 15 17 17 0 8 -8 3 -21 -13z"/>
<path d="M6710 3726 c0 -8 -6 -17 -12 -19 -7 -3 -5 -6 6 -6 18 -1 18 -2 3 -19
-19 -20 -23 -52 -7 -52 6 0 10 6 10 14 0 23 17 28 36 9 16 -16 16 -16 10 5 -6
17 -4 21 8 16 9 -3 16 -3 16 0 0 4 -11 11 -25 16 -14 5 -25 13 -24 17 3 19 -2
33 -11 33 -5 0 -10 -6 -10 -14z"/>
<path d="M17 3705 c-8 -20 -4 -29 11 -24 5 2 6 13 2 23 -6 19 -7 19 -13 1z"/>
<path d="M1416 3698 c-3 -13 -1 -27 4 -32 12 -12 17 -7 25 27 5 20 4 27 -8 27
-8 0 -17 -10 -21 -22z"/>
<path d="M313 3695 c-3 -9 -3 -19 1 -22 3 -4 6 -1 6 5 0 7 7 12 15 12 8 0 15
5 15 10 0 16 -30 12 -37 -5z"/>
<path d="M467 3703 c-10 -9 -9 -23 2 -23 5 0 11 7 15 15 5 15 -5 20 -17 8z"/>
<path d="M7055 3690 c3 -5 8 -10 11 -10 2 0 4 5 4 10 0 6 -5 10 -11 10 -5 0
-7 -4 -4 -10z"/>
<path d="M8006 3675 c-3 -9 -6 -22 -5 -28 0 -7 5 -1 10 12 5 13 8 26 5 28 -2
2 -6 -3 -10 -12z"/>
<path d="M430 3670 c-9 -6 -10 -10 -3 -10 6 0 15 5 18 10 8 12 4 12 -15 0z"/>
<path d="M6877 3665 c3 -8 9 -12 14 -9 12 7 11 11 -5 17 -10 4 -13 1 -9 -8z"/>
<path d="M330 3659 c0 -5 5 -7 10 -4 6 3 10 8 10 11 0 2 -4 4 -10 4 -5 0 -10
-5 -10 -11z"/>
<path d="M5400 3666 c0 -2 7 -6 15 -10 8 -3 15 -1 15 4 0 6 -7 10 -15 10 -8 0
-15 -2 -15 -4z"/>
<path d="M40 3646 c0 -8 4 -17 9 -20 5 -4 7 3 4 14 -6 23 -13 26 -13 6z"/>
<path d="M450 3645 c0 -8 2 -15 4 -15 2 0 6 7 10 15 3 8 1 15 -4 15 -6 0 -10
-7 -10 -15z"/>
<path d="M5450 3648 c0 -9 5 -20 10 -23 13 -8 13 5 0 25 -8 13 -10 13 -10 -2z"/>
<path d="M6965 3620 c3 -5 8 -10 11 -10 2 0 4 5 4 10 0 6 -5 10 -11 10 -5 0
-7 -4 -4 -10z"/>
<path d="M5630 3599 c0 -5 5 -7 10 -4 6 3 10 8 10 11 0 2 -4 4 -10 4 -5 0 -10
-5 -10 -11z"/>
<path d="M6803 3595 c-9 -25 4 -29 17 -6 7 15 7 21 0 21 -6 0 -13 -7 -17 -15z"/>
<path d="M1301 3584 c0 -11 3 -14 6 -6 3 7 2 16 -1 19 -3 4 -6 -2 -5 -13z"/>
<path d="M5671 3568 c-1 -21 4 -38 10 -38 5 0 7 -4 4 -10 -3 -5 -2 -10 3 -10
15 0 22 42 11 59 -8 13 -9 11 -4 -6 4 -13 4 -23 1 -23 -3 0 -10 15 -15 33 l-9
32 -1 -37z"/>
<path d="M6840 3591 c0 -6 4 -13 10 -16 6 -3 7 1 4 9 -7 18 -14 21 -14 7z"/>
<path d="M5505 3580 c-3 -5 1 -10 10 -10 9 0 13 5 10 10 -3 6 -8 10 -10 10 -2
0 -7 -4 -10 -10z"/>
<path d="M6901 3564 c0 -11 3 -14 6 -6 3 7 2 16 -1 19 -3 4 -6 -2 -5 -13z"/>
<path d="M7000 3558 c0 -9 7 -19 16 -22 25 -10 27 -1 4 19 -17 15 -20 16 -20
3z"/>
<path d="M5610 3545 c-7 -9 -8 -15 -2 -15 5 0 12 7 16 15 3 8 4 15 2 15 -2 0
-9 -7 -16 -15z"/>
<path d="M1335 3540 c3 -5 8 -10 11 -10 2 0 4 5 4 10 0 6 -5 10 -11 10 -5 0
-7 -4 -4 -10z"/>
<path d="M1971 3524 c0 -11 3 -14 6 -6 3 7 2 16 -1 19 -3 4 -6 -2 -5 -13z"/>
<path d="M2625 3530 c3 -5 8 -10 11 -10 2 0 4 5 4 10 0 6 -5 10 -11 10 -5 0
-7 -4 -4 -10z"/>
<path d="M5556 3523 c-6 -14 -5 -15 5 -6 7 7 10 15 7 18 -3 3 -9 -2 -12 -12z"/>
<path d="M5875 3530 c-8 -13 15 -24 27 -12 6 6 4 11 -6 15 -8 3 -18 2 -21 -3z"/>
<path d="M7150 3496 c27 -41 34 -46 42 -32 5 9 7 22 4 29 -2 7 -5 4 -5 -5 -1
-24 -18 -23 -26 1 -3 10 -15 27 -27 37 -15 13 -11 3 12 -30z"/>
<path d="M5586 3511 c-3 -5 3 -11 13 -14 14 -3 18 -1 14 9 -6 16 -19 18 -27 5z"/>
<path d="M5730 3510 c0 -5 5 -10 11 -10 5 0 7 5 4 10 -3 6 -8 10 -11 10 -2 0
-4 -4 -4 -10z"/>
<path d="M6041 3504 c0 -11 3 -14 6 -6 3 7 2 16 -1 19 -3 4 -6 -2 -5 -13z"/>
<path d="M7004 3497 c5 -22 3 -25 -11 -20 -16 6 -16 5 -4 -10 7 -9 10 -17 5
-17 -5 -1 2 -7 16 -14 25 -15 45 -12 35 4 -3 5 2 21 11 35 15 23 15 25 0 19
-9 -3 -16 -11 -17 -18 -1 -6 -4 0 -8 13 -9 35 -36 42 -27 8z"/>
<path d="M5838 3503 c7 -3 16 -2 19 1 4 3 -2 6 -13 5 -11 0 -14 -3 -6 -6z"/>
<path d="M5892 3495 c-17 -19 -1 -19 24 0 14 11 15 14 4 14 -8 0 -21 -6 -28
-14z"/>
<path d="M7131 3477 c6 -13 20 -29 31 -36 16 -10 15 -6 -7 23 -32 42 -39 45
-24 13z"/>
<path d="M2622 3465 c0 -16 2 -22 5 -12 2 9 2 23 0 30 -3 6 -5 -1 -5 -18z"/>
<path d="M5680 3463 c0 -29 12 -24 17 7 2 11 -2 20 -7 20 -6 0 -10 -12 -10
-27z"/>
<path d="M5502 3455 c6 -14 13 -23 16 -21 7 7 -9 46 -18 46 -5 0 -4 -11 2 -25z"/>
<path d="M7063 3464 c-8 -8 -9 -15 -3 -19 6 -3 10 -1 10 5 0 6 5 8 10 5 6 -3
10 -2 10 4 0 17 -14 20 -27 5z"/>
<path d="M1961 3454 c0 -11 3 -14 6 -6 3 7 2 16 -1 19 -3 4 -6 -2 -5 -13z"/>
<path d="M2650 3460 c0 -5 5 -10 11 -10 5 0 7 5 4 10 -3 6 -8 10 -11 10 -2 0
-4 -4 -4 -10z"/>
<path d="M2687 3457 c-11 -29 -9 -43 4 -30 6 6 9 19 7 29 -3 18 -4 18 -11 1z"/>
<path d="M6896 3461 c-4 -7 -5 -15 -2 -18 9 -9 19 4 14 18 -4 11 -6 11 -12 0z"/>
<path d="M6955 3460 c-3 -5 1 -10 10 -10 9 0 13 5 10 10 -3 6 -8 10 -10 10 -2
0 -7 -4 -10 -10z"/>
<path d="M5850 3452 c0 -12 19 -26 26 -19 2 2 -2 10 -11 17 -9 8 -15 8 -15 2z"/>
<path d="M95 3440 c-3 -5 -1 -10 4 -10 6 0 11 5 11 10 0 6 -2 10 -4 10 -3 0
-8 -4 -11 -10z"/>
<path d="M6740 3442 c0 -5 7 -15 15 -22 8 -7 15 -8 15 -2 0 5 -7 15 -15 22 -8
7 -15 8 -15 2z"/>
<path d="M5610 3426 c0 -2 7 -7 16 -10 8 -3 12 -2 9 4 -6 10 -25 14 -25 6z"/>
<path d="M5680 3416 c0 -8 5 -18 10 -21 6 -3 10 3 10 14 0 12 -4 21 -10 21 -5
0 -10 -6 -10 -14z"/>
<path d="M5905 3420 c-3 -5 1 -10 10 -10 9 0 13 5 10 10 -3 6 -8 10 -10 10 -2
0 -7 -4 -10 -10z"/>
<path d="M7731 3414 c0 -11 3 -14 6 -6 3 7 2 16 -1 19 -3 4 -6 -2 -5 -13z"/>
<path d="M7131 3415 c-1 -5 6 -28 14 -50 11 -32 14 -35 14 -15 0 14 -6 36 -14
50 -8 14 -14 21 -14 15z"/>
<path d="M2680 3385 c0 -15 4 -24 10 -20 6 3 10 12 10 20 0 8 -4 17 -10 20 -6
4 -10 -5 -10 -20z"/>
<path d="M5935 3390 c3 -5 8 -10 11 -10 2 0 4 5 4 10 0 6 -5 10 -11 10 -5 0
-7 -4 -4 -10z"/>
<path d="M6905 3391 c-3 -5 -1 -12 5 -16 5 -3 10 1 10 9 0 18 -6 21 -15 7z"/>
<path d="M7171 3379 c6 -12 9 -32 6 -46 -4 -22 -3 -23 10 -10 13 13 13 18 -1
46 -9 17 -19 31 -22 31 -2 0 0 -10 7 -21z"/>
<path d="M6990 3381 c0 -5 7 -15 17 -22 15 -13 15 -12 4 9 -12 23 -21 28 -21
13z"/>
<path d="M6060 3366 c0 -8 4 -17 9 -20 5 -4 7 3 4 14 -6 23 -13 26 -13 6z"/>
<path d="M5995 3360 c3 -5 10 -10 16 -10 5 0 9 5 9 10 0 6 -7 10 -16 10 -8 0
-12 -4 -9 -10z"/>
<path d="M5836 3344 c-6 -16 2 -18 22 -5 11 7 11 9 -1 14 -9 3 -18 -1 -21 -9z"/>
<path d="M2580 3339 c0 -5 5 -7 10 -4 6 3 10 8 10 11 0 2 -4 4 -10 4 -5 0 -10
-5 -10 -11z"/>
<path d="M5330 3339 c0 -5 5 -7 10 -4 6 3 10 8 10 11 0 2 -4 4 -10 4 -5 0 -10
-5 -10 -11z"/>
<path d="M6700 3338 c0 -9 5 -20 10 -23 13 -8 13 5 0 25 -8 13 -10 13 -10 -2z"/>
<path d="M6960 3336 c0 -8 5 -18 10 -21 6 -3 10 1 10 9 0 8 -4 18 -10 21 -5 3
-10 -1 -10 -9z"/>
<path d="M8072 3338 c6 -18 28 -21 28 -4 0 9 -7 16 -16 16 -9 0 -14 -5 -12
-12z"/>
<path d="M137 3327 c-3 -9 1 -18 9 -21 16 -6 18 2 5 22 -7 11 -9 11 -14 -1z"/>
<path d="M5793 3317 c12 -13 23 -22 25 -21 8 5 -24 44 -35 44 -7 0 -2 -10 10
-23z"/>
<path d="M7025 3320 c-3 -5 -1 -10 4 -10 6 0 11 5 11 10 0 6 -2 10 -4 10 -3 0
-8 -4 -11 -10z"/>
<path d="M5760 3306 c0 -2 7 -7 16 -10 8 -3 12 -2 9 4 -6 10 -25 14 -25 6z"/>
<path d="M7081 3290 c0 -14 6 -36 14 -50 l15 -25 -6 30 c-4 17 -11 39 -15 50
-7 18 -8 18 -8 -5z"/>
<path d="M7150 3298 c0 -10 -7 -18 -15 -18 -19 0 -19 -14 0 -30 11 -9 20 -8
45 10 16 12 30 26 30 32 0 6 -6 6 -15 -2 -13 -11 -18 -10 -30 6 -13 17 -14 18
-15 2z"/>
<path d="M8091 3294 c0 -11 3 -14 6 -6 3 7 2 16 -1 19 -3 4 -6 -2 -5 -13z"/>
<path d="M5390 3289 c0 -5 5 -7 10 -4 6 3 10 8 10 11 0 2 -4 4 -10 4 -5 0 -10
-5 -10 -11z"/>
<path d="M7030 3286 c0 -2 7 -7 16 -10 8 -3 12 -2 9 4 -6 10 -25 14 -25 6z"/>
<path d="M7241 3264 c0 -11 3 -14 6 -6 3 7 2 16 -1 19 -3 4 -6 -2 -5 -13z"/>
<path d="M5547 3264 c-4 -4 -7 -14 -7 -23 0 -11 3 -12 11 -4 6 6 10 16 7 23
-2 6 -7 8 -11 4z"/>
<path d="M6925 3261 c-3 -5 -1 -12 5 -16 5 -3 10 1 10 9 0 18 -6 21 -15 7z"/>
<path d="M5330 3240 c0 -5 5 -10 11 -10 5 0 7 5 4 10 -3 6 -8 10 -11 10 -2 0
-4 -4 -4 -10z"/>
<path d="M6846 3242 c-3 -5 1 -9 9 -9 8 0 12 4 9 9 -3 4 -7 8 -9 8 -2 0 -6 -4
-9 -8z"/>
<path d="M6799 3223 c-13 -16 -12 -17 4 -4 16 13 21 21 13 21 -2 0 -10 -8 -17
-17z"/>
<path d="M7170 3230 c-8 -5 -12 -12 -9 -15 4 -3 12 1 19 10 14 17 11 19 -10 5z"/>
<path d="M7990 3235 c0 -5 5 -17 10 -25 5 -8 10 -10 10 -5 0 6 -5 17 -10 25
-5 8 -10 11 -10 5z"/>
<path d="M6997 3212 c3 -12 9 -25 14 -28 14 -8 11 10 -6 32 -13 18 -14 18 -8
-4z"/>
<path d="M5450 3190 c0 -5 5 -10 11 -10 5 0 7 5 4 10 -3 6 -8 10 -11 10 -2 0
-4 -4 -4 -10z"/>
<path d="M6050 3179 c0 -11 4 -18 10 -14 5 3 7 12 3 20 -7 21 -13 19 -13 -6z"/>
<path d="M7182 3180 c14 -22 24 -19 15 5 -4 8 -11 15 -17 15 -6 0 -6 -7 2 -20z"/>
<path d="M8030 3179 c0 -24 23 -21 28 4 2 10 -3 17 -12 17 -10 0 -16 -9 -16
-21z"/>
<path d="M5415 3180 c-3 -5 -1 -10 4 -10 6 0 11 5 11 10 0 6 -2 10 -4 10 -3 0
-8 -4 -11 -10z"/>
<path d="M7270 3180 c0 -5 5 -10 11 -10 5 0 7 5 4 10 -3 6 -8 10 -11 10 -2 0
-4 -4 -4 -10z"/>
<path d="M7995 3170 c3 -5 8 -10 11 -10 2 0 4 5 4 10 0 6 -5 10 -11 10 -5 0
-7 -4 -4 -10z"/>
<path d="M5650 3160 c0 -5 5 -10 10 -10 6 0 10 5 10 10 0 6 -4 10 -10 10 -5 0
-10 -4 -10 -10z"/>
<path d="M5730 3139 c-23 -18 -24 -20 -7 -30 9 -5 17 -19 17 -29 0 -10 4 -21
10 -25 5 -3 7 -12 3 -20 -3 -8 0 -15 6 -15 6 0 11 9 11 20 0 11 -5 20 -12 20
-6 0 -8 3 -5 7 4 3 0 17 -9 31 -8 13 -13 27 -9 30 3 4 9 1 13 -5 5 -8 10 -7
19 2 10 10 9 15 0 23 -9 8 -20 5 -37 -9z"/>
<path d="M5418 3143 c6 -2 12 -11 12 -19 0 -8 5 -14 10 -14 6 0 10 -7 10 -15
0 -8 5 -15 10 -15 6 0 10 -5 10 -11 0 -6 -7 -9 -15 -5 -13 4 -14 2 -5 -14 12
-23 32 -27 24 -5 -4 10 0 15 15 15 12 0 21 4 21 9 0 5 3 16 6 25 9 25 -11 19
-25 -6 l-11 -23 6 23 c3 12 1 22 -5 22 -21 0 -26 3 -39 21 -7 11 -19 19 -25
18 -9 0 -9 -2 1 -6z"/>
<path d="M6810 3141 c0 -6 5 -13 10 -16 6 -3 10 1 10 9 0 9 -4 16 -10 16 -5 0
-10 -4 -10 -9z"/>
<path d="M5816 3123 c-4 -9 -1 -20 5 -24 6 -4 8 -12 5 -18 -14 -21 5 -11 29
16 16 20 20 30 12 35 -20 13 -45 9 -51 -9z m38 -14 c-3 -5 -10 -7 -15 -3 -5 3
-7 10 -3 15 3 5 10 7 15 3 5 -3 7 -10 3 -15z"/>
<path d="M7265 3120 c3 -5 8 -10 11 -10 2 0 4 5 4 10 0 6 -5 10 -11 10 -5 0
-7 -4 -4 -10z"/>
<path d="M5675 3110 c-3 -5 -1 -10 4 -10 6 0 11 5 11 10 0 6 -2 10 -4 10 -3 0
-8 -4 -11 -10z"/>
<path d="M8055 3100 c3 -5 8 -10 11 -10 2 0 4 5 4 10 0 6 -5 10 -11 10 -5 0
-7 -4 -4 -10z"/>
<path d="M8096 3095 c4 -8 8 -15 10 -15 2 0 4 7 4 15 0 8 -4 15 -10 15 -5 0
-7 -7 -4 -15z"/>
<path d="M1054 3060 c9 -59 26 -76 19 -19 -3 24 -10 49 -16 54 -6 7 -7 -5 -3
-35z"/>
<path d="M5715 3050 c4 -11 2 -20 -4 -20 -6 0 -11 -4 -11 -10 0 -5 8 -6 18 -3
15 6 16 5 3 -13 -14 -18 -14 -18 3 -2 20 17 16 68 -5 68 -6 0 -8 -9 -4 -20z"/>
<path d="M6110 3060 c0 -8 5 -22 10 -30 9 -13 10 -13 10 0 0 8 -5 22 -10 30
-9 13 -10 13 -10 0z"/>
<path d="M5965 3049 c-4 -6 -5 -13 -2 -16 7 -7 27 6 27 18 0 12 -17 12 -25 -2z"/>
<path d="M7114 3010 c1 -18 8 -36 15 -38 10 -3 11 2 6 19 -14 46 -23 54 -21
19z"/>
<path d="M7305 3030 c3 -5 8 -10 11 -10 2 0 4 5 4 10 0 6 -5 10 -11 10 -5 0
-7 -4 -4 -10z"/>
<path d="M6850 3019 c0 -7 25 -19 42 -19 5 0 8 5 6 12 -4 12 -48 19 -48 7z"/>
<path d="M7087 3016 c-4 -10 -5 -21 -2 -24 9 -9 17 6 13 25 -3 17 -4 17 -11
-1z"/>
<path d="M5815 3010 c-3 -5 -2 -10 4 -10 5 0 13 5 16 10 3 6 2 10 -4 10 -5 0
-13 -4 -16 -10z"/>
<path d="M2001 3005 c0 -5 6 -19 14 -29 8 -11 15 -15 15 -10 0 6 -7 19 -15 30
-8 10 -14 15 -14 9z"/>
<path d="M7155 3001 c-3 -5 -1 -12 5 -16 5 -3 10 1 10 9 0 18 -6 21 -15 7z"/>
<path d="M6915 2990 c-3 -5 1 -20 10 -34 13 -19 13 -25 3 -29 -10 -3 -9 -9 5
-23 16 -18 17 -18 17 4 0 12 4 22 8 22 5 0 9 14 10 30 0 17 -4 30 -9 30 -5 0
-9 -4 -9 -10 0 -5 -5 -10 -11 -10 -6 0 -9 7 -5 15 6 16 -9 21 -19 5z"/>
<path d="M5786 2983 c-11 -12 -6 -19 14 -19 11 0 20 3 20 7 0 10 -27 19 -34
12z"/>
<path d="M6864 2974 c9 -8 16 -23 16 -32 0 -14 2 -15 9 -3 12 19 -4 51 -25 51
-14 0 -14 -2 0 -16z"/>
<path d="M5658 2955 c-3 -14 -1 -25 3 -25 5 0 9 11 9 25 0 14 -2 25 -4 25 -2
0 -6 -11 -8 -25z"/>
<path d="M5895 2943 c2 -19 0 -33 -6 -33 -6 0 -7 -5 -3 -11 13 -22 26 20 15
49 -11 27 -11 27 -6 -5z"/>
<path d="M7090 2951 c0 -12 11 -48 25 -81 30 -71 32 -90 4 -37 -21 39 -34 50
-24 18 3 -11 1 -22 -5 -26 -16 -10 -12 -28 6 -21 15 6 15 4 2 -16 -11 -16 -13
-30 -6 -47 5 -14 4 -28 -2 -36 -5 -6 -7 -15 -3 -18 3 -4 -1 -9 -10 -13 -13 -5
-14 -9 -4 -25 12 -20 37 -26 37 -9 0 6 -7 10 -15 10 -8 0 -15 5 -15 10 0 6 7
10 15 10 18 0 20 16 3 24 -7 3 -2 3 11 0 17 -4 21 -3 16 6 -6 9 -3 9 12 1 11
-6 23 -7 27 -4 3 3 6 1 6 -5 0 -7 5 -12 11 -12 6 0 7 5 2 13 -4 6 -8 17 -8 22
-2 22 -18 45 -31 45 -16 0 -19 16 -5 24 5 3 17 -6 27 -21 l18 -28 12 30 c11
26 13 27 14 8 0 -12 -4 -25 -10 -28 -12 -7 -14 -35 -2 -35 16 1 49 62 45 84
-4 17 -11 23 -34 23 -16 0 -29 -4 -29 -9 0 -5 -4 -6 -10 -3 -6 4 -5 14 3 26
10 18 9 23 -10 36 -13 9 -23 22 -23 30 0 11 6 8 20 -8 17 -21 19 -22 20 -6 0
11 -8 30 -19 43 l-19 24 -7 -23 -8 -22 -4 22 c-2 12 -11 27 -19 33 -11 10 -14
9 -14 -9z m68 -246 c-3 -3 -9 2 -12 12 -6 14 -5 15 5 6 7 -7 10 -15 7 -18z"/>
<path d="M6979 2942 c11 -21 11 -33 0 -54 -8 -15 -6 -18 13 -17 13 0 17 3 10
6 -6 2 -9 9 -6 14 14 24 11 58 -7 62 -15 4 -17 2 -10 -11z"/>
<path d="M2326 2919 c-3 -17 -6 -44 -6 -60 0 -15 -5 -31 -10 -34 -6 -4 -8 -11
-4 -16 3 -5 1 -42 -5 -82 -6 -39 -13 -90 -16 -113 -3 -22 -9 -69 -15 -105 -5
-35 -16 -116 -25 -179 -26 -190 -55 -393 -61 -424 -4 -18 -2 -26 4 -22 12 7
28 -96 17 -113 -4 -8 41 -11 151 -11 l156 0 -6 33 c-5 31 -41 274 -50 347 -3
19 -12 82 -20 140 -9 58 -18 123 -21 145 -4 39 -31 251 -56 433 -7 50 -16 92
-20 92 -3 0 -9 -14 -13 -31z"/>
<path d="M6750 2941 c0 -5 5 -13 10 -16 6 -3 10 -2 10 4 0 5 -4 13 -10 16 -5
3 -10 2 -10 -4z"/>
<path d="M317 2923 c-4 -3 -7 -13 -7 -22 1 -13 3 -13 11 2 11 19 8 33 -4 20z"/>
<path d="M7349 2908 c0 -2 -2 -10 -4 -18 -2 -8 -7 -26 -11 -40 -5 -17 -3 -22
4 -15 11 11 27 75 18 75 -3 0 -6 -1 -7 -2z"/>
<path d="M2045 2890 c-3 -5 -1 -10 4 -10 6 0 11 5 11 10 0 6 -2 10 -4 10 -3 0
-8 -4 -11 -10z"/>
<path d="M6740 2896 c0 -2 7 -9 15 -16 12 -10 15 -10 15 4 0 9 -7 16 -15 16
-8 0 -15 -2 -15 -4z"/>
<path d="M6795 2890 c-3 -5 -2 -10 4 -10 5 0 13 5 16 10 3 6 2 10 -4 10 -5 0
-13 -4 -16 -10z"/>
<path d="M7019 2859 c-33 -36 -35 -41 -18 -49 25 -14 25 -14 48 32 28 57 14
65 -30 17z"/>
<path d="M2725 2869 c-4 -6 -5 -12 -2 -15 2 -3 7 2 10 11 7 17 1 20 -8 4z"/>
<path d="M7360 2870 c0 -5 5 -10 10 -10 6 0 10 5 10 10 0 6 -4 10 -10 10 -5 0
-10 -4 -10 -10z"/>
<path d="M2030 2862 c0 -12 19 -26 26 -19 2 2 -2 10 -11 17 -9 8 -15 8 -15 2z"/>
<path d="M7206 2855 c4 -8 8 -15 10 -15 2 0 4 7 4 15 0 8 -4 15 -10 15 -5 0
-7 -7 -4 -15z"/>
<path d="M6790 2847 c0 -8 -6 -17 -12 -20 -7 -2 2 -7 20 -11 35 -8 38 -16 20
-47 -11 -17 -10 -22 6 -31 15 -8 16 -12 5 -19 -20 -12 -29 -11 -29 4 0 7 -11
14 -25 15 -31 2 -33 -15 -2 -20 12 -2 21 -9 19 -17 -2 -9 4 -12 16 -9 21 6 56
-32 58 -63 1 -10 6 -25 13 -32 6 -8 7 -17 3 -22 -4 -4 -1 -6 7 -3 8 2 18 13
22 25 6 16 4 20 -9 19 -11 -1 -16 5 -14 17 2 9 -1 17 -6 17 -12 0 -33 65 -26
84 3 9 1 16 -5 16 -7 0 -9 9 -5 24 4 19 -2 32 -25 57 -21 22 -31 27 -31 16z"/>
<path d="M7370 2840 c0 -5 7 -7 15 -4 8 4 15 1 15 -6 0 -6 5 -8 10 -5 6 4 8
11 5 16 -8 12 -45 12 -45 -1z"/>
<path d="M420 2819 c0 -5 5 -7 10 -4 6 3 10 8 10 11 0 2 -4 4 -10 4 -5 0 -10
-5 -10 -11z"/>
<path d="M7475 2821 c-3 -6 -3 -11 2 -11 4 0 2 -4 -6 -9 -8 -5 -9 -11 -3 -15
6 -3 14 3 17 15 8 23 1 36 -10 20z"/>
<path d="M2053 2813 c9 -2 17 -11 17 -19 0 -8 4 -13 10 -9 16 10 -1 35 -24 34
-16 -1 -17 -2 -3 -6z"/>
<path d="M6726 2804 c-18 -17 -13 -34 9 -34 9 0 12 6 8 16 -3 9 0 20 8 25 9 5
10 9 2 9 -6 0 -19 -7 -27 -16z"/>
<path d="M5171 2794 c0 -11 3 -14 6 -6 3 7 2 16 -1 19 -3 4 -6 -2 -5 -13z"/>
<path d="M7335 2800 c-3 -5 -1 -10 4 -10 6 0 11 5 11 10 0 6 -2 10 -4 10 -3 0
-8 -4 -11 -10z"/>
<path d="M6790 2789 c0 -5 5 -7 10 -4 6 3 10 8 10 11 0 2 -4 4 -10 4 -5 0 -10
-5 -10 -11z"/>
<path d="M6930 2790 c0 -5 5 -10 10 -10 6 0 10 5 10 10 0 6 -4 10 -10 10 -5 0
-10 -4 -10 -10z"/>
<path d="M2045 2780 c-3 -5 -1 -10 4 -10 6 0 11 5 11 10 0 6 -2 10 -4 10 -3 0
-8 -4 -11 -10z"/>
<path d="M2605 2770 c-3 -5 -1 -10 4 -10 6 0 11 5 11 10 0 6 -2 10 -4 10 -3 0
-8 -4 -11 -10z"/>
<path d="M7450 2766 c0 -2 8 -10 18 -17 15 -13 16 -12 3 4 -13 16 -21 21 -21
13z"/>
<path d="M2620 2696 c0 -22 3 -27 11 -19 8 8 8 16 0 30 -9 16 -10 14 -11 -11z"/>
<path d="M5565 2700 c-3 -5 -1 -10 4 -10 6 0 11 5 11 10 0 6 -2 10 -4 10 -3 0
-8 -4 -11 -10z"/>
<path d="M6882 2680 c12 -16 23 -30 25 -30 2 0 -3 14 -12 30 -9 17 -20 30 -26
30 -5 0 0 -13 13 -30z"/>
<path d="M6930 2700 c0 -13 18 -22 24 -11 3 5 -1 11 -9 15 -8 3 -15 1 -15 -4z"/>
<path d="M451 2691 c-10 -6 -10 -10 -1 -16 13 -8 24 -1 19 14 -3 6 -10 7 -18
2z"/>
<path d="M7251 2686 c-9 -10 -8 -15 4 -20 10 -4 15 1 15 14 0 24 -4 25 -19 6z"/>
<path d="M2656 2653 c-6 -14 -5 -15 5 -6 7 7 10 15 7 18 -3 3 -9 -2 -12 -12z"/>
<path d="M6955 2661 c-3 -5 -1 -12 5 -16 5 -3 10 1 10 9 0 18 -6 21 -15 7z"/>
<path d="M7220 2651 c0 -13 23 -28 43 -28 19 0 23 12 7 22 -5 3 -10 1 -10 -4
0 -6 -4 -11 -10 -11 -5 0 -10 7 -10 15 0 8 -4 15 -10 15 -5 0 -10 -4 -10 -9z"/>
<path d="M2217 2644 c-4 -4 -7 -14 -7 -23 0 -11 3 -12 11 -4 6 6 10 16 7 23
-2 6 -7 8 -11 4z"/>
<path d="M2695 2640 c3 -5 8 -10 11 -10 2 0 4 5 4 10 0 6 -5 10 -11 10 -5 0
-7 -4 -4 -10z"/>
<path d="M6690 2640 c0 -5 5 -10 11 -10 5 0 7 5 4 10 -3 6 -8 10 -11 10 -2 0
-4 -4 -4 -10z"/>
<path d="M5200 2631 c0 -6 4 -13 10 -16 6 -3 7 1 4 9 -7 18 -14 21 -14 7z"/>
<path d="M7137 2634 c-4 -4 -2 -13 4 -21 14 -16 5 -17 -21 -3 -16 8 -18 8 -14
-5 4 -8 10 -15 16 -15 5 0 6 -5 2 -11 -4 -8 0 -9 15 -4 15 5 21 2 21 -9 0 -9
4 -16 9 -16 6 0 5 15 -1 38 -11 41 -21 56 -31 46z"/>
<path d="M2520 2610 c0 -11 2 -20 4 -20 2 0 6 9 9 20 3 11 1 20 -4 20 -5 0 -9
-9 -9 -20z"/>
<path d="M6700 2610 c-8 -5 -12 -12 -9 -15 4 -3 12 1 19 10 14 17 11 19 -10 5z"/>
<path d="M7177 2600 c3 -11 9 -20 14 -20 11 0 11 3 3 24 -9 23 -23 20 -17 -4z"/>
<path d="M791 2589 c-1 -17 5 -29 15 -33 13 -5 14 -3 6 6 -5 7 -12 22 -15 33
-4 16 -5 14 -6 -6z"/>
<path d="M7426 2575 c8 -37 24 -57 24 -29 0 10 -8 28 -16 39 -15 19 -15 19 -8
-10z"/>
<path d="M5496 2557 c3 -10 9 -15 12 -12 3 3 0 11 -7 18 -10 9 -11 8 -5 -6z"/>
<path d="M5200 2540 c0 -5 5 -10 10 -10 6 0 10 5 10 10 0 6 -4 10 -10 10 -5 0
-10 -4 -10 -10z"/>
<path d="M5326 2535 c4 -8 1 -15 -7 -15 -7 0 -10 -2 -7 -5 3 -3 15 -2 26 2 21
8 21 9 2 21 -16 10 -18 9 -14 -3z"/>
<path d="M6202 2530 c0 -14 2 -19 5 -12 2 6 2 18 0 25 -3 6 -5 1 -5 -13z"/>
<path d="M7351 2531 c-8 -6 -9 -11 -3 -15 6 -3 14 -1 17 5 9 14 2 20 -14 10z"/>
<path d="M2185 2520 c3 -5 8 -10 11 -10 2 0 4 5 4 10 0 6 -5 10 -11 10 -5 0
-7 -4 -4 -10z"/>
<path d="M500 2505 c0 -8 4 -15 10 -15 5 0 7 7 4 15 -4 8 -8 15 -10 15 -2 0
-4 -7 -4 -15z"/>
<path d="M7130 2510 c0 -5 5 -10 10 -10 6 0 10 5 10 10 0 6 -4 10 -10 10 -5 0
-10 -4 -10 -10z"/>
<path d="M7202 2510 c7 -23 48 -26 48 -3 0 15 -2 15 -9 4 -8 -13 -12 -13 -27
0 -15 12 -17 12 -12 -1z"/>
<path d="M6960 2500 c-9 -6 -10 -10 -3 -10 6 0 15 5 18 10 8 12 4 12 -15 0z"/>
<path d="M7210 2472 c0 -12 19 -26 26 -19 2 2 -2 10 -11 17 -9 8 -15 8 -15 2z"/>
<path d="M7015 2444 l-30 -14 30 4 c19 3 37 -2 49 -12 18 -16 18 -16 7 5 -16
31 -22 33 -56 17z"/>
<path d="M815 2438 c-10 -24 2 -55 16 -41 6 6 6 18 0 34 -8 21 -10 22 -16 7z"/>
<path d="M7103 2433 c-3 -7 -2 -17 2 -21 4 -4 10 -1 12 6 3 6 9 12 14 12 6 0
7 -4 4 -10 -3 -5 -2 -10 3 -10 8 0 22 22 22 35 0 10 -53 0 -57 -12z"/>
<path d="M7745 2440 c-3 -5 -1 -10 4 -10 6 0 11 5 11 10 0 6 -2 10 -4 10 -3 0
-8 -4 -11 -10z"/>
<path d="M2610 2422 c0 -5 7 -15 15 -22 8 -7 15 -8 15 -2 0 5 -7 15 -15 22 -8
7 -15 8 -15 2z"/>
<path d="M6970 2410 c0 -5 5 -10 11 -10 5 0 7 5 4 10 -3 6 -8 10 -11 10 -2 0
-4 -4 -4 -10z"/>
<path d="M725 2400 c-3 -5 -1 -10 4 -10 6 0 11 5 11 10 0 6 -2 10 -4 10 -3 0
-8 -4 -11 -10z"/>
<path d="M5906 2386 c10 -8 21 -12 24 -10 5 6 -21 24 -34 24 -6 0 -1 -6 10
-14z"/>
<path d="M6675 2379 c-4 -6 -5 -12 -2 -15 2 -3 7 2 10 11 7 17 1 20 -8 4z"/>
<path d="M5365 2370 c3 -5 8 -10 11 -10 2 0 4 5 4 10 0 6 -5 10 -11 10 -5 0
-7 -4 -4 -10z"/>
<path d="M7968 2335 c2 -14 6 -25 8 -25 2 0 4 11 4 25 0 14 -4 25 -9 25 -4 0
-6 -11 -3 -25z"/>
<path d="M6954 2339 c-3 -6 0 -15 7 -20 22 -14 28 -11 22 11 -6 22 -18 26 -29
9z"/>
<path d="M7796 2334 c-10 -25 -6 -31 6 -10 11 19 11 19 24 1 13 -18 14 -18 14
3 0 26 -34 31 -44 6z"/>
<path d="M6694 2325 c-3 -8 -4 -20 -1 -27 3 -8 6 -6 6 6 1 13 6 16 17 12 14
-5 15 -4 4 9 -16 19 -19 19 -26 0z"/>
<path d="M7135 2320 c-4 -12 -5 -24 -2 -27 3 -2 8 5 12 17 4 12 5 24 2 27 -3
2 -8 -5 -12 -17z"/>
<path d="M5270 2319 c0 -5 5 -7 10 -4 6 3 10 8 10 11 0 2 -4 4 -10 4 -5 0 -10
-5 -10 -11z"/>
<path d="M6082 2304 c10 -10 20 -15 24 -12 3 4 -5 12 -18 18 -22 12 -22 12 -6
-6z"/>
<path d="M8050 2281 c0 -5 7 -12 16 -15 14 -5 15 -4 4 9 -14 17 -20 19 -20 6z"/>
<path d="M2200 2250 c0 -5 5 -10 10 -10 6 0 10 5 10 10 0 6 -4 10 -10 10 -5 0
-10 -4 -10 -10z"/>
<path d="M7501 2244 c0 -11 3 -14 6 -6 3 7 2 16 -1 19 -3 4 -6 -2 -5 -13z"/>
<path d="M7816 2246 c3 -9 11 -16 16 -16 13 0 5 23 -10 28 -7 2 -10 -2 -6 -12z"/>
<path d="M2610 2226 c0 -8 5 -18 10 -21 6 -3 10 3 10 14 0 12 -4 21 -10 21 -5
0 -10 -6 -10 -14z"/>
<path d="M8026 2214 c-3 -9 -1 -23 4 -32 9 -14 10 -13 5 6 -5 16 -2 22 10 22
9 0 13 5 10 10 -9 15 -22 12 -29 -6z"/>
<path d="M6770 2205 c0 -8 4 -15 10 -15 5 0 7 7 4 15 -4 8 -8 15 -10 15 -2 0
-4 -7 -4 -15z"/>
<path d="M7370 2201 c0 -5 5 -13 10 -16 6 -3 10 -2 10 4 0 5 -4 13 -10 16 -5
3 -10 2 -10 -4z"/>
<path d="M2850 2191 c0 -5 7 -14 15 -21 13 -10 15 -9 15 9 0 12 -6 21 -15 21
-8 0 -15 -4 -15 -9z"/>
<path d="M7410 2178 c0 -9 5 -20 10 -23 13 -8 13 5 0 25 -8 13 -10 13 -10 -2z"/>
<path d="M7451 2174 c0 -11 3 -14 6 -6 3 7 2 16 -1 19 -3 4 -6 -2 -5 -13z"/>
<path d="M7575 2180 c3 -5 8 -10 11 -10 2 0 4 5 4 10 0 6 -5 10 -11 10 -5 0
-7 -4 -4 -10z"/>
<path d="M7995 2181 c-3 -5 -1 -12 5 -16 5 -3 10 1 10 9 0 18 -6 21 -15 7z"/>
<path d="M7350 2152 c0 -5 7 -13 16 -16 10 -4 14 -1 12 6 -5 15 -28 23 -28 10z"/>
<path d="M7543 2140 c3 -10 0 -21 -7 -24 -6 -2 -2 -5 9 -5 15 -1 16 -4 7 -13
-17 -17 -15 -38 3 -38 18 0 19 -12 4 -27 -8 -8 -8 -13 0 -17 6 -4 11 0 11 8 0
9 4 16 9 16 5 0 7 9 4 20 -3 11 -9 20 -14 20 -5 0 -9 5 -9 11 0 5 5 7 10 4 6
-3 10 -1 10 4 0 6 -4 11 -10 11 -5 0 -10 5 -10 11 0 5 5 7 10 4 6 -3 15 -3 20
0 16 10 -8 35 -32 35 -15 0 -19 -5 -15 -20z"/>
<path d="M2075 2139 c-4 -6 -5 -12 -2 -15 2 -3 7 2 10 11 7 17 1 20 -8 4z"/>
<path d="M2674 2129 c0 -10 4 -19 8 -19 4 0 8 6 8 14 0 8 -4 17 -8 20 -4 2 -8
-4 -8 -15z"/>
<path d="M7057 2133 c-4 -3 -7 -11 -7 -17 0 -6 5 -5 12 2 6 6 9 14 7 17 -3 3
-9 2 -12 -2z"/>
<path d="M7670 2136 c0 -2 7 -9 15 -16 13 -11 14 -10 9 4 -5 14 -24 23 -24 12z"/>
<path d="M5061 2114 c0 -11 3 -14 6 -6 3 7 2 16 -1 19 -3 4 -6 -2 -5 -13z"/>
<path d="M7460 2120 c0 -5 5 -10 10 -10 6 0 10 5 10 10 0 6 -4 10 -10 10 -5 0
-10 -4 -10 -10z"/>
<path d="M7376 2105 c4 -8 8 -15 10 -15 2 0 4 7 4 15 0 8 -4 15 -10 15 -5 0
-7 -7 -4 -15z"/>
<path d="M2057 2104 c-4 -4 -7 -14 -7 -23 0 -11 3 -12 11 -4 6 6 10 16 7 23
-2 6 -7 8 -11 4z"/>
<path d="M7710 2101 c0 -6 5 -13 10 -16 6 -3 10 1 10 9 0 9 -4 16 -10 16 -5 0
-10 -4 -10 -9z"/>
<path d="M7673 2087 c-22 -12 -22 -13 -3 -25 17 -10 21 -10 26 2 10 26 0 35
-23 23z"/>
<path d="M2490 2080 c0 -5 5 -10 11 -10 5 0 7 5 4 10 -3 6 -8 10 -11 10 -2 0
-4 -4 -4 -10z"/>
<path d="M5816 2062 c-13 -25 -13 -28 3 -28 13 0 18 8 19 28 0 15 -1 28 -3 28
-3 0 -11 -13 -19 -28z"/>
<path d="M6955 2070 c-3 -5 -1 -10 4 -10 6 0 11 5 11 10 0 6 -2 10 -4 10 -3 0
-8 -4 -11 -10z"/>
<path d="M2900 2060 c0 -5 5 -10 11 -10 5 0 7 5 4 10 -3 6 -8 10 -11 10 -2 0
-4 -4 -4 -10z"/>
<path d="M5077 2063 c-4 -3 -7 -11 -7 -17 0 -6 5 -5 12 2 6 6 9 14 7 17 -3 3
-9 2 -12 -2z"/>
<path d="M7311 2059 c-2 -18 22 -68 31 -63 6 4 6 9 1 13 -5 3 -14 17 -20 31
-6 14 -12 22 -12 19z"/>
<path d="M7617 2053 c-9 -8 25 -33 36 -26 4 3 3 11 -4 19 -13 15 -22 18 -32 7z"/>
<path d="M600 2040 c0 -5 5 -10 11 -10 5 0 7 5 4 10 -3 6 -8 10 -11 10 -2 0
-4 -4 -4 -10z"/>
<path d="M7420 2034 c0 -8 5 -12 10 -9 6 3 10 10 10 16 0 5 -4 9 -10 9 -5 0
-10 -7 -10 -16z"/>
<path d="M7670 2038 c0 -3 -3 -13 -6 -22 -3 -9 -1 -16 4 -16 6 0 13 8 15 18 4
15 5 15 6 -1 0 -11 -7 -21 -17 -23 -9 -3 -22 -16 -29 -30 -9 -21 -8 -26 7 -34
15 -8 20 -6 25 9 3 10 4 23 3 27 -2 5 8 20 21 33 16 16 26 20 29 13 2 -7 11
-12 20 -12 12 0 11 5 -7 24 -20 21 -71 32 -71 14z"/>
<path d="M2855 2030 c-3 -5 -1 -10 4 -10 6 0 11 5 11 10 0 6 -2 10 -4 10 -3 0
-8 -4 -11 -10z"/>
<path d="M6055 2030 c-3 -5 -1 -10 4 -10 6 0 11 5 11 10 0 6 -2 10 -4 10 -3 0
-8 -4 -11 -10z"/>
<path d="M8180 2022 c6 -13 14 -21 18 -18 3 4 -2 14 -12 24 -18 16 -18 16 -6
-6z"/>
<path d="M7490 2011 c0 -5 7 -12 16 -15 24 -9 28 -7 14 9 -14 17 -30 20 -30 6z"/>
<path d="M5850 1980 c0 -5 5 -10 11 -10 5 0 7 5 4 10 -3 6 -8 10 -11 10 -2 0
-4 -4 -4 -10z"/>
<path d="M7060 1975 c0 -8 7 -15 15 -15 9 0 12 6 9 15 -4 8 -10 15 -15 15 -5
0 -9 -7 -9 -15z"/>
<path d="M7712 1965 c-9 -19 -9 -25 1 -25 6 0 19 -5 27 -10 22 -15 -7 -32 -32
-19 -12 7 -18 6 -18 -1 0 -6 6 -13 14 -16 8 -3 22 -17 31 -31 16 -24 16 -24
-4 -14 -25 14 -31 14 -31 -1 0 -7 14 -22 30 -33 16 -11 30 -24 30 -29 0 -4
-16 4 -36 19 -36 28 -57 28 -34 0 9 -11 9 -19 2 -28 -12 -15 -5 -57 10 -57 5
0 6 9 3 21 -6 19 -5 20 15 9 17 -9 19 -14 9 -26 -6 -8 -20 -14 -30 -14 -20 0
-25 -15 -9 -25 6 -3 10 -2 10 3 0 5 7 9 15 9 8 0 15 -6 15 -14 0 -7 5 -13 10
-13 6 0 10 -5 10 -12 0 -6 -9 -3 -20 7 -35 32 -21 2 23 -48 l42 -49 1 31 c1
19 -4 31 -12 31 -7 0 -15 4 -18 9 -4 5 2 7 13 4 24 -6 37 26 17 45 -12 12 -18
13 -29 3 -12 -9 -16 -8 -21 5 -9 22 -8 26 5 18 14 -8 -9 35 -28 54 -8 8 -11
17 -8 20 3 3 19 -10 35 -29 l30 -34 -2 30 c0 17 3 38 7 48 6 14 4 16 -11 10
-15 -5 -13 0 9 26 28 34 34 51 17 51 -5 0 -10 -4 -10 -10 0 -19 -18 -10 -23
11 -5 17 -2 20 14 16 10 -3 22 -1 25 4 9 16 25 10 22 -8 -2 -10 3 -18 10 -19
23 -3 24 -4 13 -18 -9 -11 -7 -15 11 -19 29 -8 34 -2 15 17 -8 8 -12 25 -10
39 5 25 -20 56 -31 38 -4 -6 -15 -2 -27 10 -11 11 -27 18 -34 15 -7 -2 -19 2
-25 10 -17 20 -25 18 -38 -11z m78 -295 c0 -5 -5 -10 -11 -10 -5 0 -7 5 -4 10
3 6 8 10 11 10 2 0 4 -4 4 -10z"/>
<path d="M8050 1980 c0 -5 5 -10 11 -10 5 0 7 5 4 10 -3 6 -8 10 -11 10 -2 0
-4 -4 -4 -10z"/>
<path d="M6970 1971 c0 -6 4 -13 10 -16 6 -3 7 1 4 9 -7 18 -14 21 -14 7z"/>
<path d="M7355 1970 c3 -5 8 -10 11 -10 2 0 4 5 4 10 0 6 -5 10 -11 10 -5 0
-7 -4 -4 -10z"/>
<path d="M5155 1960 c4 -6 11 -8 16 -5 14 9 11 15 -7 15 -8 0 -12 -5 -9 -10z"/>
<path d="M7570 1962 c0 -5 7 -9 15 -9 8 0 12 4 9 9 -3 4 -9 8 -15 8 -5 0 -9
-4 -9 -8z"/>
<path d="M7875 1950 c3 -5 8 -10 11 -10 2 0 4 5 4 10 0 6 -5 10 -11 10 -5 0
-7 -4 -4 -10z"/>
<path d="M8180 1945 c0 -8 2 -15 4 -15 2 0 6 7 10 15 3 8 1 15 -4 15 -6 0 -10
-7 -10 -15z"/>
<path d="M5050 1943 c0 -13 29 -38 35 -31 3 3 -4 13 -15 23 -11 10 -20 13 -20
8z"/>
<path d="M5861 1928 c0 -16 2 -18 6 -8 3 8 11 18 17 22 7 5 4 8 -6 8 -12 0
-18 -7 -17 -22z"/>
<path d="M6870 1940 c0 -5 4 -10 9 -10 6 0 13 5 16 10 3 6 -1 10 -9 10 -9 0
-16 -4 -16 -10z"/>
<path d="M6909 1933 c-13 -15 -12 -15 9 -4 23 12 28 21 13 21 -5 0 -15 -7 -22
-17z"/>
<path d="M7508 1943 c6 -2 18 -2 25 0 6 3 1 5 -13 5 -14 0 -19 -2 -12 -5z"/>
<path d="M7456 1927 c3 -10 9 -15 12 -12 3 3 0 11 -7 18 -10 9 -11 8 -5 -6z"/>
<path d="M7576 1908 c11 -38 24 -56 20 -28 -3 14 -5 31 -5 38 -1 6 -6 12 -12
12 -6 0 -8 -9 -3 -22z"/>
<path d="M7900 1911 c0 -5 5 -13 10 -16 6 -3 10 -2 10 4 0 5 -4 13 -10 16 -5
3 -10 2 -10 -4z"/>
<path d="M8155 1910 c3 -5 11 -10 16 -10 6 0 7 5 4 10 -3 6 -11 10 -16 10 -6
0 -7 -4 -4 -10z"/>
<path d="M7376 1897 c3 -10 9 -15 12 -12 3 3 0 11 -7 18 -10 9 -11 8 -5 -6z"/>
<path d="M5040 1886 c0 -9 5 -16 10 -16 6 0 10 4 10 9 0 6 -4 13 -10 16 -5 3
-10 -1 -10 -9z"/>
<path d="M5170 1889 c0 -5 5 -7 10 -4 6 3 10 8 10 11 0 2 -4 4 -10 4 -5 0 -10
-5 -10 -11z"/>
<path d="M6950 1891 c0 -5 7 -12 16 -15 14 -5 15 -4 4 9 -14 17 -20 19 -20 6z"/>
<path d="M5091 1886 c2 -2 15 -9 29 -16 23 -12 24 -12 11 3 -7 10 -20 17 -29
17 -8 0 -13 -2 -11 -4z"/>
<path d="M8005 1869 c-9 -14 -2 -20 14 -10 8 6 9 11 3 15 -6 3 -14 1 -17 -5z"/>
<path d="M7925 1850 c-8 -14 3 -30 21 -30 8 0 14 5 14 10 0 6 -3 9 -7 9 -20
-3 -26 2 -13 11 9 6 10 10 3 10 -6 0 -15 -4 -18 -10z"/>
<path d="M5090 1840 c8 -5 20 -10 25 -10 6 0 3 5 -5 10 -8 5 -19 10 -25 10 -5
0 -3 -5 5 -10z"/>
<path d="M7030 1846 c0 -2 7 -7 16 -10 8 -3 12 -2 9 4 -6 10 -25 14 -25 6z"/>
<path d="M7822 1815 c-19 -42 -14 -53 8 -17 22 36 24 42 12 42 -5 0 -14 -11
-20 -25z"/>
<path d="M8002 1814 c6 -13 15 -21 19 -18 16 9 9 32 -10 37 -17 4 -18 2 -9
-19z"/>
<path d="M5035 1820 c-3 -5 -1 -10 4 -10 6 0 11 5 11 10 0 6 -2 10 -4 10 -3 0
-8 -4 -11 -10z"/>
<path d="M7143 1812 c1 -14 5 -18 11 -12 7 7 6 14 -1 21 -9 9 -12 7 -10 -9z"/>
<path d="M7873 1818 c-28 -45 34 -93 67 -53 20 24 -3 43 -25 21 -24 -23 -32
-20 -9 5 16 17 16 22 4 29 -20 13 -27 12 -37 -2z"/>
<path d="M5151 1804 c0 -11 3 -14 6 -6 3 7 2 16 -1 19 -3 4 -6 -2 -5 -13z"/>
<path d="M5190 1806 c0 -2 7 -9 15 -16 13 -11 14 -10 9 4 -5 14 -24 23 -24 12z"/>
<path d="M5451 1772 c13 -17 27 -31 32 -31 12 -1 -14 35 -36 49 -18 11 -17 8
4 -18z"/>
<path d="M8050 1792 c0 -5 7 -9 15 -9 8 0 12 4 9 9 -3 4 -9 8 -15 8 -5 0 -9
-4 -9 -8z"/>
<path d="M8100 1789 c0 -5 5 -7 10 -4 6 3 10 8 10 11 0 2 -4 4 -10 4 -5 0 -10
-5 -10 -11z"/>
<path d="M1757 1774 c6 -15 23 -19 23 -5 0 5 -7 11 -14 14 -10 4 -13 1 -9 -9z"/>
<path d="M2160 1777 c0 -10 8 -17 18 -17 9 0 13 4 7 8 -5 4 -13 11 -17 16 -5
5 -8 2 -8 -7z"/>
<path d="M6880 1780 c0 -5 5 -10 10 -10 6 0 10 5 10 10 0 6 -4 10 -10 10 -5 0
-10 -4 -10 -10z"/>
<path d="M7084 1771 c0 -9 8 -17 18 -17 10 0 18 4 18 8 0 4 -8 12 -18 17 -14
7 -18 6 -18 -8z"/>
<path d="M573 1740 c0 -25 2 -35 4 -22 2 12 2 32 0 45 -2 12 -4 2 -4 -23z"/>
<path d="M1970 1770 c0 -5 5 -10 10 -10 6 0 10 5 10 10 0 6 -4 10 -10 10 -5 0
-10 -4 -10 -10z"/>
<path d="M5190 1770 c0 -5 5 -10 11 -10 5 0 7 5 4 10 -3 6 -8 10 -11 10 -2 0
-4 -4 -4 -10z"/>
<path d="M7597 1760 c-3 -11 -1 -20 4 -20 5 0 9 -7 9 -15 0 -8 5 -15 10 -15
12 0 13 17 1 24 -5 3 -7 15 -4 26 3 11 1 20 -5 20 -5 0 -12 -9 -15 -20z"/>
<path d="M1885 1760 c-3 -5 -2 -10 4 -10 5 0 13 5 16 10 3 6 2 10 -4 10 -5 0
-13 -4 -16 -10z"/>
<path d="M831 1751 c-8 -6 -9 -11 -3 -15 6 -3 14 -1 17 5 9 14 2 20 -14 10z"/>
<path d="M1803 1742 c10 -10 17 -25 17 -32 0 -10 3 -11 11 -3 8 8 5 17 -10 32
-26 26 -40 28 -18 3z"/>
<path d="M7945 1750 c-8 -13 4 -32 16 -25 12 8 12 35 0 35 -6 0 -13 -4 -16
-10z"/>
<path d="M8010 1752 c0 -10 22 -32 32 -32 5 0 3 9 -4 20 -13 20 -28 27 -28 12z"/>
<path d="M2730 1740 c0 -5 5 -10 10 -10 6 0 10 5 10 10 0 6 -4 10 -10 10 -5 0
-10 -4 -10 -10z"/>
<path d="M5161 1734 c0 -11 3 -14 6 -6 3 7 2 16 -1 19 -3 4 -6 -2 -5 -13z"/>
<path d="M7823 1715 c23 -36 37 -44 37 -22 0 13 -40 57 -53 57 -3 0 4 -16 16
-35z"/>
<path d="M7867 1731 c14 -12 20 -25 17 -39 -3 -11 -1 -23 5 -26 7 -4 11 1 11
13 0 14 5 19 14 15 27 -10 10 27 -18 41 -39 21 -55 18 -29 -4z"/>
<path d="M2250 1736 c0 -2 7 -7 16 -10 8 -3 12 -2 9 4 -6 10 -25 14 -25 6z"/>
<path d="M5800 1731 c0 -5 7 -11 14 -14 10 -4 13 -1 9 9 -6 15 -23 19 -23 5z"/>
<path d="M785 1720 c-3 -5 -1 -10 4 -10 6 0 11 5 11 10 0 6 -2 10 -4 10 -3 0
-8 -4 -11 -10z"/>
<path d="M6780 1722 c0 -5 10 -17 22 -28 l21 -19 -18 28 c-18 28 -25 33 -25
19z"/>
<path d="M8075 1719 c-4 -6 -5 -13 -2 -16 7 -7 27 6 27 18 0 12 -17 12 -25 -2z"/>
<path d="M8125 1720 c3 -5 8 -10 11 -10 2 0 4 5 4 10 0 6 -5 10 -11 10 -5 0
-7 -4 -4 -10z"/>
<path d="M2400 1709 c0 -5 5 -7 10 -4 6 3 10 8 10 11 0 2 -4 4 -10 4 -5 0 -10
-5 -10 -11z"/>
<path d="M2700 1703 c0 -13 5 -23 10 -23 13 0 13 11 0 30 -8 12 -10 11 -10 -7z"/>
<path d="M5140 1711 c0 -6 4 -13 10 -16 6 -3 7 1 4 9 -7 18 -14 21 -14 7z"/>
<path d="M5540 1710 c0 -5 5 -10 10 -10 6 0 10 5 10 10 0 6 -4 10 -10 10 -5 0
-10 -4 -10 -10z"/>
<path d="M7060 1711 c0 -5 5 -13 10 -16 6 -3 10 -2 10 4 0 5 -4 13 -10 16 -5
3 -10 2 -10 -4z"/>
<path d="M7984 1701 c9 -10 14 -25 10 -35 -8 -21 1 -20 25 1 20 16 20 17 -10
35 -38 23 -47 23 -25 -1z"/>
<path d="M1920 1694 c0 -8 5 -12 10 -9 6 3 10 10 10 16 0 5 -4 9 -10 9 -5 0
-10 -7 -10 -16z"/>
<path d="M1980 1700 c0 -5 5 -10 10 -10 6 0 10 5 10 10 0 6 -4 10 -10 10 -5 0
-10 -4 -10 -10z"/>
<path d="M2105 1700 c3 -5 8 -10 11 -10 2 0 4 5 4 10 0 6 -5 10 -11 10 -5 0
-7 -4 -4 -10z"/>
<path d="M7140 1694 c-11 -12 -11 -18 2 -30 13 -13 15 -12 15 16 0 35 0 35
-17 14z"/>
<path d="M7500 1698 c0 -9 5 -20 10 -23 13 -8 13 5 0 25 -8 13 -10 13 -10 -2z"/>
<path d="M7941 1689 c8 -15 8 -19 0 -15 -6 4 -11 3 -11 -2 0 -6 7 -12 15 -16
8 -3 15 -11 15 -17 0 -7 -9 -5 -25 5 -31 20 -34 3 -3 -18 27 -19 38 -6 33 36
-4 32 -12 48 -26 48 -6 0 -5 -8 2 -21z"/>
<path d="M2890 1680 c0 -5 5 -10 10 -10 6 0 10 5 10 10 0 6 -4 10 -10 10 -5 0
-10 -4 -10 -10z"/>
<path d="M6080 1682 c0 -4 9 -8 20 -9 11 -1 20 2 20 8 0 5 -9 9 -20 9 -11 0
-20 -4 -20 -8z"/>
<path d="M6770 1680 c0 -5 5 -10 11 -10 5 0 7 5 4 10 -3 6 -8 10 -11 10 -2 0
-4 -4 -4 -10z"/>
<path d="M1815 1670 c3 -5 8 -10 11 -10 2 0 4 5 4 10 0 6 -5 10 -11 10 -5 0
-7 -4 -4 -10z"/>
<path d="M6220 1378 c-80 -165 -149 -312 -155 -328 -5 -16 -14 -32 -19 -37 -5
-5 -7 -1 -3 10 4 9 2 17 -3 17 -6 0 -10 -5 -10 -11 0 -5 -4 -8 -9 -5 -4 3 -14
-14 -21 -37 -8 -23 -31 -67 -51 -99 -20 -31 -42 -73 -49 -95 -7 -21 -17 -43
-22 -49 -5 -7 -22 -49 -39 -95 -25 -70 -28 -85 -16 -94 18 -13 18 -75 0 -75
-7 0 -13 -5 -13 -11 0 -29 44 21 54 62 22 83 59 159 80 165 12 2 139 3 283 1
143 -3 266 -1 272 2 7 5 6 32 -4 86 -8 44 -14 92 -15 107 0 14 -5 28 -11 30
-6 2 5 16 25 31 l36 28 30 -31 c32 -33 52 -37 90 -15 14 8 27 14 30 15 3 0 4
-32 2 -70 -2 -39 -1 -94 2 -124 l7 -54 52 -6 c45 -6 333 -8 395 -3 22 1 22 2
22 178 l0 177 42 41 c24 22 50 41 60 41 14 0 15 -5 6 -37 -6 -21 -16 -50 -24
-65 -8 -15 -14 -46 -13 -70 0 -24 3 -38 5 -32 3 6 15 9 27 7 17 -3 33 7 62 39
22 24 52 52 66 64 15 11 43 45 62 76 47 72 63 88 93 88 27 0 35 -14 54 -100 7
-30 20 -82 30 -115 10 -33 28 -103 41 -155 37 -155 6 -139 269 -142 125 -2
234 -2 242 0 20 4 28 34 16 56 -6 10 -5 16 2 16 6 0 10 25 10 60 0 36 -4 60
-11 60 -5 0 -7 -4 -4 -10 9 -15 -2 -12 -19 6 -9 8 -16 20 -16 27 0 6 6 3 13
-6 8 -11 17 -14 25 -8 11 7 14 58 13 254 -1 135 -4 252 -7 261 -3 8 -12 17
-20 20 -12 5 -12 1 1 -24 17 -33 22 -116 5 -90 -8 12 -10 10 -10 -8 0 -13 4
-20 10 -17 6 4 10 -15 10 -49 0 -45 -3 -56 -16 -56 -10 0 -14 -5 -10 -16 3 -9
2 -12 -5 -8 -6 3 -9 15 -6 25 6 21 -9 27 -15 7 -3 -7 -7 -5 -11 6 -4 9 -3 15
2 12 10 -7 37 41 28 50 -4 4 -11 -4 -16 -17 -5 -13 -10 -18 -10 -10 -1 7 -7
11 -15 8 -10 -4 -13 -1 -9 9 3 9 -2 14 -15 14 -11 0 -22 5 -24 11 -3 9 -9 9
-26 0 -19 -10 -21 -9 -15 5 4 11 2 15 -4 11 -10 -6 -28 63 -24 91 1 6 -5 12
-14 12 -8 0 -15 -7 -15 -15 0 -8 4 -15 10 -15 5 0 7 -6 4 -14 -3 -8 -1 -17 5
-21 18 -10 13 -23 -11 -31 -13 -4 -36 -17 -51 -30 -16 -13 -40 -27 -55 -31
-15 -3 -41 -15 -59 -25 -18 -11 -37 -17 -42 -13 -6 3 -19 0 -30 -7 -11 -7 -23
-9 -27 -5 -9 9 -1 18 19 21 21 3 150 67 171 85 10 9 22 26 27 39 9 22 29 31
29 11 0 -5 -4 -7 -10 -4 -5 3 -10 1 -10 -4 0 -6 7 -11 15 -11 8 0 15 9 15 20
0 23 -12 25 -42 9 -16 -9 -19 -8 -13 1 6 10 1 12 -19 8 -14 -3 -26 -1 -26 3 0
5 6 9 13 9 8 0 8 3 2 8 -18 12 -11 29 23 63 38 38 41 53 7 47 -17 -4 -25 -1
-25 9 0 8 -5 11 -10 8 -6 -4 -7 -11 -4 -17 4 -6 0 -15 -7 -20 -11 -7 -11 -11
-1 -15 14 -6 16 -33 2 -33 -5 0 -10 5 -10 10 0 6 -9 20 -20 32 -14 15 -17 25
-10 33 16 19 -7 72 -23 56 -9 -9 -9 -16 1 -31 15 -24 15 -30 2 -30 -6 0 -15
10 -20 23 l-9 22 0 -22 c-1 -13 4 -23 9 -23 6 0 10 -7 10 -15 0 -19 -7 -19
-26 -1 -8 8 -11 23 -8 33 5 17 5 17 -6 0 -9 -14 -9 -22 -1 -30 13 -13 14 -27
2 -27 -16 0 -41 31 -35 42 4 7 2 8 -5 4 -6 -4 -9 -12 -6 -17 11 -17 -12 -9
-29 10 -19 21 -46 18 -46 -5 0 -8 3 -14 8 -14 4 0 8 -14 9 -32 2 -32 2 -32
-13 -9 -9 12 -13 25 -10 28 6 6 -23 32 -37 33 -4 0 0 -14 8 -31 9 -17 14 -33
11 -37 -3 -3 -6 1 -6 8 0 7 -9 3 -21 -11 l-22 -24 6 23 c3 12 1 22 -4 22 -5 0
-9 7 -9 15 0 8 -4 15 -10 15 -5 0 -10 -7 -10 -15 0 -20 -17 -19 -29 3 -6 10
-11 12 -11 4 0 -8 -5 -10 -12 -6 -7 5 -9 2 -5 -9 19 -50 28 -106 23 -140 l-6
-39 51 51 c28 28 57 51 64 51 25 0 37 -29 33 -84 -1 -30 -1 -53 2 -51 10 6 42
-24 35 -34 -22 -37 -78 25 -73 81 2 21 0 38 -4 38 -3 0 -20 -17 -37 -37 -17
-20 -33 -34 -37 -30 -8 8 -95 -93 -89 -103 9 -15 -70 -91 -98 -96 -29 -5 -29
-5 19 56 26 33 50 60 54 60 4 0 22 19 40 43 l33 42 -44 -43 c-25 -23 -55 -42
-67 -42 -21 0 -22 3 -17 65 4 57 3 65 -13 64 -9 0 -12 -3 -5 -5 17 -7 4 -34
-13 -27 -9 3 -13 12 -10 20 3 8 1 11 -4 8 -6 -3 -7 -17 -4 -30 4 -16 -1 -30
-15 -44 -11 -11 -15 -21 -9 -23 7 -3 6 -8 -3 -16 -205 -169 -322 -243 -391
-249 -28 -2 -36 1 -32 11 3 8 14 12 24 9 25 -7 143 51 204 101 28 23 65 51 81
63 25 19 27 21 8 16 -13 -3 -23 -1 -23 5 0 6 -5 68 -11 137 -9 102 -8 129 3
142 9 12 10 15 0 9 -20 -12 -35 41 -20 75 7 15 17 25 23 22 5 -3 4 0 -3 8 -11
12 -15 11 -23 -4 -8 -14 -14 -16 -24 -7 -8 7 -18 9 -24 6 -12 -8 -2 -46 13
-46 6 0 4 -5 -4 -10 -22 -14 -26 -12 -27 11 -3 40 -43 52 -43 13 0 -8 -4 -12
-10 -9 -9 6 -14 -10 -13 -42 0 -6 -6 -9 -16 -5 -26 10 -50 45 -51 75 0 15 -4
27 -8 27 -12 0 -8 -51 6 -77 11 -20 10 -23 -13 -29 -14 -3 -36 -3 -50 0 -16 4
-25 2 -25 -5 0 -7 -3 -9 -6 -6 -4 4 -1 14 7 24 8 9 9 14 3 10 -7 -4 -17 0 -24
8 -11 13 -10 14 2 10 11 -4 13 2 10 30 -4 30 -7 35 -24 29 -10 -3 -26 0 -35 8
-14 11 -15 11 -11 -2 2 -8 14 -16 26 -18 12 -2 22 -10 22 -18 0 -8 -7 -14 -16
-12 -10 2 -19 -3 -22 -11 -3 -10 0 -12 12 -8 9 4 16 1 16 -4 0 -6 -9 -9 -20
-6 -11 3 -30 -3 -44 -14 -28 -22 -52 -25 -59 -6 -2 6 -2 -47 0 -120 3 -123 2
-132 -16 -138 -11 -3 -29 -22 -40 -41 -11 -19 -29 -37 -38 -40 -44 -14 -68
-31 -85 -61 -26 -44 -46 -49 -58 -15 -5 15 -16 40 -25 55 -8 16 -15 40 -15 53
0 14 -9 71 -19 127 -11 56 -25 151 -31 210 -11 96 -10 110 4 126 17 19 21 49
8 67 -4 6 -72 -123 -152 -288z m1470 87 c0 -14 -4 -25 -10 -25 -8 0 -8 23 -1
48 4 12 11 -3 11 -23z m-640 -18 c0 -5 10 -6 23 -2 18 5 19 4 5 -5 -11 -7 -25
-7 -42 0 -31 11 -34 19 -6 17 11 -1 20 -5 20 -10z m69 -26 c8 -5 15 -19 16
-30 1 -11 -2 -18 -7 -15 -4 3 -8 12 -8 20 0 8 -10 19 -22 24 -13 5 -16 9 -8 9
8 0 21 -3 29 -8z m-274 -29 c-3 -3 -11 0 -18 7 -9 10 -8 11 6 5 10 -3 15 -9
12 -12z m-537 -157 c-12 -14 -25 -25 -30 -25 -22 0 -128 -119 -128 -145 0 -3
14 -5 31 -5 44 0 135 63 160 111 16 33 39 52 39 34 0 -22 -33 -76 -61 -100
-19 -15 -33 -31 -32 -35 1 -4 -9 -12 -22 -18 -14 -7 -25 -8 -25 -3 0 7 -98
-10 -133 -24 -10 -4 -31 -27 -48 -52 -32 -46 -50 -53 -28 -11 54 101 235 298
274 298 l25 0 -22 -25z m68 -13 c-22 -5 -30 3 -21 18 5 8 11 7 22 -2 15 -12
14 -13 -1 -16z m455 -13 c13 -11 18 -17 10 -13 -11 5 -13 3 -8 -10 6 -16 5
-16 -21 -1 -26 15 -31 16 -65 1 -20 -8 -37 -21 -37 -28 0 -7 -10 -24 -21 -38
-11 -14 -18 -20 -14 -13 3 7 -12 0 -35 -14 -22 -15 -40 -30 -40 -34 0 -12
-230 -163 -236 -156 -4 3 19 22 49 41 30 20 76 53 101 75 25 22 59 48 76 58
16 9 30 20 30 24 0 14 54 72 94 100 46 34 85 37 117 8z m89 -24 c0 -14 -5 -25
-11 -25 -5 0 -7 -4 -4 -10 3 -5 2 -10 -4 -10 -6 0 -8 -7 -5 -15 4 -11 2 -13
-9 -9 -9 3 -31 -9 -56 -31 -23 -21 -41 -33 -41 -29 -1 5 -8 -3 -16 -18 -8 -16
-22 -28 -31 -28 -9 0 -26 -9 -38 -20 -12 -11 -25 -16 -33 -12 -8 6 4 20 36 44
26 20 79 70 117 111 39 42 76 76 83 76 6 1 12 -10 12 -24z m1225 -45 c-4 -12
0 -31 9 -45 18 -27 20 -35 8 -35 -5 0 -16 16 -25 36 -14 28 -15 39 -6 50 16
20 21 17 14 -6z m-31 -39 c14 -26 14 -30 1 -35 -16 -6 -17 -4 -20 37 -3 34 1
34 19 -2z m83 -28 c-3 -10 -5 -4 -5 12 0 17 2 24 5 18 2 -7 2 -21 0 -30z
m-1359 -64 c-1 -28 -4 -36 -10 -25 -8 14 -1 66 8 66 2 0 3 -18 2 -41z m1332
31 c0 -5 -5 -10 -11 -10 -5 0 -7 5 -4 10 3 6 8 10 11 10 2 0 4 -4 4 -10z m-10
-90 c6 -11 7 -20 2 -20 -6 0 -12 9 -15 20 -3 11 -3 20 -1 20 2 0 8 -9 14 -20z
m31 -43 c-10 -9 -11 -8 -5 6 3 10 9 15 12 12 3 -3 0 -11 -7 -18z m-1852 -22
c-8 -9 -25 -17 -36 -20 -12 -2 -30 -8 -41 -14 -11 -6 -22 -7 -26 -4 -3 3 18
16 47 29 63 27 76 29 56 9z m-359 -35 c-11 -20 -30 -28 -30 -12 0 11 22 32 32
32 5 0 4 -9 -2 -20z m240 -10 c0 -5 -7 -10 -15 -10 -8 0 -15 5 -15 10 0 6 7
10 15 10 8 0 15 -4 15 -10z m1953 -107 c-4 -10 -9 -11 -19 -2 -18 15 -18 15 5
15 11 0 17 -5 14 -13z m-56 -18 c0 -8 -4 -15 -9 -15 -10 0 -11 14 -1 23 9 10
10 9 10 -8z m-2267 -135 c0 -5 -5 -10 -11 -10 -5 0 -7 5 -4 10 3 6 8 10 11 10
2 0 4 -4 4 -10z"/>
<path d="M8055 1669 c-4 -6 -5 -12 -2 -15 2 -3 7 2 10 11 7 17 1 20 -8 4z"/>
<path d="M580 1660 c0 -5 7 -10 16 -10 8 0 12 5 9 10 -3 6 -10 10 -16 10 -5 0
-9 -4 -9 -10z"/>
<path d="M7675 1660 c-3 -5 -4 -19 0 -30 8 -25 37 -14 33 13 -3 23 -23 33 -33
17z"/>
<path d="M8120 1660 c0 -5 5 -10 11 -10 5 0 7 -5 3 -12 -4 -7 -3 -8 5 -4 9 6
9 11 0 22 -14 17 -19 18 -19 4z"/>
<path d="M6110 1650 c0 -5 5 -10 10 -10 6 0 10 5 10 10 0 6 -4 10 -10 10 -5 0
-10 -4 -10 -10z"/>
<path d="M7070 1645 c-7 -8 -9 -15 -6 -15 4 0 14 7 22 15 9 8 11 15 6 15 -5 0
-15 -7 -22 -15z"/>
<path d="M7640 1649 c0 -5 5 -7 10 -4 6 3 10 8 10 11 0 2 -4 4 -10 4 -5 0 -10
-5 -10 -11z"/>
<path d="M7860 1652 c0 -6 6 -12 13 -15 9 -3 9 -8 1 -18 -6 -8 -7 -27 -3 -44
8 -36 10 -33 13 23 1 25 -3 47 -11 54 -9 7 -13 7 -13 0z"/>
<path d="M5930 1640 c0 -5 5 -10 10 -10 6 0 10 5 10 10 0 6 -4 10 -10 10 -5 0
-10 -4 -10 -10z"/>
<path d="M6865 1624 c2 -33 15 -43 15 -11 0 14 -4 28 -8 31 -4 2 -7 -6 -7 -20z"/>
<path d="M7530 1639 c0 -5 5 -7 10 -4 6 3 10 8 10 11 0 2 -4 4 -10 4 -5 0 -10
-5 -10 -11z"/>
<path d="M1936 1623 c-6 -14 -5 -15 5 -6 7 7 10 15 7 18 -3 3 -9 -2 -12 -12z"/>
<path d="M6027 1631 c-17 -6 -17 -8 -3 -20 14 -11 16 -11 16 3 0 10 4 15 9 11
5 -3 12 -1 16 5 7 11 -11 12 -38 1z"/>
<path d="M7098 1633 c7 -3 16 -2 19 1 4 3 -2 6 -13 5 -11 0 -14 -3 -6 -6z"/>
<path d="M8202 1612 c-1 -21 -6 -31 -13 -26 -8 5 -8 1 0 -14 6 -11 11 -39 11
-61 0 -32 -3 -39 -15 -35 -8 4 -15 1 -15 -4 0 -6 -8 -13 -17 -15 -15 -4 -14
-5 3 -6 11 0 25 -6 32 -13 18 -18 23 9 19 113 -1 52 -4 79 -5 61z"/>
<path d="M7025 1620 c3 -5 8 -10 11 -10 2 0 4 5 4 10 0 6 -5 10 -11 10 -5 0
-7 -4 -4 -10z"/>
<path d="M8027 1612 c-15 -16 -15 -19 3 -30 26 -16 51 -15 48 1 -2 7 5 11 17
10 11 -1 14 0 7 3 -6 3 -10 10 -6 15 3 5 1 9 -5 9 -5 0 -13 -5 -17 -12 -5 -8
-11 -6 -19 5 -11 16 -13 15 -28 -1z"/>
<path d="M5235 1610 c3 -5 8 -10 11 -10 2 0 4 5 4 10 0 6 -5 10 -11 10 -5 0
-7 -4 -4 -10z"/>
<path d="M5975 1610 c3 -5 10 -10 16 -10 5 0 9 5 9 10 0 6 -7 10 -16 10 -8 0
-12 -4 -9 -10z"/>
<path d="M6900 1604 c0 -8 5 -12 10 -9 6 3 10 10 10 16 0 5 -4 9 -10 9 -5 0
-10 -7 -10 -16z"/>
<path d="M7108 1613 c-10 -3 -18 -11 -18 -19 0 -17 17 -19 23 -1 3 8 11 6 27
-8 l23 -20 -12 22 c-14 26 -21 31 -43 26z"/>
<path d="M5920 1600 c0 -5 5 -10 10 -10 6 0 10 5 10 10 0 6 -4 10 -10 10 -5 0
-10 -4 -10 -10z"/>
<path d="M6962 1601 c2 -7 7 -12 11 -12 12 1 9 15 -3 20 -7 2 -11 -2 -8 -8z"/>
<path d="M7810 1600 c0 -5 4 -10 9 -10 6 0 13 5 16 10 3 6 -1 10 -9 10 -9 0
-16 -4 -16 -10z"/>
<path d="M7927 1591 c-3 -12 -1 -21 3 -21 15 0 23 21 12 32 -6 6 -11 2 -15
-11z"/>
<path d="M8142 1591 c7 -11 16 -17 20 -14 10 5 -10 33 -23 33 -5 0 -4 -9 3
-19z"/>
<path d="M5140 1590 c0 -5 4 -10 9 -10 6 0 13 5 16 10 3 6 -1 10 -9 10 -9 0
-16 -4 -16 -10z"/>
<path d="M7685 1590 c-11 -5 -17 -9 -13 -9 3 -1 13 -4 21 -7 8 -3 17 2 20 10
7 18 2 19 -28 6z"/>
<path d="M7726 1583 c-4 -9 -2 -21 4 -27 13 -13 46 17 36 33 -11 16 -33 13
-40 -6z"/>
<path d="M5250 1585 c0 -15 18 -40 24 -34 3 3 -1 14 -9 25 -8 10 -14 15 -15 9z"/>
<path d="M6730 1580 c0 -5 7 -10 15 -10 8 0 15 5 15 10 0 6 -7 10 -15 10 -8 0
-15 -4 -15 -10z"/>
<path d="M6790 1580 c0 -5 5 -10 11 -10 5 0 7 5 4 10 -3 6 -8 10 -11 10 -2 0
-4 -4 -4 -10z"/>
<path d="M6825 1580 c-3 -5 -2 -10 4 -10 5 0 13 5 16 10 3 6 2 10 -4 10 -5 0
-13 -4 -16 -10z"/>
<path d="M7538 1584 c-9 -8 19 -64 32 -64 6 0 10 7 10 15 0 8 -4 15 -8 15 -5
0 -13 9 -18 21 -5 11 -12 17 -16 13z"/>
<path d="M2725 1570 c-3 -5 -1 -10 4 -10 6 0 11 5 11 10 0 6 -2 10 -4 10 -3 0
-8 -4 -11 -10z"/>
<path d="M5980 1570 c0 -5 5 -10 10 -10 6 0 10 5 10 10 0 6 -4 10 -10 10 -5 0
-10 -4 -10 -10z"/>
<path d="M6690 1576 c0 -2 7 -9 15 -16 12 -10 15 -10 15 4 0 9 -7 16 -15 16
-8 0 -15 -2 -15 -4z"/>
<path d="M7995 1541 c-1 -29 -8 -47 -28 -67 -18 -18 -25 -33 -21 -43 3 -9 7
-21 7 -28 0 -13 40 -8 45 7 2 6 7 8 12 5 4 -3 14 2 21 11 12 14 9 19 -15 39
-21 17 -24 24 -13 28 8 3 13 17 12 35 -1 25 2 29 19 25 21 -4 21 -4 2 11 -31
25 -41 19 -41 -23z m15 -86 c11 -13 8 -15 -13 -15 -19 0 -25 4 -21 15 4 8 10
15 14 15 4 0 13 -7 20 -15z"/>
<path d="M5315 1550 c3 -5 11 -10 16 -10 6 0 7 5 4 10 -3 6 -11 10 -16 10 -6
0 -7 -4 -4 -10z"/>
<path d="M7596 1544 c-3 -8 -2 -12 4 -9 6 3 10 0 10 -8 0 -8 7 -17 15 -21 19
-7 19 8 0 24 -8 7 -12 16 -9 21 3 5 1 9 -4 9 -6 0 -13 -7 -16 -16z"/>
<path d="M8060 1548 c0 -7 5 -20 10 -28 8 -12 10 -9 10 13 0 15 -4 27 -10 27
-5 0 -10 -6 -10 -12z"/>
<path d="M8161 1544 c0 -11 3 -14 6 -6 3 7 2 16 -1 19 -3 4 -6 -2 -5 -13z"/>
<path d="M5170 1540 c0 -5 7 -10 16 -10 8 0 12 5 9 10 -3 6 -10 10 -16 10 -5
0 -9 -4 -9 -10z"/>
<path d="M7900 1538 c0 -7 5 -20 10 -28 12 -19 35 2 27 24 -7 19 -37 21 -37 4z"/>
<path d="M6985 1530 c3 -5 8 -10 11 -10 2 0 4 5 4 10 0 6 -5 10 -11 10 -5 0
-7 -4 -4 -10z"/>
<path d="M7745 1531 c-3 -5 -1 -12 5 -16 5 -3 10 1 10 9 0 18 -6 21 -15 7z"/>
<path d="M6860 1515 c7 -8 17 -15 22 -15 6 0 5 7 -2 15 -7 8 -17 15 -22 15 -6
0 -5 -7 2 -15z"/>
<path d="M5180 1500 c-11 -11 -17 -26 -14 -35 9 -22 21 -18 20 6 -1 12 5 24
12 26 7 3 12 -3 12 -14 0 -14 2 -15 9 -4 10 16 4 41 -10 41 -5 0 -18 -9 -29
-20z"/>
<path d="M5230 1510 c0 -5 5 -10 10 -10 6 0 10 5 10 10 0 6 -4 10 -10 10 -5 0
-10 -4 -10 -10z"/>
<path d="M1680 1500 c0 -5 5 -10 10 -10 6 0 10 5 10 10 0 6 -4 10 -10 10 -5 0
-10 -4 -10 -10z"/>
<path d="M8110 1500 c0 -5 5 -10 10 -10 6 0 10 5 10 10 0 6 -4 10 -10 10 -5 0
-10 -4 -10 -10z"/>
<path d="M1990 1490 c0 -5 5 -10 10 -10 6 0 10 5 10 10 0 6 -4 10 -10 10 -5 0
-10 -4 -10 -10z"/>
<path d="M2055 1480 c-10 -11 -24 -20 -30 -20 -7 0 -18 -7 -25 -15 -7 -8 -17
-12 -23 -8 -5 3 -7 1 -3 -5 3 -6 2 -13 -4 -17 -5 -3 -10 1 -10 9 0 9 -5 16
-11 16 -5 0 -8 -4 -5 -9 10 -16 -13 -63 -33 -68 -11 -3 -17 -11 -15 -18 6 -15
-31 -10 -53 7 -14 11 -28 -12 -37 -65 -6 -30 -4 -37 5 -31 8 5 10 3 4 -6 -7
-11 -12 -9 -23 8 -12 18 -18 20 -36 10 -11 -6 -18 -7 -14 -3 4 4 0 14 -8 22
-8 9 -18 12 -22 8 -4 -4 -1 -10 6 -12 20 -7 14 -44 -8 -50 -20 -5 -20 -7 -4
-24 22 -25 13 -24 -15 0 -26 23 -57 17 -65 -12 -9 -32 -8 -34 16 -40 22 -6 22
-6 -5 -33 -25 -25 -27 -25 -44 -8 -17 17 -18 15 -24 -42 -3 -32 -7 -52 -8 -44
-6 32 -19 -38 -20 -108 -1 -40 -8 -89 -16 -109 -15 -35 -13 -56 4 -37 4 5 34
45 66 89 32 44 99 131 149 194 50 63 91 117 91 122 0 4 4 11 9 16 6 5 6 2 1
-7 -10 -18 97 97 189 203 42 48 66 83 62 92 -7 20 -19 19 -41 -5z m-498 -512
c-3 -8 -6 -5 -6 6 -1 11 2 17 5 13 3 -3 4 -12 1 -19z"/>
<path d="M6960 1486 c0 -8 7 -16 15 -20 17 -6 18 -4 9 18 -8 20 -24 21 -24 2z"/>
<path d="M7510 1492 c0 -5 7 -13 16 -16 10 -4 14 -1 12 6 -5 15 -28 23 -28 10z"/>
<path d="M5220 1462 c-13 -14 -12 -15 4 -9 14 6 17 4 12 -9 -5 -14 -4 -15 9
-4 9 7 12 16 8 19 -4 4 -10 9 -13 13 -3 3 -12 -1 -20 -10z"/>
<path d="M1641 1431 c-1 -24 2 -32 9 -25 7 7 7 19 1 35 -9 23 -10 22 -10 -10z"/>
<path d="M8098 1454 c-10 -15 5 -67 21 -72 10 -3 11 2 6 19 -7 23 -7 23 12 6
11 -9 22 -14 26 -11 9 9 -18 34 -37 34 -8 0 -16 8 -18 18 -2 10 -6 13 -10 6z"/>
<path d="M1905 1431 c-3 -5 -1 -12 5 -16 5 -3 10 1 10 9 0 18 -6 21 -15 7z"/>
<path d="M1700 1420 c0 -5 5 -10 10 -10 6 0 10 5 10 10 0 6 -4 10 -10 10 -5 0
-10 -4 -10 -10z"/>
<path d="M1736 1394 c-3 -8 -10 -12 -16 -9 -5 3 -10 1 -10 -6 0 -6 8 -9 20 -6
22 6 28 -8 8 -16 -7 -3 -4 -6 7 -7 19 -2 19 -2 -2 -8 l-21 -7 19 -24 c17 -21
22 -22 29 -10 7 10 5 15 -6 17 -13 3 -13 6 2 17 17 12 17 14 1 29 -9 9 -14 23
-11 31 4 8 2 15 -4 15 -5 0 -13 -7 -16 -16z"/>
<path d="M7902 1399 c2 -6 8 -10 13 -10 5 0 11 4 13 10 2 6 -4 11 -13 11 -9 0
-15 -5 -13 -11z"/>
<path d="M7162 1370 c0 -19 2 -27 5 -17 2 9 2 25 0 35 -3 9 -5 1 -5 -18z"/>
<path d="M1650 1370 c11 -11 20 -25 20 -32 0 -6 2 -9 5 -6 10 9 -17 58 -32 58
-9 0 -6 -7 7 -20z"/>
<path d="M1805 1380 c-3 -5 1 -10 9 -10 9 0 16 5 16 10 0 6 -4 10 -9 10 -6 0
-13 -4 -16 -10z"/>
<path d="M8040 1356 c0 -9 7 -19 15 -23 25 -9 27 2 5 22 -18 17 -20 17 -20 1z"/>
<path d="M8095 1339 c-4 -6 -5 -13 -2 -16 7 -7 27 6 27 18 0 12 -17 12 -25 -2z"/>
<path d="M8058 1293 c7 -3 16 -2 19 1 4 3 -2 6 -13 5 -11 0 -14 -3 -6 -6z"/>
<path d="M8102 1291 c-10 -6 -7 -12 12 -25 14 -9 26 -12 26 -6 0 5 -4 10 -9
10 -5 0 -11 7 -13 15 -2 9 -8 12 -16 6z"/>
<path d="M1646 1268 c-21 -30 -20 -33 8 -33 14 0 21 4 18 10 -4 6 -5 18 -4 28
4 23 -4 22 -22 -5z"/>
<path d="M7915 1270 c-3 -5 -1 -10 4 -10 6 0 11 5 11 10 0 6 -2 10 -4 10 -3 0
-8 -4 -11 -10z"/>
<path d="M1605 1220 c-3 -5 -1 -10 4 -10 6 0 11 5 11 10 0 6 -2 10 -4 10 -3 0
-8 -4 -11 -10z"/>
<path d="M965 1200 c3 -5 8 -10 11 -10 2 0 4 5 4 10 0 6 -5 10 -11 10 -5 0 -7
-4 -4 -10z"/>
<path d="M880 1190 c0 -5 5 -10 11 -10 5 0 7 5 4 10 -3 6 -8 10 -11 10 -2 0
-4 -4 -4 -10z"/>
<path d="M1054 1165 c-19 -14 -18 -14 4 -15 13 0 22 6 22 15 0 19 -1 19 -26 0z"/>
<path d="M1595 1170 c-3 -5 -1 -10 4 -10 6 0 11 5 11 10 0 6 -2 10 -4 10 -3 0
-8 -4 -11 -10z"/>
<path d="M870 1163 c0 -5 5 -15 11 -23 9 -13 10 -13 5 2 -3 12 2 18 17 21 18
4 17 5 -5 6 -16 0 -28 -2 -28 -6z"/>
<path d="M1051 1124 c-10 -12 -10 -19 -2 -27 20 -20 12 -31 -9 -12 -11 10 -23
15 -26 12 -4 -3 6 -17 21 -32 16 -14 25 -28 21 -32 -4 -4 -11 -1 -16 7 -13 21
-12 3 1 -22 8 -15 8 -27 0 -45 -6 -13 -7 -22 -2 -18 5 3 12 1 16 -5 3 -5 2
-10 -3 -10 -6 0 -8 -10 -5 -22 4 -22 4 -22 -8 -3 -7 11 -19 26 -27 34 -12 12
-15 12 -22 0 -5 -8 -7 -24 -4 -35 3 -12 1 -25 -5 -28 -6 -4 -11 -2 -11 3 0 21
-19 11 -23 -11 -4 -22 -4 -22 -6 -2 0 12 -8 24 -16 28 -12 4 -15 -1 -13 -24 2
-24 7 -30 25 -30 12 0 25 -5 29 -12 4 -6 3 -8 -3 -5 -6 4 -25 2 -42 -4 -31
-11 -31 -12 -15 -30 15 -17 15 -19 1 -19 -22 0 -47 -28 -41 -45 9 -22 19 -18
31 13 11 27 11 27 6 -5 -5 -31 -4 -33 26 -33 23 0 31 5 31 18 0 14 2 15 10 2
9 -13 14 -7 11 12 0 4 6 5 14 2 8 -4 15 -12 15 -19 0 -8 12 -12 33 -11 30 1
32 4 35 39 2 21 -2 45 -9 53 -6 8 -8 14 -3 14 13 0 13 134 0 143 -8 6 -7 10 2
14 10 4 10 8 1 19 -6 8 -7 14 -2 14 11 0 11 70 0 88 -5 8 -4 19 3 27 17 20 -1
18 -19 -1z m-52 -287 c0 -21 -1 -21 -9 -2 -12 28 -12 37 0 30 6 -3 10 -16 9
-28z m24 -50 c-3 -5 -9 -3 -14 4 -4 7 -5 17 -2 22 3 5 9 3 14 -4 4 -7 5 -17 2
-22z m-25 -22 c-3 -3 -9 2 -12 12 -6 14 -5 15 5 6 7 -7 10 -15 7 -18z m70 -1
c2 -15 1 -16 -6 -5 -6 8 -17 11 -27 7 -15 -5 -16 -4 -5 9 16 20 34 14 38 -11z"/>
<path d="M970 1122 c0 -7 5 -12 10 -12 6 0 10 -5 10 -11 0 -5 -5 -7 -11 -3 -8
4 -9 0 -4 -15 5 -16 3 -20 -8 -15 -8 3 -18 1 -22 -5 -3 -6 -16 -11 -28 -11
-25 -1 -57 -22 -57 -39 0 -13 -17 -15 -22 -2 -1 5 -9 3 -16 -5 -11 -12 -10
-14 3 -14 8 0 15 -5 15 -11 0 -6 -7 -9 -15 -5 -9 3 -15 0 -15 -8 0 -17 30 -30
30 -13 0 7 8 0 18 -15 9 -16 20 -28 23 -28 10 0 -1 39 -12 46 -5 3 -9 13 -9
22 0 13 2 13 15 -4 13 -17 14 -17 15 -2 0 9 -5 20 -10 23 -6 4 -8 11 -5 16 13
19 37 -21 31 -51 -3 -16 -1 -32 4 -35 6 -3 10 -1 10 5 0 6 7 18 15 26 8 9 15
21 14 27 0 9 -2 8 -6 0 -2 -7 -9 -13 -14 -13 -6 0 -5 9 1 21 7 11 9 26 7 33
-3 7 3 17 13 24 16 10 18 6 18 -39 0 -27 -5 -49 -11 -49 -6 0 -7 -3 -4 -6 4
-4 13 -1 22 6 8 7 21 10 29 7 16 -6 43 19 32 30 -3 3 -6 1 -6 -5 0 -17 -17
-15 -24 4 -3 8 -2 12 4 9 6 -3 10 -2 10 4 0 6 -9 15 -19 21 -17 8 -18 14 -8
40 9 25 9 33 -6 47 -11 11 -17 13 -17 5z m-56 -88 c9 -3 16 -12 16 -20 0 -18
-8 -18 -26 0 -23 23 -19 31 10 20z"/>
<path d="M906 1080 c-16 -5 -33 -7 -38 -4 -4 3 -5 -2 -2 -11 5 -12 10 -13 17
-6 6 6 21 11 34 11 13 0 23 5 23 10 0 6 -1 10 -2 9 -2 0 -16 -5 -32 -9z"/>
<path d="M1005 1050 c3 -5 8 -10 11 -10 2 0 4 5 4 10 0 6 -5 10 -11 10 -5 0
-7 -4 -4 -10z"/>
<path d="M805 1020 c-3 -5 -1 -10 4 -10 6 0 11 5 11 10 0 6 -2 10 -4 10 -3 0
-8 -4 -11 -10z"/>
<path d="M760 991 c-12 -24 -13 -44 -1 -37 8 5 22 56 15 56 -2 0 -8 -9 -14
-19z"/>
<path d="M586 945 c4 -8 11 -15 16 -15 6 0 5 6 -2 15 -7 8 -14 15 -16 15 -2 0
-1 -7 2 -15z"/>
<path d="M840 932 c0 -7 -7 -9 -17 -5 -15 6 -15 4 2 -12 11 -11 23 -24 28 -30
4 -5 5 3 3 19 -5 29 -16 49 -16 28z"/>
<path d="M930 930 c0 -5 5 -10 10 -10 6 0 10 5 10 10 0 6 -4 10 -10 10 -5 0
-10 -4 -10 -10z"/>
<path d="M747 923 c-4 -3 -7 -11 -7 -17 0 -6 5 -5 12 2 6 6 9 14 7 17 -3 3 -9
2 -12 -2z"/>
<path d="M965 910 c3 -5 8 -10 11 -10 2 0 4 5 4 10 0 6 -5 10 -11 10 -5 0 -7
-4 -4 -10z"/>
<path d="M823 876 c4 -9 2 -16 -3 -16 -6 0 -10 5 -10 10 0 6 -5 10 -12 10 -6
0 -4 -7 5 -18 10 -10 17 -26 17 -35 0 -8 7 -23 16 -31 8 -9 11 -16 6 -16 -6 0
-8 -8 -5 -19 3 -10 0 -22 -6 -25 -14 -9 -14 -26 -1 -26 5 0 13 12 16 28 4 15
10 29 15 32 8 5 12 33 10 66 0 12 -13 30 -28 39 -23 16 -25 16 -20 1z"/>
<path d="M775 840 c28 -12 37 -12 30 0 -3 6 -16 10 -28 9 -21 0 -21 -1 -2 -9z"/>
<path d="M713 781 c6 -16 19 -32 29 -34 22 -6 24 8 3 17 -8 3 -15 15 -15 26 0
11 -6 20 -14 20 -12 0 -12 -6 -3 -29z"/>
<path d="M758 794 c-3 -14 1 -25 14 -33 17 -10 18 -10 10 6 -5 10 -11 25 -14
33 -3 10 -6 9 -10 -6z"/>
<path d="M812 780 c0 -16 3 -30 7 -30 5 0 7 12 5 26 -4 37 -11 39 -12 4z"/>
<path d="M655 759 c-4 -6 -4 -13 -1 -16 3 -4 6 0 6 8 0 8 9 1 21 -16 19 -28
20 -28 14 -5 -6 20 -5 23 6 13 19 -19 33 -16 15 3 -9 8 -20 12 -26 9 -5 -3
-10 -1 -10 4 0 14 -17 14 -25 0z"/>
<path d="M588 754 c-9 -14 7 -50 16 -36 4 7 3 19 -2 28 -5 9 -12 13 -14 8z"/>
<path d="M745 720 c3 -5 8 -10 11 -10 2 0 4 5 4 10 0 6 -5 10 -11 10 -5 0 -7
-4 -4 -10z"/>
<path d="M982 714 c-7 -8 -8 -14 -3 -14 10 0 25 19 20 25 -2 1 -10 -3 -17 -11z"/>
<path d="M5800 540 c0 -5 5 -10 11 -10 5 0 7 5 4 10 -3 6 -8 10 -11 10 -2 0
-4 -4 -4 -10z"/>
<path d="M1120 80 c-6 -11 -8 -20 -6 -20 3 0 10 9 16 20 6 11 8 20 6 20 -3 0
-10 -9 -16 -20z"/>
</g>
</svg>
